<svg width="16" height="16" viewBox="0 0 16 16" fill="none" xmlns="http://www.w3.org/2000/svg">
<g clip-path="url(#clip0_502_570)">
<path d="M14.6667 13.2802V11.2802C14.6748 10.9533 14.5624 10.6348 14.351 10.3852C14.1396 10.1357 13.8438 9.97258 13.52 9.9269C12.88 9.84248 12.2515 9.68593 11.6467 9.46023C11.408 9.37053 11.1487 9.35112 10.8994 9.40429C10.6501 9.45746 10.4213 9.58099 10.24 9.76023L9.39333 10.6069C7.7243 9.65786 6.34237 8.27592 5.39333 6.60689L6.24 5.76023C6.41924 5.57897 6.54277 5.35012 6.59594 5.10081C6.64911 4.8515 6.62969 4.59218 6.54 4.35356C6.3143 3.74871 6.15775 3.12027 6.07333 2.48023C6.02805 2.15986 5.86782 1.86689 5.62251 1.65592C5.37719 1.44495 5.06354 1.33038 4.74 1.33356H2.74C2.55489 1.33374 2.37185 1.37245 2.20253 1.44724C2.0332 1.52203 1.88131 1.63126 1.75651 1.76797C1.63171 1.90469 1.53675 2.06589 1.47767 2.24131C1.41858 2.41673 1.39667 2.60254 1.41333 2.78689C1.63216 4.84756 2.33332 6.8277 3.46 8.56689C4.48356 10.1777 5.84922 11.5433 7.46 12.5669C9.19133 13.6897 11.1619 14.3907 13.2133 14.6136C13.3982 14.6303 13.5846 14.6082 13.7605 14.5487C13.9364 14.4892 14.0979 14.3937 14.2347 14.2681C14.3715 14.1426 14.4806 13.9899 14.555 13.8198C14.6294 13.6497 14.6674 13.4659 14.6667 13.2802Z" stroke="white" stroke-width="2" stroke-linecap="round" stroke-linejoin="round"/>
</g>
<defs>
<clipPath id="clip0_502_570">
<rect width="16" height="16" fill="white"/>
</clipPath>
</defs>
</svg>
