<svg width="450" height="450" viewBox="0 0 450 450" fill="none" xmlns="http://www.w3.org/2000/svg">
<path d="M351.625 201.478L283 196.348C276.354 195.845 269.683 196.944 263.549 199.555L245.295 207.335C242.84 211.792 239.823 215.916 236.318 219.604C227.511 229.009 193.738 246.494 175.912 250.171C171.712 250.918 167.383 250.161 163.685 248.033C155.609 254.513 147.146 260.497 138.344 265.95C138.344 265.95 155.016 313.445 217.094 286.598L266.47 265.18L255.654 291.13C255.953 305.964 256.039 325.415 255.055 338.38C266.648 341.911 279.011 342.029 290.668 338.719C295.326 307.084 298.874 257.152 286.819 238.3L345.816 237.744C353.25 224.354 352.595 216.74 351.625 201.478Z" fill="#007A3D"/>
<path d="M242.012 183.096L249.194 151.504C249.353 150.812 249.23 150.086 248.854 149.484C248.477 148.883 247.877 148.456 247.185 148.297C246.493 148.139 245.767 148.261 245.166 148.638C244.564 149.015 244.137 149.615 243.979 150.307L235.514 187.542" fill="#007A3D"/>
<path d="M242.012 183.096L249.194 151.504C249.353 150.812 249.23 150.086 248.854 149.484C248.477 148.883 247.877 148.456 247.185 148.297C246.493 148.139 245.767 148.261 245.166 148.638C244.564 149.015 244.137 149.615 243.979 150.307L235.514 187.542C236.579 191.468 239.438 196.733 242.012 183.096Z" fill="#007A3D"/>
<path d="M236.455 63.3937C236.455 68.6951 234.883 73.8774 231.937 78.2854C228.992 82.6933 224.806 86.1289 219.908 88.1576C215.01 90.1864 209.621 90.7172 204.421 89.6829C199.222 88.6487 194.446 86.0958 190.697 82.3472C186.948 78.5985 184.396 73.8225 183.361 68.623C182.327 63.4235 182.858 58.034 184.887 53.1362C186.915 48.2383 190.351 44.0521 194.759 41.1068C199.167 38.1615 204.349 36.5895 209.651 36.5895C216.758 36.5942 223.573 39.4198 228.599 44.4455C233.624 49.4713 236.45 56.2863 236.455 63.3937Z" fill="#007A3D"/>
<path d="M376.425 204.856C371.507 216.517 364.559 227.213 355.905 236.448C360.65 237.175 365.396 238.248 369.457 238.885C373.687 237.04 377.654 234.641 381.251 231.75C392.501 222.687 415.676 211.444 420.752 205.031C411.561 203.701 389.075 204.599 376.425 204.856Z" fill="#FBC4C9"/>
<path d="M289.465 364.743C277.617 360.27 266.66 353.727 257.103 345.418C256.547 350.165 255.692 354.953 255.179 359.057C257.184 363.22 259.728 367.101 262.746 370.6C272.196 381.458 284.294 404.201 290.871 409.075C291.902 399.841 290.194 377.397 289.465 364.743Z" fill="#FBC4C9"/>
<path d="M142.704 229.223C141.849 229.651 140.951 230.035 140.053 230.42C135.861 225.494 131.921 220.357 128.25 215.03C128.635 215.93 140.434 241.45 160.013 251.068C161.296 250.042 162.535 249.059 163.69 248.076C156.375 244.1 148.774 236.405 142.704 229.223Z" fill="#FBC4C9"/>
<path d="M255.137 270.049C255.137 270.049 255.521 279.07 255.735 291.082L266.465 265.176L255.137 270.049Z" fill="#FBC4C9"/>
<path d="M140.011 117.047C140.011 117.047 132.525 103.023 114.917 111.575C97.308 120.127 100.724 154.496 100.724 154.496C100.724 154.496 85.0748 161.977 76.7385 174.589C63.828 194.125 70.3283 223.623 110.475 223.623C108.561 215.202 107.899 206.545 108.509 197.93C109.577 182.754 115.092 168.86 119.966 154.624C126.18 136.222 124.846 137.693 127.019 130.941C121.844 126.025 128.003 120.125 130.781 124.911C131.958 126.846 132.239 126.922 133.18 127.217C138.274 128.812 147.517 130.592 152.53 128.932C152.537 128.801 152.964 117.047 140.011 117.047Z" fill="#FBC4C9"/>
<path d="M130.52 160.567L125.946 149.11C127.472 151.155 129.269 152.98 131.29 154.539C130.914 156.531 130.657 158.544 130.52 160.567Z" fill="#FBC4C9"/>
<path d="M191.012 354.697C191.307 356.142 191.168 357.643 190.61 359.01C190.053 360.376 189.103 361.546 187.881 362.373C186.659 363.199 185.219 363.645 183.743 363.653C182.267 363.661 180.823 363.231 179.591 362.419C178.36 361.606 177.397 360.446 176.825 359.086C176.253 357.725 176.096 356.226 176.376 354.777C176.656 353.329 177.359 351.995 178.397 350.946C179.434 349.897 180.759 349.179 182.205 348.883C183.165 348.679 184.157 348.669 185.121 348.853C186.085 349.037 187.003 349.411 187.821 349.954C188.64 350.494 189.344 351.191 189.892 352.005C190.439 352.82 190.82 353.734 191.012 354.697Z" fill="#FBC4C9"/>
<path d="M236.455 63.3937C236.455 68.6951 234.883 73.8774 231.937 78.2854C228.992 82.6933 224.806 86.1289 219.908 88.1576C215.01 90.1864 209.621 90.7172 204.421 89.6829C199.222 88.6487 194.446 86.0958 190.697 82.3472C186.948 78.5985 184.396 73.8225 183.361 68.623C182.327 63.4235 182.858 58.034 184.887 53.1362C186.915 48.2383 190.351 44.0521 194.759 41.1068C199.167 38.1615 204.349 36.5895 209.651 36.5895C216.758 36.5942 223.573 39.4198 228.599 44.4455C233.624 49.4713 236.45 56.2863 236.455 63.3937Z" stroke="#1A1A1A" stroke-width="2.25"/>
<path d="M295.065 285.653L317.167 296.811C321.704 299.094 326.96 299.485 331.785 297.898C336.61 296.312 340.608 292.877 342.905 288.346L368.212 238.243" stroke="#1A1A1A" stroke-width="2.25" stroke-linecap="round" stroke-linejoin="round"/>
<path d="M384.244 206.523L399.848 175.657C402.13 171.121 402.521 165.864 400.935 161.04C399.348 156.216 395.913 152.218 391.383 149.922L235.208 71.019M146.68 173.7L191.99 83.9452" stroke="#1A1A1A" stroke-width="2.25" stroke-linecap="round" stroke-linejoin="round"/>
<path d="M400.574 159.84L270.142 180.873L221.929 87.2393" stroke="#1A1A1A" stroke-width="2.25" stroke-linecap="round" stroke-linejoin="round"/>
<path d="M198.675 292.792C184.018 308.91 164.818 320.202 143.609 325.179C122.4 330.155 100.18 328.582 79.884 320.665C66.4109 315.411 54.1337 307.498 43.7846 297.397C33.4356 287.296 25.2265 275.215 19.647 261.873C11.2442 241.774 9.13395 219.6 13.5949 198.277C18.0558 176.954 28.8781 157.485 44.6333 142.441" stroke="#1A1A1A" stroke-width="2.25" stroke-linecap="round" stroke-linejoin="round"/>
<path d="M130.52 164.115C130.401 160.875 130.676 157.633 131.339 154.458C136.55 157.943 140.857 155.776 144.018 151.267C148.073 144.705 150.154 137.115 150.014 129.402" stroke="#1A1A1A" stroke-width="2.25" stroke-linecap="round" stroke-linejoin="round"/>
<path d="M128.25 215.03C131.92 220.357 135.858 225.493 140.049 230.42C146.786 227.596 152.992 223.644 158.4 218.734C162.406 215.097 166.001 211.031 169.119 206.608C161.742 196.963 154.907 186.916 148.644 176.512C145.593 171.439 141.015 167.461 135.565 165.15C133.227 164.242 130.703 163.919 128.212 164.209C126.362 164.695 124.424 164.738 122.554 164.335C120.685 163.933 118.936 163.096 117.45 161.892" stroke="#1A1A1A" stroke-width="2.25" stroke-linecap="round" stroke-linejoin="round"/>
<path d="M351.967 204.813C357.781 205.027 369.324 204.984 376.378 204.856C371.473 216.513 364.54 227.209 355.903 236.448C353.722 236.106 349.105 235.636 347.011 235.507" stroke="#1A1A1A" stroke-width="2.25" stroke-linecap="round" stroke-linejoin="round"/>
<path d="M420.75 205.027C423.187 205.369 424.753 205.927 424.939 206.694C426.123 211.549 400.711 223.344 389.286 232.558C385.963 235.272 382.245 237.463 378.261 239.056C375.354 239.59 372.37 239.532 369.486 238.885C373.723 237.045 377.694 234.645 381.294 231.75C392.512 222.705 415.665 211.482 420.75 205.027Z" stroke="#1A1A1A" stroke-width="2.25" stroke-linecap="round" stroke-linejoin="round"/>
<path d="M376.425 204.856C389.079 204.599 411.566 203.701 420.75 205.027C415.663 211.439 392.501 222.694 381.249 231.745C377.652 234.641 373.684 237.042 369.45 238.885C365.389 238.243 360.644 237.175 355.898 236.448C364.554 227.214 371.504 216.517 376.425 204.856Z" stroke="#1A1A1A" stroke-width="2.25" stroke-linecap="round" stroke-linejoin="round"/>
<path d="M288.952 339.221C288.567 345.634 288.952 355.081 289.465 364.786C277.635 360.304 266.693 353.762 257.146 345.463C257.402 343.282 257.573 341.102 257.616 339.05" stroke="#1A1A1A" stroke-width="2.25" stroke-linecap="round" stroke-linejoin="round"/>
<path d="M290.876 409.075C290.619 411.55 290.153 413.102 289.379 413.35C284.612 414.868 271.845 389.713 262.233 378.637C259.384 375.407 257.048 371.76 255.308 367.821C254.681 364.934 254.638 361.95 255.179 359.046C257.177 363.213 259.722 367.094 262.746 370.588C272.196 381.494 284.292 404.201 290.876 409.075Z" stroke="#1A1A1A" stroke-width="2.25" stroke-linecap="round" stroke-linejoin="round"/>
<path d="M289.465 364.743C290.192 377.397 291.901 399.843 290.875 409.068C284.292 404.194 272.164 381.476 262.75 370.593C259.729 367.097 257.184 363.216 255.184 359.051C255.697 354.947 256.552 350.156 257.108 345.411C266.662 353.722 277.618 360.268 289.465 364.743Z" stroke="#1A1A1A" stroke-width="2.25" stroke-linecap="round" stroke-linejoin="round"/>
<path d="M160.018 251.068C140.438 241.45 128.639 215.928 128.25 215.03" stroke="#1A1A1A" stroke-width="2.25" stroke-linecap="round" stroke-linejoin="round"/>
<path d="M142.704 229.223C148.779 236.405 156.388 244.136 163.696 248.123C167.403 250.224 171.726 250.965 175.921 250.218C193.763 246.618 227.52 229.057 236.326 219.652C252.274 202.619 250.965 189.643 249.579 167.967C249.016 159.16 247.909 159.372 246.586 163.467C244.618 169.578 242.134 184.392 240.088 190.229C239.897 190.816 239.503 191.315 238.977 191.639C237.402 192.539 236.41 190.57 235.602 187.792C234.745 184.842 234.133 180.914 233.336 178.567C231.939 174.429 229.088 170.658 228.634 182.799C228.368 189.938 228.35 202.234 220.597 206.739C214.562 210.178 208.274 213.15 201.787 215.631C195.077 218.259 188.048 219.984 180.884 220.761C176.992 220.968 171.776 216.529 166.817 209.646" stroke="#1A1A1A" stroke-width="2.25" stroke-linecap="round" stroke-linejoin="round"/>
<path d="M242.012 183.096L249.194 151.504C249.353 150.812 249.23 150.086 248.854 149.484C248.477 148.883 247.877 148.456 247.185 148.297C246.493 148.139 245.767 148.261 245.166 148.638C244.564 149.015 244.137 149.615 243.979 150.307L235.514 187.542" stroke="#1A1A1A" stroke-width="2.25" stroke-linecap="round" stroke-linejoin="round"/>
<path d="M255.15 270.09C261.819 267.226 266.477 265.176 266.477 265.176L255.735 291.082" stroke="#1A1A1A" stroke-width="2.25" stroke-linecap="round" stroke-linejoin="round"/>
<path d="M163.694 248.119C155.619 254.579 147.153 260.534 138.344 265.95C123.981 255.926 114.007 240.778 110.475 223.623" stroke="#1A1A1A" stroke-width="2.25" stroke-linecap="round" stroke-linejoin="round"/>
<path d="M245.261 207.335L265.311 198.828C270.276 196.73 275.667 195.836 281.043 196.22L351.625 201.478C353.214 216.25 353.025 224.746 345.811 237.73L286.9 238.286" stroke="#1A1A1A" stroke-width="2.25" stroke-linecap="round" stroke-linejoin="round"/>
<path d="M140.011 117.047C140.011 117.047 132.525 103.023 114.917 111.575C97.308 120.127 100.724 154.496 100.724 154.496C100.724 154.496 85.0748 161.977 76.7385 174.589C63.828 194.125 70.3283 223.623 110.475 223.623C108.561 215.202 107.899 206.545 108.509 197.93C109.577 182.754 115.092 168.86 119.966 154.624C121.077 151.333 123.728 143.296 124.625 139.959C125.438 136.84 125.822 134.658 127.019 130.941C121.844 126.025 128.003 120.125 130.781 124.911C132.008 126.936 132.246 126.819 133.589 127.262C136.915 128.356 145.874 130.837 152.541 128.837C152.537 128.844 152.964 117.047 140.011 117.047Z" stroke="#1A1A1A" stroke-width="2.25" stroke-linecap="round" stroke-linejoin="round"/>
<path d="M55.62 124.398C40.4646 131.708 26.2054 140.747 13.1265 151.333C12.7584 151.562 12.4513 151.877 12.2317 152.25C12.012 152.624 11.8862 153.045 11.8652 153.478C11.8442 153.911 11.9285 154.343 12.111 154.736C12.2934 155.129 12.5686 155.472 12.9128 155.736L22.6598 163.474C28.566 155.727 36.5738 149.179 44.6198 142.416C38.4268 150.427 33.0028 159.005 28.4198 168.035L38.907 176.342C39.2453 176.611 39.6434 176.794 40.0676 176.878C40.4918 176.961 40.9298 176.941 41.3446 176.819C41.7594 176.698 42.139 176.478 42.4513 176.179C42.7637 175.88 42.9996 175.511 43.1393 175.102L59.6385 127.575C59.8313 127.042 59.8515 126.462 59.6963 125.917C59.5412 125.372 59.2185 124.89 58.774 124.539C58.3295 124.187 57.7858 123.984 57.2197 123.959C56.6536 123.934 56.094 124.088 55.62 124.398Z" stroke="#1A1A1A" stroke-width="2.25" stroke-linecap="round" stroke-linejoin="round"/>
<path d="M345.47 42.9188C336.962 38.6843 327.429 44.7188 328.797 53.6062L324.821 57.2805L330.293 57.708C335.124 65.8733 347.393 66.2175 351.412 58.1782C352.641 55.366 352.705 52.1813 351.592 49.3214C350.478 46.4615 348.277 44.1593 345.47 42.9188Z" stroke="#1A1A1A" stroke-width="2.25" stroke-linecap="round" stroke-linejoin="round"/>
<path d="M396.085 289.928C393.477 288.58 390.44 288.321 387.641 289.208C386.255 289.648 384.97 290.358 383.859 291.295C382.748 292.233 381.832 293.381 381.166 294.673C381.166 294.673 373.941 308.783 367.87 308.353L398.052 323.957C394.162 319.255 400.831 304.85 400.831 304.85C401.501 303.559 401.909 302.149 402.033 300.7C402.156 299.251 401.993 297.792 401.551 296.406C401.11 295.02 400.401 293.734 399.463 292.623C398.525 291.511 397.378 290.596 396.085 289.928Z" stroke="#1A1A1A" stroke-width="2.25" stroke-linecap="round" stroke-linejoin="round"/>
<path d="M387.92 318.742C387.593 319.41 387.136 320.006 386.576 320.495C386.015 320.985 385.363 321.357 384.656 321.59C383.95 321.824 383.204 321.914 382.463 321.855C381.721 321.796 380.999 321.59 380.338 321.248C379.677 320.907 379.091 320.436 378.615 319.865C378.138 319.294 377.781 318.633 377.563 317.921C377.346 317.21 377.272 316.462 377.348 315.722C377.423 314.982 377.646 314.265 378.002 313.612" stroke="#1A1A1A" stroke-width="2.25" stroke-linecap="round" stroke-linejoin="round"/>
<path d="M429.003 126.623L421.009 154.154" stroke="#1A1A1A" stroke-width="2.25" stroke-linecap="round" stroke-linejoin="round"/>
<path d="M438.75 144.364L411.219 136.37" stroke="#1A1A1A" stroke-width="2.25" stroke-linecap="round" stroke-linejoin="round"/>
<path d="M255.778 324.256C267.922 326.254 280.291 326.482 292.5 324.931" stroke="#1A1A1A" stroke-width="2.25" stroke-linecap="round" stroke-linejoin="round"/>
<path d="M335.295 200.367C337.221 213.192 335.146 226.299 329.353 237.901" stroke="#1A1A1A" stroke-width="2.25" stroke-linecap="round" stroke-linejoin="round"/>
<path d="M191.012 354.697C191.307 356.142 191.168 357.643 190.61 359.01C190.053 360.376 189.103 361.546 187.881 362.373C186.659 363.199 185.219 363.645 183.743 363.653C182.267 363.661 180.823 363.231 179.591 362.419C178.36 361.606 177.397 360.446 176.825 359.086C176.253 357.725 176.096 356.226 176.376 354.777C176.656 353.329 177.359 351.995 178.397 350.946C179.434 349.897 180.759 349.179 182.205 348.883C183.165 348.679 184.157 348.669 185.121 348.853C186.085 349.037 187.003 349.411 187.821 349.954C188.64 350.494 189.344 351.191 189.892 352.005C190.44 352.819 190.82 353.734 191.012 354.697Z" stroke="#1A1A1A" stroke-width="2.25" stroke-linecap="round" stroke-linejoin="round"/>
<path d="M187.634 331.313C190.5 328.631 194.096 326.861 197.968 326.225C201.841 325.589 205.815 326.116 209.387 327.74C212.961 329.361 215.973 332.006 218.043 335.34C220.113 338.674 221.148 342.547 221.017 346.47C220.885 350.392 219.593 354.187 217.305 357.375C215.016 360.562 211.833 363 208.159 364.379C204.485 365.757 200.485 366.016 196.665 365.122C192.844 364.228 189.375 362.222 186.694 359.357C183.102 355.512 181.183 350.398 181.359 345.14C181.536 339.881 183.793 334.908 187.634 331.313Z" stroke="#1A1A1A" stroke-width="2.25" stroke-linecap="round" stroke-linejoin="round"/>
<path d="M138.344 265.95C138.344 265.95 155.016 313.445 217.094 286.598L255.15 270.09C255.622 288.049 256.617 318.445 255.105 338.366C266.696 341.897 279.059 342.015 290.716 338.708C295.376 307.071 298.978 257.132 286.911 238.286C271.278 213.867 223.214 229.522 223.214 229.522" stroke="#1A1A1A" stroke-width="2.25" stroke-linecap="round" stroke-linejoin="round"/>
<path d="M131.339 154.458C129.279 152.99 127.47 151.199 125.98 149.155L130.52 160.567" stroke="#1A1A1A" stroke-width="2.25" stroke-linecap="round" stroke-linejoin="round"/>
</svg>
