<svg width="69" height="68" viewBox="0 0 69 68" fill="none" xmlns="http://www.w3.org/2000/svg">
<g filter="url(#filter0_d_409_2166)">
<circle cx="38.5" cy="30" r="18" fill="#CE1225"/>
<path d="M43.9951 28.5049C43.245 27.7548 42.2276 27.3334 41.1667 27.3334C40.1058 27.3334 39.0884 27.7548 38.3383 28.5049C37.5881 29.2551 37.1667 30.2725 37.1667 31.3334V36H39.8334V31.3334C39.8334 30.9798 39.9738 30.6406 40.2239 30.3906C40.4739 30.1405 40.8131 30 41.1667 30C41.5203 30 41.8594 30.1405 42.1095 30.3906C42.3595 30.6406 42.5 30.9798 42.5 31.3334V36H45.1667V31.3334C45.1667 30.2725 44.7453 29.2551 43.9951 28.5049Z" stroke="white" stroke-linecap="round" stroke-linejoin="round"/>
<path d="M34.5 28H31.8333V36H34.5V28Z" stroke="white" stroke-linecap="round" stroke-linejoin="round"/>
<path d="M33.1666 26C33.903 26 34.5 25.4031 34.5 24.6667C34.5 23.9303 33.903 23.3334 33.1666 23.3334C32.4303 23.3334 31.8333 23.9303 31.8333 24.6667C31.8333 25.4031 32.4303 26 33.1666 26Z" stroke="white" stroke-linecap="round" stroke-linejoin="round"/>
</g>
<defs>
<filter id="filter0_d_409_2166" x="0.5" y="0" width="68" height="68" filterUnits="userSpaceOnUse" color-interpolation-filters="sRGB">
<feFlood flood-opacity="0" result="BackgroundImageFix"/>
<feColorMatrix in="SourceAlpha" type="matrix" values="0 0 0 0 0 0 0 0 0 0 0 0 0 0 0 0 0 0 127 0" result="hardAlpha"/>
<feOffset dx="-4" dy="4"/>
<feGaussianBlur stdDeviation="8"/>
<feComposite in2="hardAlpha" operator="out"/>
<feColorMatrix type="matrix" values="0 0 0 0 0 0 0 0 0 0 0 0 0 0 0 0 0 0 0.24 0"/>
<feBlend mode="normal" in2="BackgroundImageFix" result="effect1_dropShadow_409_2166"/>
<feBlend mode="normal" in="SourceGraphic" in2="effect1_dropShadow_409_2166" result="shape"/>
</filter>
</defs>
</svg>
