<svg width="80" height="80" viewBox="0 0 80 80" fill="none" xmlns="http://www.w3.org/2000/svg">
<g filter="url(#filter0_d_366_136)">
<circle cx="44" cy="36" r="24" fill="#FEFEFE"/>
<path d="M54 31C54 28.2386 51.7614 26 49 26H44H39C36.2386 26 34 28.2386 34 31V41C34 43.7614 36.2386 46 39 46H49C51.7614 46 54 43.7614 54 41V31Z" stroke="#6E6E6E" stroke-width="2" stroke-linecap="round" stroke-linejoin="round"/>
<path d="M47.5938 37.7988C47.9813 37.052 48.1234 36.2021 48 35.3698C47.8741 34.5209 47.4785 33.735 46.8717 33.1281C46.2649 32.5213 45.4789 32.1257 44.63 31.9998C43.7978 31.8764 42.9478 32.0186 42.201 32.4061C41.4542 32.7936 40.8486 33.4067 40.4703 34.1582C40.0921 34.9097 39.9604 35.7614 40.0941 36.592C40.2277 37.4227 40.6199 38.1901 41.2149 38.785C41.8098 39.3799 42.5771 39.7721 43.4078 39.9057C44.2385 40.0394 45.0901 39.9077 45.8416 39.5295C46.5932 39.1512 47.2063 38.5456 47.5938 37.7988Z" stroke="#6E6E6E" stroke-width="2" stroke-linecap="round" stroke-linejoin="round"/>
<path d="M49.5 30.5H49.51" stroke="#6E6E6E" stroke-width="2" stroke-linecap="round" stroke-linejoin="round"/>
</g>
<defs>
<filter id="filter0_d_366_136" x="0" y="0" width="80" height="80" filterUnits="userSpaceOnUse" color-interpolation-filters="sRGB">
<feFlood flood-opacity="0" result="BackgroundImageFix"/>
<feColorMatrix in="SourceAlpha" type="matrix" values="0 0 0 0 0 0 0 0 0 0 0 0 0 0 0 0 0 0 127 0" result="hardAlpha"/>
<feOffset dx="-4" dy="4"/>
<feGaussianBlur stdDeviation="8"/>
<feComposite in2="hardAlpha" operator="out"/>
<feColorMatrix type="matrix" values="0 0 0 0 0 0 0 0 0 0 0 0 0 0 0 0 0 0 0.24 0"/>
<feBlend mode="normal" in2="BackgroundImageFix" result="effect1_dropShadow_366_136"/>
<feBlend mode="normal" in="SourceGraphic" in2="effect1_dropShadow_366_136" result="shape"/>
</filter>
</defs>
</svg>
