<svg width="80" height="80" viewBox="0 0 80 80" fill="none" xmlns="http://www.w3.org/2000/svg">
<g filter="url(#filter0_d_366_1156)">
<circle cx="44" cy="36" r="24" fill="#FEFEFE"/>
<path d="M51.86 28.5298C52.9821 28.1919 54.0424 27.6753 55 26.9998C54.6608 28.3925 53.9406 29.6633 52.92 30.6698C52.9723 30.9434 52.9991 31.2213 53 31.4998C53 42.9998 42 47.9998 33 42.9998C35.4872 43.0987 37.9405 42.3978 40 40.9998C31 36.9998 35 27.9998 35 27.9998C36.0103 29.4384 37.3607 30.6049 38.931 31.3952C40.5013 32.1856 42.2426 32.5754 44 32.5298V31.5298C43.9877 30.6121 44.2575 29.7128 44.773 28.9535C45.2884 28.1942 46.0247 27.6115 46.8821 27.2843C47.7395 26.957 48.6767 26.901 49.567 27.1237C50.4573 27.3465 51.2577 27.8373 51.86 28.5298Z" stroke="#6E6E6E" stroke-width="2" stroke-linecap="round" stroke-linejoin="round"/>
</g>
<defs>
<filter id="filter0_d_366_1156" x="0" y="0" width="80" height="80" filterUnits="userSpaceOnUse" color-interpolation-filters="sRGB">
<feFlood flood-opacity="0" result="BackgroundImageFix"/>
<feColorMatrix in="SourceAlpha" type="matrix" values="0 0 0 0 0 0 0 0 0 0 0 0 0 0 0 0 0 0 127 0" result="hardAlpha"/>
<feOffset dx="-4" dy="4"/>
<feGaussianBlur stdDeviation="8"/>
<feComposite in2="hardAlpha" operator="out"/>
<feColorMatrix type="matrix" values="0 0 0 0 0 0 0 0 0 0 0 0 0 0 0 0 0 0 0.24 0"/>
<feBlend mode="normal" in2="BackgroundImageFix" result="effect1_dropShadow_366_1156"/>
<feBlend mode="normal" in="SourceGraphic" in2="effect1_dropShadow_366_1156" result="shape"/>
</filter>
</defs>
</svg>
