<svg width="333" height="333" viewBox="0 0 333 333" fill="none" xmlns="http://www.w3.org/2000/svg">
<path d="M158.497 142.395C148.089 147.709 133.315 167.449 133.315 167.449L115.315 146.187C107.333 148.717 100.557 154.088 96.2705 161.281L120.471 188.708C123.101 191.683 126.705 193.622 130.636 194.179C134.567 194.735 138.568 193.872 141.92 191.745L172.389 172.353L156.635 187.348L151.384 258.084C159.457 261.143 168.391 261.018 176.375 257.736L183.303 149.607C177.889 152.834 164.096 148.185 158.497 142.395Z" fill="#900F1B"/>
<path d="M177.446 129.329C176.146 129.329 174.899 129.846 173.979 130.765C173.06 131.685 172.543 132.932 172.543 134.233C172.543 135.533 173.06 136.78 173.979 137.7C174.899 138.619 176.146 139.136 177.446 139.136C178.747 139.136 179.994 138.619 180.914 137.7C181.833 136.78 182.35 135.533 182.35 134.233C182.35 132.932 181.833 131.685 180.914 130.765C179.994 129.846 178.747 129.329 177.446 129.329Z" fill="#900F1B"/>
<path d="M216.989 240.241C216.987 244.283 218.4 248.198 220.983 251.307C223.566 254.416 227.156 256.522 231.13 257.261V295.128H237.489V257.261C241.461 256.519 245.049 254.412 247.631 251.303C250.214 248.195 251.628 244.282 251.63 240.241H216.989ZM234.294 252.326C233.866 252.326 233.442 252.241 233.047 252.077C232.651 251.914 232.292 251.673 231.99 251.371C231.687 251.068 231.447 250.709 231.284 250.314C231.12 249.918 231.036 249.494 231.036 249.067C231.036 248.639 231.121 248.215 231.284 247.82C231.448 247.424 231.688 247.065 231.991 246.763C232.294 246.46 232.653 246.22 233.048 246.057C233.444 245.893 233.867 245.809 234.295 245.809C235.159 245.809 235.988 246.153 236.599 246.764C237.21 247.375 237.553 248.204 237.553 249.068C237.553 249.932 237.209 250.761 236.598 251.372C235.987 251.983 235.158 252.326 234.294 252.326Z" fill="#900F1B"/>
<path d="M103.515 295.038C103.676 293.044 104.328 291.12 105.413 289.439C109.712 283.017 113.005 277.617 113.005 262.075H90.8926C90.8926 276.56 93.6615 281.722 98.3268 289.154C99.51 290.907 100.228 292.932 100.415 295.038C100.288 300.132 99.7487 301.935 94.6888 303.706H109.241C104.211 301.93 103.578 300.127 103.515 295.038ZM98.0104 278.62L99.4024 274.001L95.5429 271.091L100.383 270.996L101.965 266.44L103.547 270.996L108.387 271.091L104.527 274.001L105.919 278.62L101.965 275.868L98.0104 278.62Z" fill="#900F1B"/>
<path d="M172.353 172.353L156.599 187.348L156.978 182.128L172.353 172.353Z" fill="#FBC4C9"/>
<path d="M174.159 284.499C172.238 276.155 171.745 267.547 172.7 259.039C167.261 260.543 161.533 260.671 156.032 259.412C156.408 263.376 155.944 267.375 154.672 271.149C156.886 273.699 161.382 274.882 162.296 284.53C162.43 285.875 163.056 287.123 164.055 288.034C165.054 288.945 166.354 289.455 167.705 289.465H184.63C183.335 287.945 181.732 286.716 179.927 285.86C178.122 285.004 176.156 284.54 174.159 284.499Z" fill="#FBC4C9"/>
<path d="M101.898 134.676C89.5287 132.619 70.3895 131.702 63.1768 134.676C70.0305 139.525 77.4195 143.569 85.198 146.729C88.1468 147.528 90.8457 149.06 93.0435 151.182L98.8327 157.699C102.379 153.051 107.095 149.427 112.499 147.196L101.898 134.676Z" fill="#FBC4C9"/>
<path d="M173.523 102.313L175.928 105.065C176.009 104.434 176.176 103.818 176.427 103.234C175.432 103.021 174.46 102.712 173.523 102.313Z" fill="#FBC4C9"/>
<path d="M163.836 83.1104C155.238 92.2213 168.809 100.162 169.83 100.733C169.795 98.1549 169.552 95.5841 169.102 93.0455C165.622 91.88 167.236 87.7624 169.577 89.3825C170.316 89.9719 171.087 90.3215 171.222 89.3825C172.203 83.4351 176.726 81.8533 179.573 87.3578C175.706 79.5356 170.539 76.7268 163.836 83.1104Z" fill="#FBC4C9"/>
<path d="M164.57 72.1332C163.565 71.3012 162.339 70.7813 161.042 70.6375C159.745 70.4936 158.435 70.7321 157.272 71.3236C156.109 71.915 155.144 72.8336 154.496 73.9663C153.849 75.099 153.547 76.3963 153.627 77.6986C153.707 79.0008 154.167 80.2512 154.949 81.2957C155.73 82.3402 156.801 83.1333 158.027 83.5773C159.254 84.0213 160.584 84.0969 161.853 83.7948C163.123 83.4926 164.276 82.8259 165.171 81.8768C166.338 80.4847 166.926 78.698 166.814 76.8851C166.702 75.0722 165.899 73.3713 164.57 72.1332Z" fill="#FBC4C9"/>
<path d="M137.27 118.32C136.985 121.167 137.554 123.482 138.946 123.951C140.591 124.489 142.458 123.034 144.166 120.725C141.842 119.998 139.542 119.196 137.27 118.32Z" fill="#FBC4C9"/>
<path d="M158.212 130.215L156.282 132.904C155.87 131.68 155.426 130.466 154.95 129.266C156.092 129.582 157.2 129.898 158.212 130.215Z" fill="#FBC4C9"/>
<path d="M179.565 14.589V53.0255C204.968 62.2629 230.371 43.7881 255.774 53.0255V14.589C230.371 5.35156 204.962 23.8264 179.565 14.589Z" fill="#FBC4C9"/>
<path d="M255.774 85.23V110.538" stroke="#434343" stroke-width="2.25" stroke-linecap="round" stroke-linejoin="round"/>
<path d="M255.774 8.3252V67.103" stroke="#434343" stroke-width="2.25" stroke-linecap="round" stroke-linejoin="round"/>
<path d="M181.653 107.216L177.446 129.329L162.324 107.754" stroke="#434343" stroke-width="2.25" stroke-linecap="round" stroke-linejoin="round"/>
<path d="M158.497 142.395C148.089 147.709 133.315 167.449 133.315 167.449L115.315 146.187C107.333 148.717 100.557 154.088 96.2705 161.281L120.413 188.708C123.043 191.68 126.647 193.619 130.576 194.175C134.506 194.732 138.506 193.87 141.858 191.745L156.98 182.128L151.349 258.084C159.439 261.117 168.377 260.981 176.372 257.704L183.3 149.607" stroke="#434343" stroke-width="2.25" stroke-linecap="round" stroke-linejoin="round"/>
<path d="M172.353 172.353L156.599 187.348L156.978 182.128L172.353 172.353Z" stroke="#434343" stroke-width="2.25" stroke-linecap="round" stroke-linejoin="round"/>
<path d="M186.684 292.802C186.194 291.583 185.498 290.456 184.627 289.472H167.734C166.384 289.456 165.087 288.945 164.09 288.035C163.092 287.125 162.464 285.88 162.325 284.537C162.11 281.047 160.891 277.693 158.813 274.88C158.052 273.964 155.776 272.349 154.701 271.147C153.151 276.557 154.408 276.215 156.093 278.233C158.179 281.026 159.4 284.37 159.604 287.85C159.726 289.196 160.344 290.448 161.338 291.363C162.332 292.278 163.631 292.79 164.982 292.8L186.684 292.802Z" stroke="#434343" stroke-width="2.25" stroke-linecap="round" stroke-linejoin="round"/>
<path d="M172.698 259.039C171.747 267.537 172.24 276.134 174.156 284.467C176.148 284.505 178.109 284.966 179.908 285.82C181.708 286.674 183.306 287.9 184.596 289.419H167.703C166.352 289.414 165.051 288.908 164.051 287.999C163.052 287.09 162.425 285.843 162.293 284.499C162.098 281.004 160.877 277.645 158.781 274.842C158.001 273.914 155.713 272.311 154.669 271.109C154.827 270.571 154.985 270.001 155.207 269.337C156.036 266.109 156.317 262.764 156.039 259.442" stroke="#434343" stroke-width="2.25" stroke-linecap="round" stroke-linejoin="round"/>
<path d="M112.499 147.203L101.898 134.676C89.5287 132.619 70.3895 131.702 63.1768 134.676C70.0332 139.52 77.4217 143.564 85.198 146.729C88.1484 147.526 90.8474 149.06 93.0435 151.182L98.8327 157.699" stroke="#434343" stroke-width="2.25" stroke-linecap="round" stroke-linejoin="round"/>
<path d="M63.1801 134.675C61.7996 133.705 60.4492 132.692 59.1309 131.638C66.1239 128.285 86.4635 128.949 99.0226 131.259L101.898 134.675" stroke="#434343" stroke-width="2.25" stroke-linecap="round" stroke-linejoin="round"/>
<path d="M175.927 105.062L173.493 102.313C174.446 102.704 175.43 103.012 176.435 103.23" stroke="#434343" stroke-width="2.25" stroke-linecap="round" stroke-linejoin="round"/>
<path d="M84.6287 88.5784C84.5655 88.6733 81.7982 86.6253 78.4599 84.0829C74.7203 81.2524 75.0733 79.4342 79.9467 82.0266C82.3509 83.4573 84.9834 84.4632 87.729 85.0003" stroke="#434343" stroke-width="2.25" stroke-linecap="round" stroke-linejoin="round"/>
<path d="M89.6591 82.4459C89.6591 82.4459 81.3341 76.5302 80.8013 76.1189C76.9102 73.1453 75.748 74.4673 78.7134 77.7956C81.4406 80.8575 85.1353 84.3757 85.1353 84.3757" stroke="#434343" stroke-width="2.25" stroke-linecap="round" stroke-linejoin="round"/>
<path d="M146.823 103.831C126.324 96.5868 104.304 86.1822 104.148 86.1156C102.455 85.3947 100.731 83.2368 101.048 81.6201C101.587 78.8679 102.789 74.9385 101.396 74.6604C99.2777 74.2392 98.0107 80.1649 96.0177 81.5252C95.3217 81.9997 93.3304 80.5429 92.6327 79.8802C91.4672 78.7696 87.5095 75.0384 87.1282 74.6604C83.6317 71.1956 82.4662 72.7373 85.0087 76.0524C86.3317 77.7135 87.4378 79.5364 88.3004 81.4769" stroke="#434343" stroke-width="2.25" stroke-linecap="round" stroke-linejoin="round"/>
<path d="M91.1458 80.8643C88.5068 83.2761 86.7945 86.5351 86.3057 90.0767" stroke="#434343" stroke-width="2.25" stroke-linecap="round" stroke-linejoin="round"/>
<path d="M92.696 83.583C91.6204 87.5374 92.3163 90.7958 95.6697 92.8204" stroke="#434343" stroke-width="2.25" stroke-linecap="round" stroke-linejoin="round"/>
<path d="M190.891 122.18C191.137 124.015 191.2 125.869 191.08 127.716" stroke="#434343" stroke-width="2.25" stroke-linecap="round" stroke-linejoin="round"/>
<path d="M169.79 100.763C161.787 96.2672 157.433 89.2242 165.172 81.845C171.942 76.0558 177.035 82.1297 179.566 87.3494" stroke="#434343" stroke-width="2.25" stroke-linecap="round" stroke-linejoin="round"/>
<path d="M164.57 72.1332C163.565 71.3012 162.339 70.7813 161.042 70.6375C159.745 70.4936 158.435 70.7321 157.272 71.3236C156.109 71.915 155.144 72.8336 154.496 73.9663C153.849 75.099 153.547 76.3963 153.627 77.6986C153.707 79.0008 154.167 80.2512 154.949 81.2957C155.73 82.3402 156.801 83.1333 158.027 83.5773C159.254 84.0213 160.584 84.0969 161.853 83.7948C163.123 83.4926 164.276 82.8259 165.171 81.8768C166.338 80.4847 166.926 78.698 166.814 76.8851C166.702 75.0722 165.899 73.3713 164.57 72.1332Z" stroke="#434343" stroke-width="2.25" stroke-linecap="round" stroke-linejoin="round"/>
<path d="M139.01 123.983C137.614 123.506 136.983 121.152 137.271 118.303" stroke="#434343" stroke-width="2.25" stroke-linecap="round" stroke-linejoin="round"/>
<path d="M144.165 120.724C126.819 115.193 98.1315 100.899 87.2857 94.5937C85.0063 93.2617 82.692 92.0096 80.3893 90.7342C79.4496 90.2169 78.5214 89.679 77.6054 89.1208C73.7043 86.7332 73.9041 85.2297 78.8075 87.0962C80.6593 87.7894 82.5783 88.2877 84.5334 88.583H84.5651C85.2144 88.6929 85.8688 88.7562 86.5265 88.7728" stroke="#434343" stroke-width="2.25" stroke-linecap="round" stroke-linejoin="round"/>
<path d="M253.496 80.1683C250.366 79.9019 250.301 76.114 253.338 76.1507C255.584 76.179 257.197 76.2772 258.969 76.3721C261.974 76.5386 261.911 80.5346 259.443 80.6112C257.455 80.5629 255.47 80.4151 253.496 80.1683Z" stroke="#434343" stroke-width="2.25" stroke-linecap="round" stroke-linejoin="round"/>
<path d="M255.838 67.4826C256.945 67.451 257.736 67.4677 258.811 67.451C261.659 67.4094 261.753 71.447 259.412 71.6585C258.2 71.74 256.987 71.74 255.774 71.6585" stroke="#434343" stroke-width="2.25" stroke-linecap="round" stroke-linejoin="round"/>
<path d="M252.738 84.4705C249.732 84.1258 249.732 80.4528 252.674 80.5794C254.857 80.6743 256.406 80.8141 258.115 80.959C260.993 81.2021 260.868 85.0715 258.495 85.0715C257.04 85.0715 255.521 84.7902 252.738 84.4705Z" stroke="#434343" stroke-width="2.25" stroke-linecap="round" stroke-linejoin="round"/>
<path d="M255.744 71.7617C256.91 71.7934 257.895 71.8866 259.034 71.9199C262.071 72.0098 262.134 76.0641 259.604 76.2223C258.085 76.3172 256.472 76.0907 253.561 75.9375C253.236 75.9427 252.913 75.8692 252.622 75.7233C252.33 75.5773 252.079 75.3632 251.887 75.0991C251.696 74.8351 251.572 74.5288 251.525 74.2064C251.477 73.8839 251.508 73.5548 251.615 73.2469C251.76 72.834 252.033 72.481 252.396 72.2362" stroke="#434343" stroke-width="2.25" stroke-linecap="round" stroke-linejoin="round"/>
<path d="M197.249 98.7694C220.659 86.59 248.308 65.0066 252.041 65.268C256.438 65.576 256.047 65.7675 255.647 73.3033C255.549 75.1348 252.357 75.3279 251.788 69.4738C252.262 73.9693 250.206 77.0345 247.169 78.0152" stroke="#434343" stroke-width="2.25" stroke-linecap="round" stroke-linejoin="round"/>
<path d="M257.926 85.04C253.94 85.4197 248.878 85.3564 242.266 90.2015C230.988 98.4794 219.231 106.085 207.057 112.979" stroke="#434343" stroke-width="2.25" stroke-linecap="round" stroke-linejoin="round"/>
<path d="M155.012 129.288C156.151 129.636 157.205 129.899 158.248 130.183L156.314 132.867" stroke="#434343" stroke-width="2.25" stroke-linecap="round" stroke-linejoin="round"/>
<path d="M155.012 129.287C156.651 133.527 157.824 137.932 158.508 142.426C164.107 148.215 177.9 152.834 183.317 149.607C186.543 138.951 190.593 135.34 191.099 127.716C197.173 124.647 203.784 121.009 207.612 117.529C207.612 110.506 203.341 102.211 197.268 98.7695C192.217 101.851 187.012 104.67 181.671 107.216C179.773 108.04 178.951 108.292 178.008 107.944C174.813 109.557 170.29 109.146 166.24 107.849C165.616 108.042 164.958 108.097 164.311 108.007C158.365 107.203 152.515 105.804 146.848 103.831C152.131 105.916 144.753 125.413 139.034 123.978C144.296 125.934 149.625 127.705 155.012 129.287Z" stroke="#434343" stroke-width="2.25" stroke-linecap="round" stroke-linejoin="round"/>
<path d="M177.989 107.944C177.401 107.719 176.892 107.326 176.527 106.814C176.161 106.302 175.954 105.694 175.932 105.065C176.016 104.436 176.184 103.82 176.432 103.234C183.082 104.269 182.488 94.2143 179.564 87.3528C176.717 81.8483 172.128 83.4201 171.212 89.3774C171.067 90.3198 170.213 89.9485 169.536 89.4091C167.195 87.7957 165.581 91.9066 169.061 93.0721C169.516 95.6095 169.759 98.182 169.789 100.759C169.772 103.986 169.251 106.92 166.214 107.846" stroke="#434343" stroke-width="2.25" stroke-linecap="round" stroke-linejoin="round"/>
<path d="M135.94 324.675V292.851H200.223V324.675" stroke="#434343" stroke-width="2.25" stroke-linecap="round" stroke-linejoin="round"/>
<path d="M71.6582 324.675V308.763H135.941V324.675" stroke="#434343" stroke-width="2.25" stroke-linecap="round" stroke-linejoin="round"/>
<path d="M200.223 324.675V301.265H264.537V324.675" stroke="#434343" stroke-width="2.25" stroke-linecap="round" stroke-linejoin="round"/>
<path d="M179.565 14.589V53.0255C204.968 62.2629 230.371 43.7881 255.774 53.0255V14.589C230.371 5.35156 204.962 23.8264 179.565 14.589Z" stroke="#434343" stroke-width="2.25" stroke-linecap="round" stroke-linejoin="round"/>
<path d="M246.537 295.128V301.265H222.02V295.128H246.537Z" stroke="#434343" stroke-width="2.25" stroke-linecap="round" stroke-linejoin="round"/>
<path d="M216.989 240.241C216.998 244.28 218.415 248.19 220.996 251.296C223.577 254.403 227.161 256.512 231.13 257.261V295.128H237.489V257.261C241.464 256.525 245.055 254.419 247.638 251.31C250.222 248.2 251.634 244.284 251.63 240.241H216.989Z" stroke="#434343" stroke-width="2.25" stroke-linecap="round" stroke-linejoin="round"/>
<path d="M221.767 252.168C218.523 252.295 215.306 251.534 212.463 249.968C209.62 248.401 207.258 246.088 205.633 243.278H217.283" stroke="#434343" stroke-width="2.25" stroke-linecap="round" stroke-linejoin="round"/>
<path d="M246.948 252.168C250.192 252.295 253.409 251.534 256.252 249.968C259.095 248.401 261.457 246.088 263.082 243.278H251.472" stroke="#434343" stroke-width="2.25" stroke-linecap="round" stroke-linejoin="round"/>
<path d="M233.029 159.762C233.03 160.863 232.704 161.94 232.092 162.856C231.481 163.772 230.61 164.486 229.593 164.907C228.489 165.364 227.268 165.454 226.109 165.164C224.95 164.874 223.916 164.219 223.158 163.296C222.4 162.373 221.959 161.23 221.9 160.037C221.842 158.844 222.168 157.664 222.831 156.67C223.495 155.677 224.46 154.924 225.585 154.521C226.709 154.119 227.934 154.088 229.077 154.435C230.22 154.781 231.221 155.486 231.933 156.446C232.644 157.405 233.029 158.568 233.029 159.762Z" stroke="#434343" stroke-width="2.25" stroke-linecap="round" stroke-linejoin="round"/>
<path d="M237.571 249.071C237.57 249.553 237.463 250.029 237.257 250.465C237.051 250.901 236.75 251.285 236.378 251.591C236.005 251.897 235.569 252.116 235.101 252.234C234.634 252.351 234.146 252.363 233.673 252.269C233.041 252.142 232.461 251.831 232.005 251.375C231.55 250.92 231.239 250.339 231.112 249.707C230.986 249.075 231.05 248.419 231.296 247.823C231.543 247.227 231.961 246.718 232.498 246.36C233.124 245.941 233.878 245.752 234.628 245.826C235.379 245.9 236.081 246.232 236.613 246.767C237.225 247.378 237.569 248.207 237.571 249.071Z" stroke="#434343" stroke-width="2.25" stroke-linecap="round" stroke-linejoin="round"/>
<path d="M127.825 48.0586V59.4156" stroke="#434343" stroke-width="2.25" stroke-linecap="round" stroke-linejoin="round"/>
<path d="M133.505 53.7383H122.116" stroke="#434343" stroke-width="2.25" stroke-linecap="round" stroke-linejoin="round"/>
<path d="M102.312 215.187L98.3896 223.933H105.539L101.616 232.681" stroke="#434343" stroke-width="2.25" stroke-linecap="round" stroke-linejoin="round"/>
<path d="M109.058 148.851L128.222 171.467C131.638 175.643 134.327 175.485 137.364 171.499C143.025 164.065 153.372 151.063 162.006 145.242" stroke="#434343" stroke-width="2.25" stroke-linecap="round" stroke-linejoin="round"/>
<path d="M106.457 150.461L127.621 174.852C128.309 175.65 129.168 176.282 130.134 176.701C131.1 177.12 132.148 177.317 133.2 177.275C134.253 177.231 135.282 176.951 136.211 176.455C137.14 175.959 137.945 175.26 138.567 174.409C144.699 166.023 155.301 152.581 164.254 146.57" stroke="#434343" stroke-width="2.25" stroke-linecap="round" stroke-linejoin="round"/>
<path d="M165.172 177.066L159.225 259.982" stroke="#434343" stroke-width="2.25" stroke-linecap="round" stroke-linejoin="round"/>
<path d="M110 308.636H93.9297L94.6889 303.701H109.241L110 308.636Z" stroke="#434343" stroke-width="2.25" stroke-linecap="round" stroke-linejoin="round"/>
<path d="M95.4476 284.562C91.3034 284.562 81.7812 279.422 81.7812 265.819H90.987" stroke="#434343" stroke-width="2.25" stroke-linecap="round" stroke-linejoin="round"/>
<path d="M104.527 273.996L105.919 278.614L101.965 275.862L98.0105 278.614L99.4024 273.996L95.543 271.085L100.383 270.959L101.965 266.403L103.547 270.959L108.387 271.085L104.527 273.996Z" stroke="#434343" stroke-width="2.25" stroke-linecap="round" stroke-linejoin="round"/>
<path d="M109.24 303.696C104.211 301.925 103.546 300.121 103.515 295.028C103.671 293.033 104.324 291.108 105.413 289.429C109.923 282.622 113.005 277.241 113.005 262.064H90.9238C90.9238 276.55 93.6927 281.711 98.3581 289.144C99.5443 290.895 100.263 292.921 100.446 295.028C100.339 300.121 99.78 301.925 94.72 303.696H109.24Z" stroke="#434343" stroke-width="2.25" stroke-linecap="round" stroke-linejoin="round"/>
<path d="M108.608 284.562C112.784 284.562 122.117 279.4 122.117 265.802H112.942" stroke="#434343" stroke-width="2.25" stroke-linecap="round" stroke-linejoin="round"/>
<path d="M289.371 324.675H43.6299" stroke="#434343" stroke-width="2.25" stroke-linecap="round" stroke-linejoin="round"/>
<path d="M177.446 129.329C176.146 129.329 174.899 129.846 173.979 130.765C173.06 131.685 172.543 132.932 172.543 134.233C172.543 135.533 173.06 136.78 173.979 137.7C174.899 138.619 176.146 139.136 177.446 139.136C178.747 139.136 179.994 138.619 180.914 137.7C181.833 136.78 182.35 135.533 182.35 134.233C182.35 132.932 181.833 131.685 180.914 130.765C179.994 129.846 178.747 129.329 177.446 129.329Z" stroke="#434343" stroke-width="2.25"/>
</svg>
