<svg width="428" height="305" viewBox="0 0 428 305" fill="none" xmlns="http://www.w3.org/2000/svg">
<path d="M251.868 70.3251C255.513 69.8526 287.868 69.8526 293.673 70.3251C293.772 70.3468 293.86 70.4052 293.918 70.4886C293.977 70.572 294.001 70.6743 293.988 70.7751C293.967 70.8505 293.927 70.9191 293.872 70.9744C293.817 71.0296 293.748 71.0695 293.673 71.0901C288.453 71.5401 255.58 71.7426 251.98 71.2701C251.463 71.2251 251.305 70.3926 251.868 70.3251ZM99.8803 126.62C100.33 126.62 106.113 128.668 104.583 129.5L102.963 130.85C103.323 131.66 99.7903 135.35 102.22 144.035C103.233 143.338 103.255 144.035 103.12 144.26C99.3628 148.13 72.5203 169.618 66.5353 173.51C65.9953 174.298 62.5753 172.61 62.0353 172.43C50.1476 167.362 38.5431 161.654 27.2728 155.33C23.1553 153.08 23.2003 145.003 28.1953 141.83C33.4495 138.336 38.9205 135.18 44.5753 132.38L37.6003 126.913C37.1053 126.53 37.3753 125.113 39.2653 126.643C43.3353 120.066 44.9825 112.276 43.9228 104.615C43.6528 104.458 40.6378 102.658 41.9653 102.073C48.7153 99.2601 71.0803 91.0476 77.9653 90.6201C80.2153 90.4626 98.2153 104.863 99.9028 107.765C103.503 113.773 102.4 120.635 99.7678 126.688L99.8803 126.62ZM101.68 144.373C99.4303 141.92 100.128 135.193 101.208 132.223C98.1253 134.698 73.3528 153.373 65.4778 158.368C61.2253 167.368 65.9728 171.733 65.8153 172.408C79.0003 163.25 89.7328 152.788 101.68 144.373ZM28.3528 143.36C24.5953 145.295 25.4503 153.35 28.1503 154.295C40.2421 160.773 52.5815 166.777 65.1403 172.295C63.4796 170.054 62.5735 167.344 62.5528 164.555L45.2278 157.445C44.9128 157.288 45.2278 156.86 45.4753 156.928C51.2924 158.872 56.9876 161.164 62.5303 163.79C62.574 161.603 63.2542 159.476 64.4878 157.67C59.2003 155.578 32.1778 141.56 28.3528 143.36ZM65.8603 120.5C59.2403 115.019 52.3141 109.918 45.1153 105.223C45.6405 107.958 45.7392 110.759 45.4078 113.525C46.5103 113.885 60.1453 123.875 60.8428 124.415C61.1353 124.64 60.8428 125.113 60.4828 124.933L45.2503 114.583C44.7778 117.755 42.8653 124.978 39.9178 126.935C42.9103 129.365 57.7153 141.088 61.3153 141.088C64.0145 138.484 65.8822 135.139 66.6831 131.475C67.4839 127.812 67.182 123.993 65.8153 120.5H65.8603ZM68.8078 101.083C67.2328 102.433 73.7578 106.235 74.0053 106.303C74.7478 106.528 75.2428 105.763 73.6453 104.233C72.8353 103.535 69.8653 100.25 68.8078 101.105V101.083ZM81.0703 104.84C79.9453 102.59 75.2653 98.8551 73.2853 97.5051C73.1878 97.4372 73.0778 97.3891 72.9617 97.3636C72.8457 97.3382 72.7257 97.3358 72.6087 97.3567C72.4917 97.3776 72.38 97.4213 72.2799 97.4854C72.1798 97.5495 72.0932 97.6326 72.0253 97.7301C71.9573 97.8276 71.9092 97.9376 71.8838 98.0537C71.8583 98.1698 71.856 98.2897 71.8768 98.4067C71.8977 98.5238 71.9415 98.6355 72.0055 98.7356C72.0696 98.8357 72.1528 98.9222 72.2503 98.9902C74.0053 100.34 78.7753 104.818 80.1028 105.74C80.2027 105.795 80.3149 105.824 80.429 105.824C80.5431 105.824 80.6554 105.795 80.7553 105.74C80.8342 105.704 80.9051 105.652 80.9638 105.588C81.0225 105.524 81.0679 105.449 81.0972 105.368C81.1266 105.286 81.1393 105.199 81.1347 105.112C81.13 105.026 81.1082 104.941 81.0703 104.863V104.84ZM97.5853 108.733C87.9328 111.352 78.45 114.56 69.1903 118.34C68.6053 118.633 68.8078 119.623 69.5053 119.488C79.1514 116.8 88.6262 113.531 97.8778 109.7C97.9807 109.643 98.0608 109.552 98.1049 109.442C98.149 109.333 98.1544 109.212 98.1203 109.099C98.0862 108.986 98.0145 108.888 97.9173 108.822C97.82 108.755 97.7028 108.724 97.5853 108.733ZM99.2503 127.7C88.5178 133.753 68.5378 141.448 61.0003 142.573C59.4928 142.798 47.2528 134.203 45.2503 132.74C43.9453 134.023 33.0778 140.165 30.3103 141.875C34.3153 142.078 63.3853 155.623 65.4778 156.95C77.9653 147.613 90.9253 138.14 103.728 129.253L99.2278 127.7H99.2503ZM215.328 27.4401C215.465 27.3839 215.618 27.3839 215.755 27.4401C217.083 28.2501 224.755 38.6901 226.308 40.6476C227.793 38.6226 229.3 36.6201 230.808 34.6626C231.1 34.3026 231.708 34.6626 231.483 35.1351C229.975 37.5426 228.355 39.8601 226.713 42.1776C226.443 42.5376 225.925 42.3576 225.7 42.0651C224.283 40.2651 215.26 29.3751 214.878 28.1376C214.861 28.0623 214.86 27.9844 214.874 27.9085C214.887 27.8326 214.916 27.7601 214.958 27.6953C214.999 27.6304 215.054 27.5745 215.117 27.5307C215.181 27.4869 215.252 27.4562 215.328 27.4401ZM258.235 74.6901C271.735 74.9601 286.698 74.6901 292.503 75.1851C292.622 75.1851 292.737 75.2326 292.821 75.3169C292.905 75.4013 292.953 75.5158 292.953 75.6351C292.953 75.7545 292.905 75.8689 292.821 75.9533C292.737 76.0377 292.622 76.0851 292.503 76.0851C285.528 76.0851 263.815 76.8051 258.235 75.6126C257.763 75.5001 257.853 74.8251 258.235 74.6901ZM257.74 52.0776C257.29 52.0776 257.155 51.3126 257.74 51.2451C262.24 50.5701 289.24 51.8976 295.788 52.9101C295.907 52.9101 296.022 52.9576 296.106 53.0419C296.19 53.1263 296.238 53.2408 296.238 53.3601C296.238 53.4795 296.19 53.594 296.106 53.6783C296.022 53.7627 295.907 53.8101 295.788 53.8101C286.968 53.8101 266.92 52.4376 257.853 52.1226L257.74 52.0776ZM266.695 56.5776C266.313 56.5776 266.11 55.8126 266.695 55.6776C268.945 55.1151 291.445 55.6776 294.843 56.0601C294.896 56.0683 294.948 56.0871 294.994 56.1154C295.04 56.1438 295.08 56.1811 295.111 56.2251C295.143 56.2692 295.165 56.3191 295.177 56.3719C295.189 56.4247 295.19 56.4794 295.18 56.5326C295.168 56.6202 295.129 56.7018 295.069 56.7663C295.008 56.8307 294.929 56.8749 294.843 56.8926C290.5 57.1401 269.35 57.2976 266.695 56.5776ZM218.725 68.9526C217.488 67.1526 231.055 67.8051 231.64 68.4126C232.225 69.0201 231.64 78.2676 231.64 79.1226C231.64 80.4501 219.063 80.4276 218.568 80.0451C218.006 76.384 218.006 72.6587 218.568 68.9976L218.725 68.9526ZM219.693 79.0326C220.885 79.0326 229.728 79.1901 230.448 78.6276C230.448 75.4551 230.65 72.3051 230.763 69.1551H219.513C219.918 72.4323 219.978 75.7429 219.693 79.0326Z" fill="#100259"/>
<path d="M60.1003 131.48C56.9503 129.613 53.7328 127.79 50.6953 125.765C50.2678 125.473 50.6953 124.708 51.1903 124.978L60.4378 130.963C60.4899 131.014 60.5227 131.081 60.5306 131.153C60.5385 131.226 60.5211 131.299 60.4813 131.36C60.4415 131.421 60.3818 131.466 60.3123 131.488C60.2429 131.51 60.168 131.507 60.1003 131.48ZM82.7803 156.185C83.0503 156.005 83.4104 156.433 83.1404 156.658C80.8904 158.615 69.8203 166.355 67.3904 168.065C67.0753 168.29 66.8053 167.773 67.0978 167.548C71.8228 163.948 77.7628 159.2 82.7803 156.185ZM228.535 61.1226C227.365 61.1226 218.208 62.1801 218.298 60.6726C218.388 59.1651 218.523 50.5026 219.108 50.2326C219.265 48.7251 230.673 49.8276 231.73 50.0301C232.383 50.0301 232.113 58.8051 232.068 59.8626C232 61.3926 229.548 61.0776 228.535 61.1226ZM219.693 50.7501V60.2226C223.483 59.8327 227.298 59.7574 231.1 59.9976C230.951 56.9146 231.011 53.825 231.28 50.7501C229.413 50.7501 220.885 51.0426 219.693 50.7501ZM67.8853 163.745C67.8286 163.793 67.7569 163.819 67.6828 163.819C67.6088 163.819 67.5371 163.793 67.4803 163.745C67.4361 163.696 67.4116 163.632 67.4116 163.565C67.4116 163.499 67.4361 163.435 67.4803 163.385C77.7853 156.073 88.0228 147.275 98.1478 140.413C98.4403 140.188 98.8903 140.615 98.5978 140.908C92.9278 146.308 75.2204 158.908 67.7953 163.858L67.8853 163.745ZM218.343 35.4276C218.374 35.3271 218.443 35.2427 218.536 35.1923C218.628 35.1419 218.736 35.1295 218.838 35.1576C218.906 35.1736 218.968 35.2069 219.02 35.2542C219.071 35.3015 219.109 35.3612 219.13 35.4276V43.3026H231.595C231.814 39.6766 232.219 36.0643 232.81 32.4801C229.291 32.6436 225.764 32.5534 222.258 32.2101C222.179 32.1847 222.111 32.1327 222.066 32.063C222.021 31.9933 222.001 31.9101 222.01 31.8276C222.023 31.7798 222.046 31.7351 222.077 31.6963C222.108 31.6576 222.146 31.6257 222.19 31.6026C223.023 31.3326 233.44 30.4326 233.125 32.2326C234.16 32.2326 232.653 43.4826 232.653 43.4826C232.113 44.8551 229.84 44.3826 228.648 44.3826C227.455 44.3826 219.175 44.5851 218.5 44.3826C217.42 43.9551 218.028 36.7551 218.275 35.3826L218.343 35.4276Z" fill="#100259"/>
<path d="M0.924957 239.548C29.59 241.303 58.2625 242.803 86.9425 244.048C87.3171 239.944 88.0703 235.885 89.1925 231.92C60.6925 231.17 32.1925 230.293 3.69247 229.288C3.54715 229.27 3.41153 229.206 3.306 229.104C3.20047 229.003 3.1308 228.87 3.10748 228.725C3.08838 228.549 3.13892 228.373 3.24829 228.234C3.35767 228.096 3.51718 228.005 3.69247 227.983C32.3125 229.048 60.925 229.925 89.53 230.615C96.28 207.08 110.522 184.693 127.127 166.963C127.645 160.978 127.667 157.963 130.232 151.955C135.182 140.593 140.65 138.23 140.515 140.93C140.516 141.641 140.402 142.348 140.177 143.023C141.077 141.898 147.692 135.013 149.042 138.725C150.038 138.099 151.162 137.705 152.33 137.572C153.499 137.44 154.682 137.573 155.792 137.96C160 131.21 167.042 131.21 171.542 128.96C180.137 124.46 176.177 110.105 169.855 104.75C169.855 104.75 142.697 104.233 142.675 103.895C142.18 97.5276 136.757 0.620106 136.757 0.620106C203.672 -0.707394 275.672 0.620104 342.092 1.9701C342.542 1.9701 342.925 2.26261 342.88 2.66761C338.875 36.7551 329.042 106.528 329.042 106.528C327.422 107.18 180.34 104.885 171.542 104.75C175.305 108.854 177.364 114.236 177.302 119.803C176.852 133.978 165.58 127.948 156.355 138.32C162.34 140.885 163.105 148.468 160.855 153.89C160.446 154.93 159.893 155.907 159.212 156.793C159.118 158.907 158.516 160.967 157.457 162.8C154.577 168.268 149.447 170.158 149.177 170.968C149.177 183.703 146.5 199.228 143.957 211.648C152.53 207.148 177.955 196.415 204.1 195.65C202.615 182.758 191.477 181.138 193.007 172.52C188.35 172.34 183.692 172.16 179.035 171.935C177.865 171.935 179.147 168.335 179.282 167.728C181.172 159.403 183.07 151.093 184.975 142.798C185.267 141.673 186.572 134.113 187.675 134.113L202.187 134.383C205.382 131.345 212.875 130.22 215.935 133.753C220.435 125.09 234.34 126.35 234.79 134.765C238.592 132.178 244.24 131.66 247.682 135.17C248.042 135.328 316.105 136.25 326.23 136.655H326.41C326.519 136.725 326.597 136.834 326.627 136.96C326.656 137.087 326.635 137.219 326.567 137.33C326.387 138.5 332.26 166.265 332.957 172.948C332.957 173.893 322.765 173.758 321.707 173.758C336.242 190.79 349.315 210.005 353.207 232.483C377.732 232.1 402.257 231.493 426.782 231.583C426.902 231.583 427.016 231.63 427.101 231.714C427.185 231.799 427.232 231.913 427.232 232.033C427.232 232.152 427.185 232.266 427.101 232.351C427.016 232.435 426.902 232.483 426.782 232.483C402.37 233.54 377.89 233.653 353.455 233.833C354.183 238.294 354.484 242.814 354.355 247.333C378.655 246.838 402.955 246.073 427.232 245.668C427.772 245.668 427.862 246.523 427.232 246.523C402.932 247.76 378.587 248.21 354.242 248.57C353.612 260.788 348.797 275.773 336.827 281.263C331.9 290.938 321.46 299.645 309.827 297.148C310.165 298.903 310.48 300.703 310.817 302.503C310.952 303.313 309.737 303.65 309.602 302.84C306.295 285.02 302.852 267.11 297.07 249.92C296.89 249.38 297.7 249.178 297.902 249.695C303.527 264.635 306.7 280.34 309.625 295.978C321.527 297.71 331.022 290.128 335.95 279.868C338.601 274.446 340.134 268.547 340.459 262.521C340.784 256.495 339.893 250.465 337.84 244.79C331.697 229.04 315.34 217.79 299.275 210.095C282.941 202.354 265.398 197.476 247.412 195.673C246.13 207.688 232.315 211.76 221.785 211.13C211.255 210.5 205.022 207.283 204.122 196.663C203.987 196.663 166.12 197.495 133.427 219.343C123.82 225.755 115.09 233.99 109.982 244.453C104.987 254.555 103.232 266.953 107.732 277.483C114.167 292.828 125.912 295.055 133.697 296.428C136.45 279.952 141.764 264.009 149.447 249.178C149.65 248.795 150.28 249.043 150.077 249.448C142.065 266.725 136.6 285.074 133.855 303.92C133.855 304.505 132.685 304.663 132.685 303.92C132.776 301.86 133.047 299.813 133.495 297.8C125.01 297.07 117.153 293.029 111.625 286.55C93.625 282.05 85.7725 262.588 86.875 245.443C58.135 244.273 29.425 242.773 0.744965 240.943C-0.0425415 240.65 0.249969 239.548 0.924957 239.548ZM328.952 92.3076C333.452 63.6876 337.03 35.2026 341.102 6.5601C273.602 5.3901 204.347 5.88511 137.77 4.76011L142.967 89.1576C171.07 90.0126 325.33 90.8901 328.952 92.3076ZM193.277 171.26C193.689 170.06 194.479 169.026 195.527 168.313C194.361 166.458 193.73 164.316 193.705 162.125H192.49L190.802 171.125L193.277 171.26ZM195.167 154.768C194.782 154.457 194.428 154.111 194.11 153.733C193.57 156.14 193.12 158.548 192.67 160.955H193.75C193.64 158.801 194.13 156.659 195.167 154.768ZM179.777 170.675L190.127 171.125C190.397 168.088 190.982 165.095 191.522 162.125C188.288 162.233 185.05 162.15 181.825 161.878C181.15 164.78 180.452 167.75 179.777 170.675ZM182.027 160.843H191.702L193.322 152.405L183.985 152.135L182.027 160.843ZM184.277 151.168L193.075 151.438C192.906 150.371 192.982 149.279 193.298 148.246C193.614 147.213 194.161 146.265 194.897 145.475C195.032 144.8 195.167 144.103 195.347 143.405L186.077 143.203L184.277 151.168ZM187.72 135.103C187.225 137.353 186.775 139.76 186.325 142.1L195.572 142.258C196.045 139.892 196.653 137.556 197.395 135.26L187.72 135.103ZM196.225 144.643C197.32 144.145 198.558 144.057 199.712 144.395C199.609 144.117 199.527 143.831 199.465 143.54H196.495L196.225 144.643ZM198.475 135.283C198.053 137.645 197.497 139.981 196.81 142.28H199.307C199.05 139.787 199.741 137.289 201.242 135.283H198.475ZM252.947 136.25H248.605C249.522 137.668 249.845 139.389 249.505 141.043L253.33 142.145C253.15 140.21 252.947 138.05 252.947 136.25ZM254.162 136.25V142.528C254.544 142.754 254.912 143.002 255.265 143.27L265.907 143.45C265.809 141.116 265.877 138.777 266.11 136.453L254.162 136.25ZM258.887 152.563H265.975V144.688L256.75 144.53C257.726 145.599 258.429 146.887 258.802 148.285C259.174 149.683 259.203 151.15 258.887 152.563ZM265.93 162.98H259.787C259.701 164.943 258.974 166.824 257.717 168.335C258.46 168.849 259.057 169.545 259.451 170.357C259.845 171.169 260.023 172.069 259.967 172.97H266.042C265.975 169.595 265.93 166.288 265.93 162.98ZM259.18 160.258C259.377 160.727 259.521 161.218 259.607 161.72H265.817V153.598H258.55C258.061 154.94 257.184 156.107 256.03 156.95C257.436 157.678 258.571 158.837 259.27 160.258H259.18ZM266.717 172.948H294.595C294.302 169.078 294.595 166.648 292.097 163.318L266.965 163.025C266.987 166.333 266.92 169.64 266.807 172.948H266.717ZM291.175 162.08C288.834 159.713 287.064 156.843 286 153.688H280.375V161.945L291.175 162.08ZM278.935 136.7L267.145 136.498C267.272 138.828 267.272 141.164 267.145 143.495L279.002 143.698C279.002 141.38 278.98 139.04 278.935 136.7ZM279.092 144.935L267.19 144.733V152.608H279.25C279.25 150.043 279.25 147.5 279.092 144.935ZM279.25 153.665H267.077V161.788L279.745 161.945C279.565 159.178 279.43 156.5 279.25 153.665ZM290.5 136.903L279.722 136.723L279.97 143.72L290.95 143.9C290.683 141.578 290.6 139.238 290.702 136.903H290.5ZM291.04 145.115L279.992 144.935L280.195 152.585H285.707C285.437 151.348 284.942 149.323 286.405 148.648C287.867 147.973 289.262 151.348 291.962 152.563C291.715 150.088 291.49 147.613 291.242 145.138L291.04 145.115ZM300.67 137.083L291.377 136.925C291.699 139.246 291.902 141.581 291.985 143.923H292.75C291.782 141.56 297.002 140.03 301.502 143.923C301.435 142.775 300.805 137.848 300.872 137.083H300.67ZM292.277 145.25C292.435 147.703 292.57 150.133 292.727 152.585H296.237C296.912 150.605 296.237 145.948 294.437 145.25H292.322H292.277ZM302.02 137.15L302.38 144.125H306.587C308.252 140.66 307.195 138.028 308.837 137.195L302.02 137.15ZM302.92 145.385C303.439 146.035 303.877 146.745 304.225 147.5L305.89 145.453L302.92 145.385ZM317.297 137.443L310.075 137.308C312.325 138.388 312.662 142.213 312.662 144.305H316.06C317.207 143.315 317.702 144.305 318.557 144.305L317.342 137.308L317.297 137.443ZM312.302 148.873C313.551 148.04 314.566 146.901 315.25 145.565H312.707C312.681 146.674 312.575 147.779 312.392 148.873H312.302ZM319.75 152.248L318.67 145.633C318.896 147.917 318.611 150.222 317.837 152.383L319.75 152.248ZM317.5 153.35C316.577 156.433 315.25 159.245 314.62 162.35L321.37 162.485L320.02 153.328L317.5 153.35ZM325.667 137.465H318.287C318.715 139.715 319.12 142.145 319.525 144.508C321.977 144.508 324.452 144.643 326.905 144.755C326.375 142.351 325.992 139.916 325.757 137.465H325.667ZM327.062 145.678H319.75C320.087 147.928 320.447 150.178 320.807 152.27H328.345C327.962 150.02 327.557 147.838 327.152 145.678H327.062ZM328.435 153.058C325.96 153.193 323.485 153.26 321.01 153.305C321.437 156.343 321.932 159.425 322.337 162.485C324.97 162.485 327.602 162.665 330.235 162.778C329.627 159.538 329.042 156.298 328.435 153.058ZM323.372 172.565H332.057C331.495 169.55 330.91 166.558 330.302 163.565L322.495 163.768C322.97 166.681 323.293 169.618 323.462 172.565H323.372ZM322.742 172.565L321.415 163.565H314.417C314.35 164.163 314.35 164.767 314.417 165.365L320.74 172.588L322.742 172.565ZM338.065 241.708C340.697 247.704 342.012 254.195 341.923 260.742C341.834 267.29 340.342 273.743 337.547 279.665C359.327 264.95 354.692 232.415 345.422 211.625C337.84 194.593 325.825 180.125 313.517 166.243C311.717 164.195 317.545 150.493 317.747 147.14C317.882 144.643 316.847 144.125 315.925 145.903C315.002 147.68 313.675 149.705 311.852 150.133C311.132 152.248 310.57 151.573 310.66 151.235C311.425 147.523 312.752 142.235 310.277 138.815C308.477 136.43 308.545 140.818 308.365 141.673C307.937 143.72 306.115 147.68 304.472 148.423C305.035 150.02 304.09 149.458 304.022 149.255C300.827 140.863 291.062 142.055 294.212 144.125C295.043 144.621 295.749 145.301 296.275 146.112C296.802 146.923 297.135 147.845 297.25 148.805C298.397 156.748 292.142 155.555 287.597 150.02C285.707 147.77 285.617 152.608 288.61 157.49C291.152 161.63 294.595 163.115 295 168.538C296.125 181.79 298.847 197.608 300.67 209.263C315.61 216.485 330.887 226.25 338.155 241.73L338.065 241.708ZM299.5 208.655C297.303 197.214 295.733 185.662 294.797 174.05H259.9C258.595 181.588 249.235 182.6 247.727 194.3C265.685 196.056 283.202 200.913 299.5 208.655ZM204.505 190.498C205.065 192.267 205.427 194.093 205.585 195.943C206.485 205.483 210.535 208.655 221.132 209.443C232.382 210.365 244.577 206.81 246.287 194.683C247.795 183.883 251.26 184.828 256.817 177.268C258.482 175.018 259.967 170.833 256.817 169.078C255.27 170.778 253.332 172.075 251.17 172.858C246.31 183.77 244.667 196.348 230.537 197.743C203.222 200.285 209.342 185.413 200.68 172.43C198.996 171.652 197.47 170.568 196.18 169.235C195.198 170.056 194.52 171.183 194.254 172.436C193.989 173.689 194.152 174.994 194.717 176.143C196.922 181.475 202.232 183.5 204.505 190.498ZM148.75 140.03C147.985 141.74 147.197 143.428 146.5 145.138C147.602 143.72 153.002 137.825 154.802 140.975C155.725 142.618 153.79 145.07 153.002 146.533C156.023 147.067 158.721 148.743 160.54 151.213C163.42 140.75 153.25 135.53 148.75 140.03ZM158.92 155.353C159.347 154.295 159.797 153.215 160.247 152.158C158.273 149.846 155.62 148.216 152.665 147.5C151.399 150.113 150.578 152.919 150.235 155.803C149.627 161.563 154.037 157.445 156.175 155.465C157.007 154.61 158.402 154.25 159.032 155.353H158.92ZM110.207 284.525C102.76 274.085 102.445 260.608 106.765 248.818C112.885 232.145 127.442 220.468 142.765 212.3C145.711 198.694 147.621 184.885 148.48 170.99C148.48 168.875 155.635 167.435 157.862 159.133C158.267 157.625 159.1 153.665 156.377 156.5C153.655 159.335 149.02 161.945 149.222 155.735C149.492 148.378 154.487 143.473 154.037 141.808C153.475 139.715 149.312 143.653 148.637 144.328C146.879 146.262 145.283 148.34 143.867 150.538C143.62 150.898 143.012 150.538 143.237 150.2C143.762 149.3 144.302 148.4 144.857 147.5C144.497 146.735 148.547 139.58 147.827 138.905C147.107 138.23 143.867 140.57 143.147 141.155C139.39 144.418 139.21 146.6 137.927 148.288C137.869 148.308 137.806 148.308 137.747 148.288C137.667 148.294 137.588 148.27 137.525 148.22C137.462 148.169 137.421 148.097 137.41 148.018C137.545 146.578 138.377 145.768 138.782 144.778C139.187 143.788 140.02 141.56 139.457 140.773C139.187 140.548 137.635 141.695 137.455 141.875C135.971 143.297 134.731 144.954 133.787 146.78C126.902 158.548 128.972 166.13 127.802 167.278C110.725 186.515 92.4775 214.685 88.7875 240.11C86.29 257.75 91.8475 278.315 110.32 284.525H110.207Z" fill="#100259"/>
<path d="M273.4 39.5002C272.882 39.3427 273.085 38.6002 273.557 38.5327C281.747 38.6902 290.455 38.5327 298.532 38.7577C299.162 38.7577 299.072 39.7252 298.532 39.8152C294.392 40.4902 277 40.6027 273.4 39.5002ZM58.5924 159.83C55.5324 158.503 40.5924 152.473 38.8149 151.46C38.7814 151.431 38.7546 151.394 38.7362 151.354C38.7178 151.313 38.7083 151.269 38.7083 151.224C38.7083 151.179 38.7178 151.135 38.7362 151.094C38.7546 151.054 38.7814 151.017 38.8149 150.988C38.8515 150.933 38.9023 150.89 38.9617 150.862C39.0212 150.834 39.0872 150.823 39.1524 150.83C42.9324 151.618 55.1725 157.445 58.9749 159.335C59.1775 159.493 58.9074 159.965 58.5924 159.83ZM209.5 107L257.2 107.72C255.152 130.85 208.892 131.21 209.5 107ZM209.5 57.5002C209.5 57.5979 209.463 57.6919 209.396 57.7631C209.329 57.8342 209.237 57.877 209.14 57.8828C201.512 58.0628 185.38 58.5352 179.282 57.7027C178.787 57.7027 178.945 56.8702 179.282 56.8702C187.9 56.8702 200.342 56.8702 209.027 57.1177C209.085 57.1039 209.144 57.1034 209.202 57.1163C209.259 57.1292 209.313 57.1552 209.358 57.1922C209.404 57.2292 209.441 57.2762 209.465 57.3297C209.49 57.3831 209.502 57.4415 209.5 57.5002ZM274.75 23.7502C274.12 23.7502 274.39 22.8502 274.907 22.7602C290.41 23.2102 307.285 23.5477 322.405 23.8852C322.456 23.8934 322.504 23.9116 322.547 23.9388C322.591 23.966 322.628 24.0016 322.658 24.0436C322.687 24.0855 322.708 24.133 322.718 24.1831C322.729 24.2332 322.73 24.2849 322.72 24.3352C322.707 24.4141 322.67 24.4868 322.613 24.5433C322.557 24.5998 322.484 24.6372 322.405 24.6502C311.402 25.4377 289.037 24.2452 274.75 23.7502ZM266.087 18.5978C265.57 18.5978 265.412 17.6977 266.087 17.6302C271.127 17.0227 320.83 17.8328 324.295 18.5978C324.632 18.5978 324.61 19.2727 324.295 19.2727C311.537 19.2502 280.96 18.3728 266.087 18.5978ZM362.95 179.698C361.217 176.492 359.886 173.083 358.99 169.55C358.571 168.336 358.475 167.034 358.712 165.772C358.949 164.509 359.51 163.33 360.34 162.35C359.523 160.295 359.103 158.104 359.102 155.893C359.552 152.225 363.445 152.45 365.537 155.263C373.975 166.513 383.29 184.513 383.02 198.35C383.177 199.003 382.84 199.745 382.255 199.205C372.266 189.308 364.877 177.096 360.745 163.655C357.932 167.84 362.275 175.063 363.895 179.293C364.097 179.855 363.242 180.193 362.95 179.698ZM382.165 197.428C382 194.931 381.654 192.449 381.13 190.003L377.665 192.5C379.127 194.12 380.635 195.808 382.165 197.428ZM361.262 161.428C362.786 160.149 364.616 159.288 366.572 158.93C365.821 157.557 364.915 156.274 363.872 155.105C362.86 154.16 360.925 153.778 360.34 155.375C360.141 157.423 360.458 159.489 361.262 161.383V161.428ZM304 46.8127C304.99 47.2177 310.75 55.8128 311.807 57.3203C313.117 55.5807 314.627 54.0022 316.307 52.6177C316.401 52.5742 316.508 52.5662 316.607 52.5952C316.706 52.6241 316.792 52.6881 316.847 52.7752C316.88 52.8623 316.88 52.9582 316.847 53.0452C315.564 55.146 314.055 57.1002 312.347 58.8727C312.286 58.9403 312.212 58.9943 312.128 59.0313C312.045 59.0683 311.955 59.0874 311.864 59.0874C311.773 59.0874 311.682 59.0683 311.599 59.0313C311.516 58.9943 311.441 58.9403 311.38 58.8727V58.7602L304 48.6802C302.965 47.2177 303.257 46.4302 304 46.8127ZM169 35.0002C168.527 35.0002 168.437 34.1002 169 34.0327C183.038 33.3346 197.107 33.5375 211.12 34.6402C211.592 34.6402 211.547 35.4727 211.12 35.4502C200.5 35.3602 180.587 35.6977 169 35.0002Z" fill="#100259"/>
<path d="M304 60.4474C303.1 60.0874 304.9 53.3824 305.148 52.3249C305.165 52.2315 305.218 52.1485 305.295 52.0936C305.373 52.0386 305.469 52.0161 305.562 52.0307C305.656 52.0454 305.741 52.0961 305.798 52.1721C305.855 52.248 305.88 52.3432 305.868 52.4374C305.598 54.8449 305.328 57.2749 304.878 59.6374C308.635 59.9299 312.033 59.9074 315.7 60.0649C316.375 57.1399 316.96 53.3149 317.95 50.4124C315.12 50.6504 312.275 50.6504 309.445 50.4124C307.578 50.4124 307.713 49.2424 309.31 49.2649C310.255 49.2649 318.31 49.1074 318.31 50.0749C319.368 50.0749 317.14 59.5024 317.005 60.1324C316.982 60.2446 316.924 60.3465 316.839 60.4233C316.754 60.5002 316.647 60.548 316.533 60.5599C316.263 61.7299 304.428 61.5499 304 60.4474ZM167.74 52.5499C167.76 52.4625 167.808 52.3841 167.878 52.3271C167.947 52.2701 168.033 52.2377 168.123 52.2349C181.758 51.8749 196.338 52.5274 210.153 52.5049C210.558 52.5049 210.58 53.1799 210.153 53.2249C198.048 54.0349 179.328 54.5299 168.033 53.0449C167.931 53.0136 167.845 52.9455 167.791 52.854C167.737 52.7624 167.719 52.654 167.74 52.5499ZM316.218 44.1799C313.061 44.2679 309.903 44.1251 306.768 43.7524C304.81 44.2474 307.803 31.9624 308.163 31.3999C308.21 31.2939 308.29 31.206 308.392 31.1493C308.493 31.0925 308.61 31.07 308.725 31.0849C310.75 31.0849 320.155 31.0849 321.483 31.3774C323.103 30.0724 320.74 41.1649 320.403 42.4924C319.75 44.7199 318.31 44.1799 316.218 44.1799ZM321.213 32.1424C317.061 32.6495 312.867 32.7098 308.703 32.3224L307.263 42.7174L319.053 43.3249C318.963 42.5599 320.943 33.6274 321.213 32.1424ZM178.405 39.7249C178.286 39.7249 178.171 39.6775 178.087 39.5931C178.003 39.5087 177.955 39.3943 177.955 39.2749C177.955 39.1556 178.003 39.0411 178.087 38.9567C178.171 38.8723 178.286 38.8249 178.405 38.8249C181.195 38.2624 205.18 39.1174 210.153 39.5449C210.535 39.5449 210.535 40.1974 210.153 40.2199C207.453 40.3324 181.083 40.3999 178.405 39.7249ZM367.338 111.095C366.91 111.095 363.738 109.295 362.995 112.22C361.96 116.225 357.91 113.817 357.258 110.757C356.425 106.977 360.025 104.007 364.278 104.007C372.918 104.007 370.938 111.5 367.338 111.095ZM364.278 104.885C359.418 105.042 356.425 109.632 359.373 112.332C361.893 114.582 361.623 111.342 362.838 110.082C365.268 107.832 367.203 110.555 368.575 109.407C371.388 107.157 366.01 104.75 364.278 104.885ZM311.583 68.2324C315.115 68.2324 315.25 67.6474 314.8 71.0899C314.665 72.0574 313.968 78.8974 312.798 78.9649C312.55 80.0449 302.448 79.6624 301.165 79.2799C299.433 79.2799 301.165 73.9474 301.165 73.3399C302.65 65.5099 300.805 67.9399 311.583 68.2324ZM312.235 78.4474C312.798 75.6124 313.225 71.8549 314.035 69.1549C310.351 69.515 306.635 69.3787 302.988 68.7499C302.759 71.8826 302.27 74.9908 301.525 78.0424C305.035 78.1999 308.68 78.3799 312.235 78.4474ZM164.208 17.2699C168.348 16.8874 227.973 17.2699 235.533 17.8549C235.63 17.8716 235.718 17.9254 235.776 18.0051C235.835 18.0848 235.861 18.1843 235.848 18.2824C235.832 18.36 235.793 18.4311 235.737 18.4871C235.681 18.5431 235.61 18.5815 235.533 18.5974C229.12 18.9349 168.798 18.7774 164.208 18.2599C164.076 18.2599 163.951 18.2078 163.858 18.115C163.765 18.0221 163.713 17.8962 163.713 17.7649C163.713 17.6337 163.765 17.5078 163.858 17.4149C163.951 17.3221 164.076 17.2699 164.208 17.2699ZM265.75 33.8074C265.233 33.6949 265.413 32.9974 265.863 32.9074L300.04 33.7624C300.09 33.7677 300.138 33.7833 300.181 33.8082C300.225 33.833 300.262 33.8666 300.292 33.9069C300.321 33.9471 300.342 33.993 300.353 34.0417C300.364 34.0905 300.365 34.1409 300.355 34.1899C300.342 34.2688 300.305 34.3415 300.248 34.398C300.192 34.4545 300.119 34.4919 300.04 34.5049C291.468 35.1349 273.198 35.3149 265.75 33.8074ZM130.233 97.0549C130.075 98.7649 128.365 115.82 127.735 117.057C123.235 125.832 106.675 126.057 106.315 113.075C105.685 107.675 103.503 92.1724 104.358 88.3249C104.11 87.0649 102.805 81.5749 102.558 78.6724C102.558 78.1999 101.658 65.3524 103.458 67.3099C105.86 70.5085 107.99 73.9029 109.825 77.4574C110.14 78.8299 110.455 80.1799 110.793 81.5299C111.788 81.1546 112.822 80.8904 113.875 80.7424C113.875 79.8199 114.55 75.3199 114.865 73.5199C116.418 70.5049 118.015 67.8049 119.365 64.6774C121.278 59.9749 121.323 59.8849 121.863 65.0599C122.764 70.3317 122.764 75.7182 121.863 80.9899C132.055 83.1049 130.998 89.1124 130.255 97.0549H130.233ZM105.618 72.3049C105.342 72.5712 105.013 72.7752 104.652 72.9033C104.291 73.0314 103.907 73.0805 103.525 73.0474V78.7174C104.473 78.8094 105.43 78.7094 106.339 78.4233C107.247 78.1372 108.088 77.671 108.813 77.0524C107.71 75.4999 106.563 73.9024 105.618 72.3049ZM108.858 78.2224C107.367 79.2821 105.579 79.8414 103.75 79.8199C104.493 84.0049 105.235 88.1674 105.82 92.3749C106.585 95.1199 110.32 96.1099 112.75 96.4474C111.265 90.5074 110.14 84.1174 108.858 78.1549V78.2224ZM113.358 94.8274C113.467 95.3923 113.542 95.9634 113.583 96.5374L119.073 96.6724L121.323 75.4774C120.305 75.7846 119.228 75.8386 118.185 75.6347C117.142 75.4307 116.165 74.9751 115.338 74.3074C115.338 74.3074 113.875 94.4899 113.358 94.7599V94.8274ZM121.053 68.2774C120.708 68.3675 120.348 68.3859 119.996 68.3318C119.644 68.2776 119.307 68.1519 119.005 67.9624L115.923 73.4974C116.731 74.0995 117.667 74.5063 118.659 74.6859C119.65 74.8654 120.67 74.8129 121.638 74.5324C121.677 72.4098 121.48 70.2894 121.053 68.2099V68.2774ZM105.46 94.1974C105.865 99.8674 106.585 111.837 108.048 117.192C110.635 124.145 121.908 124.257 126.88 117.192C127.825 109.385 128.77 101.442 129.693 93.7474C125.485 99.8449 109.128 99.1024 105.46 94.1299V94.1974Z" fill="#100259"/>
<path d="M407.928 118.992C404.503 120.781 400.888 122.177 397.15 123.155C404.328 133.033 383.785 147.117 364.998 139.602C356.38 136.16 347.763 125.225 356.2 117.643C347.2 110.375 344.028 99.89 344.41 88.3925C344.995 70.6625 352.825 57.6125 370.758 53.405C379.592 51.3375 388.85 52.0527 397.263 55.4525L400.75 49.4225C399.648 48.8375 398.5 48.275 397.375 47.78C394.405 46.7675 395.305 44.585 397.06 45.2375C431.53 57.815 439.495 103.152 407.928 118.992ZM396.88 121.58C397.51 119.33 395.823 117.08 396.61 114.628C398.41 108.8 405.948 112.175 407.86 108.238C409.953 103.94 404.373 103.198 403.248 100.115C403.049 99.5754 402.998 98.9923 403.101 98.4264C403.204 97.8605 403.456 97.3326 403.833 96.8975C407.073 92.8475 414.565 97.1225 412.428 87.6725C410.808 80.54 403.923 77.165 398.928 80.315C393.933 83.465 390.94 85.58 384.618 81.89C374.088 75.7025 375.393 88.64 378.61 92.555C380.32 94.67 383.425 94.5575 385.81 95.4575C393.595 98.3825 393.55 103.625 387.385 104.908C385 105.403 381.94 105.177 380.073 106.977C375.01 111.905 385.473 122.435 388.78 124.167C390.558 123.807 395.98 122.75 396.88 121.58ZM368.328 55.385C355.075 59.5025 348.078 69.0875 346.188 82.79C345.289 88.7035 345.511 94.7332 346.84 100.565C347.38 101.308 354.985 103.4 357.438 100.25C358.385 98.9769 359.017 97.4978 359.283 95.9336C359.549 94.3694 359.441 92.7645 358.968 91.25C357.505 87.47 352.533 84.14 354.063 80.27C356.178 74.915 362.365 82.2275 364.975 80.72C368.89 78.47 361.555 74.15 369.925 72.5975C373.008 72.035 375.528 73.295 377.8 69.8975C382.998 62.1125 369.475 55.3625 368.328 55.3175V55.385ZM394 65.3525C393.903 65.5059 393.756 65.621 393.584 65.6784C393.412 65.7358 393.225 65.7319 393.055 65.6675C392.86 65.5874 392.704 65.4345 392.62 65.2413C392.536 65.048 392.531 64.8297 392.605 64.6325L396.7 56.645C388.355 53.2986 379.167 52.6688 370.443 54.845C381.693 58.5575 383.02 71.2475 374.943 73.43C373.233 73.9025 365.583 73.2275 366.91 76.49C367.18 77.0193 367.331 77.6008 367.353 78.1943C367.375 78.7878 367.268 79.379 367.039 79.927C366.81 80.475 366.465 80.9666 366.027 81.3677C365.589 81.7688 365.069 82.0699 364.503 82.25C361.353 82.8125 357.978 78.065 355.66 80C351.61 83.375 362.185 88.595 360.385 96.11C359.035 101.87 356.65 103.692 350.8 102.86C349.519 102.75 348.276 102.366 347.155 101.735C351.993 118.677 370.083 126.485 386.62 124.438C383.29 121.378 378.115 115.302 377.62 110.938C376.855 103.198 385.743 104.75 389.005 103.04C393.505 100.79 387.07 96.875 382.953 95.975C381.603 95.7529 380.297 95.3201 379.083 94.6925C372.333 90.5525 374.2 73.9025 383.988 80.045C392.358 85.2875 394.945 80.8325 398.838 78.83C405.07 75.6575 413.62 80.6525 414.048 90.08C414.295 96.4925 409.008 95.12 405.925 96.83C405.373 97.0372 404.911 97.4333 404.623 97.9481C404.335 98.4629 404.238 99.0632 404.35 99.6425C405.07 101.893 408.333 102.342 409.233 105.065C409.589 106.127 409.576 107.278 409.196 108.331C408.816 109.385 408.092 110.279 407.14 110.87C404.193 112.58 398.973 111.095 397.735 115.167C397.128 117.147 398.32 119.173 398.185 121.175C403.926 119.112 408.981 115.495 412.786 110.728C416.592 105.96 419 100.23 419.74 94.175C421.765 78.875 412.428 64.0025 398.703 57.5C397.285 60.11 395.508 62.81 394 65.3525ZM414.25 59.345C410.872 55.8425 406.98 52.8759 402.708 50.5475C401.454 52.4715 400.304 54.4619 399.265 56.51C406.327 59.7906 412.204 65.1708 416.094 71.9159C419.984 78.661 421.697 86.4423 421 94.1975C420.531 98.6425 419.138 102.94 416.91 106.815C414.682 110.69 411.668 114.056 408.063 116.697C429.573 104.75 430.473 76.58 414.25 59.345ZM174.108 75.2075C176.043 74.78 204.978 74.645 209.073 75.2075C209.174 75.2075 209.271 75.2478 209.343 75.3195C209.415 75.3913 209.455 75.4885 209.455 75.59C209.455 75.6914 209.415 75.7887 209.343 75.8605C209.271 75.9322 209.174 75.9725 209.073 75.9725C207.52 76.1975 177.28 76.715 174.108 75.9725C174.003 75.9492 173.909 75.8908 173.842 75.8069C173.774 75.7231 173.738 75.6187 173.738 75.5112C173.738 75.4037 173.774 75.2994 173.842 75.2156C173.909 75.1317 174.003 75.0733 174.108 75.05V75.2075ZM164.5 23.4575C186.213 23.705 214.27 22.9625 233.845 23.4575C234.385 23.4575 234.34 24.2225 233.845 24.2675C225.633 25.1675 171.115 25.1 164.5 24.2675C164.436 24.262 164.373 24.2435 164.316 24.2129C164.26 24.1824 164.21 24.1406 164.17 24.09C164.13 24.0394 164.1 23.9811 164.084 23.9188C164.067 23.8564 164.063 23.7913 164.073 23.7275C164.109 23.6448 164.169 23.5749 164.245 23.5268C164.321 23.4786 164.41 23.4545 164.5 23.4575ZM166.908 70.325C180.07 70.0325 196.518 70.8425 210.535 70.4825C210.94 70.4825 211.03 71.0675 210.535 71.1125C201.918 71.9675 174.94 72.8225 166.818 71.2475C166.39 71.135 166.345 70.325 166.908 70.325Z" fill="#100259"/>
</svg>
