<svg width="236" height="641" viewBox="0 0 236 641" fill="none" xmlns="http://www.w3.org/2000/svg">
<path d="M225.291 12.1672L169.302 12.1672L148.79 31.6936L9.84538e-08 31.6936" stroke="#434343" stroke-width="4" stroke-miterlimit="10"/>
<path d="M236 11C236 17.0751 231.075 22 225 22C218.925 22 214 17.0751 214 11C214 4.92487 218.925 -1.38896e-07 225 -3.10234e-07C231.075 -4.81571e-07 236 4.92487 236 11Z" fill="#434343"/>
<path d="M225.291 141.388L169.302 141.388L148.79 121.861L9.84538e-08 121.861" stroke="#434343" stroke-width="4" stroke-miterlimit="10"/>
<path d="M236 142.555C236 136.48 231.075 131.555 225 131.555C218.925 131.555 214 136.48 214 142.555C214 148.63 218.925 153.555 225 153.555C231.075 153.555 236 148.63 236 142.555Z" fill="#434343"/>
<path d="M225.291 255.89L169.302 255.89L148.79 275.416L9.84538e-08 275.416" stroke="#434343" stroke-width="4" stroke-miterlimit="10"/>
<path d="M236 254.723C236 260.798 231.075 265.723 225 265.723C218.925 265.723 214 260.798 214 254.723C214 248.647 218.925 243.723 225 243.723C231.075 243.723 236 248.647 236 254.723Z" fill="#434343"/>
<path d="M225.291 385.11L169.302 385.11L148.79 365.584L9.84538e-08 365.584" stroke="#434343" stroke-width="4" stroke-miterlimit="10"/>
<path d="M236 386.277C236 380.202 231.075 375.277 225 375.277C218.925 375.277 214 380.202 214 386.277C214 392.353 218.925 397.277 225 397.277C231.075 397.277 236 392.353 236 386.277Z" fill="#434343"/>
<path d="M225.291 499.612L169.302 499.612L148.79 519.139L9.84538e-08 519.139" stroke="#434343" stroke-width="4" stroke-miterlimit="10"/>
<path d="M236 498.445C236 504.52 231.075 509.445 225 509.445C218.925 509.445 214 504.52 214 498.445C214 492.37 218.925 487.445 225 487.445C231.075 487.445 236 492.37 236 498.445Z" fill="#434343"/>
<path d="M225.291 628.833L169.302 628.833L148.79 609.306L9.84538e-08 609.306" stroke="#434343" stroke-width="4" stroke-miterlimit="10"/>
<path d="M236 630C236 623.925 231.075 619 225 619C218.925 619 214 623.925 214 630C214 636.075 218.925 641 225 641C231.075 641 236 636.075 236 630Z" fill="#434343"/>
</svg>
