<svg width="539" height="696" viewBox="0 0 539 696" fill="none" xmlns="http://www.w3.org/2000/svg">
<g opacity="0.21" filter="url(#filter0_df_738_6637)">
<path d="M-18.0615 12.344C-40.1341 20.5942 -51.3394 45.1758 -43.0891 67.2485C-34.8389 89.3212 -10.2573 100.526 11.8154 92.2761C33.888 84.0259 45.0933 59.4443 36.843 37.3716C28.5928 15.299 4.01118 4.0937 -18.0615 12.344ZM-10.6167 55.111L64.1289 255.084L79.1161 249.482L4.37059 49.5091L-10.6167 55.111Z" fill="#084C28"/>
<path d="M252.503 -33.2394C241.744 -38.04 229.129 -33.2091 224.329 -22.4494C219.528 -11.6897 224.359 0.924439 235.119 5.72501C245.879 10.5256 258.493 5.69474 263.293 -5.06499C268.094 -15.8247 263.263 -28.4388 252.503 -33.2394ZM240.158 -15.387L123.112 246.954L130.418 250.213L247.464 -12.1274L240.158 -15.387Z" fill="#084C28"/>
<path d="M8.08683 497.954C18.8242 502.804 31.4606 498.032 36.3109 487.295C41.1612 476.557 36.3888 463.921 25.6515 459.07C14.9141 454.22 2.27771 458.993 -2.57262 469.73C-7.42296 480.467 -2.65056 493.104 8.08683 497.954ZM20.5145 480.159L67.0835 377.067L59.7929 373.774L13.2238 476.866L20.5145 480.159Z" fill="#084C28"/>
<circle cx="94.371" cy="313.146" r="67.5413" transform="rotate(-34.5309 94.371 313.146)" stroke="#084C28" stroke-width="18"/>
<circle cx="191.589" cy="582.144" r="49.5316" transform="rotate(-19.5309 191.589 582.144)" stroke="#084C28" stroke-width="18"/>
<circle cx="309.685" cy="414.605" r="42.1059" transform="rotate(-62.9164 309.685 414.605)" stroke="#084C28" stroke-width="8"/>
<line x1="180.327" y1="542.16" x2="121.181" y2="375.422" stroke="#084C28" stroke-width="8"/>
<line x1="274.017" y1="396.288" x2="157.103" y2="335.099" stroke="#084C28" stroke-width="8"/>
<line x1="-140.687" y1="205.272" x2="31.8437" y2="292.415" stroke="#084C28" stroke-width="12"/>
</g>
<defs>
<filter id="filter0_df_738_6637" x="-261.425" y="-43.0958" width="650.225" height="718.787" filterUnits="userSpaceOnUse" color-interpolation-filters="sRGB">
<feFlood flood-opacity="0" result="BackgroundImageFix"/>
<feColorMatrix in="SourceAlpha" type="matrix" values="0 0 0 0 0 0 0 0 0 0 0 0 0 0 0 0 0 0 127 0" result="hardAlpha"/>
<feOffset dx="14" dy="16"/>
<feGaussianBlur stdDeviation="9.5"/>
<feComposite in2="hardAlpha" operator="out"/>
<feColorMatrix type="matrix" values="0 0 0 0 0 0 0 0 0 0 0 0 0 0 0 0 0 0 0.07 0"/>
<feBlend mode="normal" in2="BackgroundImageFix" result="effect1_dropShadow_738_6637"/>
<feBlend mode="normal" in="SourceGraphic" in2="effect1_dropShadow_738_6637" result="shape"/>
<feGaussianBlur stdDeviation="4" result="effect2_foregroundBlur_738_6637"/>
</filter>
</defs>
</svg>
