<svg width="333" height="333" viewBox="0 0 333 333" fill="none" xmlns="http://www.w3.org/2000/svg">
<path d="M121.344 115.234C121.431 113.96 121.203 112.684 120.681 111.518C120.158 110.352 119.356 109.334 118.347 108.551C117.995 108.463 111.84 114.575 102.862 108.463C102.211 108.75 101.624 109.166 101.138 109.686C100.652 110.206 100.277 110.819 100.034 111.488C99.7919 112.157 99.6876 112.869 99.7278 113.579C99.7679 114.29 99.9517 114.985 100.268 115.622C108.843 123.185 114.69 119.404 118.25 117.908C118.823 117.689 119.262 118.524 118.823 118.921C113.546 123.493 103.3 121.778 99.4305 115.885C88.1451 117.882 64.8418 140.123 60.7525 145.443C60.7922 148.643 60.4075 151.834 59.6087 154.933C59.4771 155.418 58.6413 155.329 58.6863 154.802C60.313 140.468 56.3985 125.914 55.2996 125.694C54.1575 125.474 52.5291 128.112 44.8351 125.386C43.0769 124.77 37.2727 148.426 44.4389 164.607C44.9477 165.94 45.8347 167.095 46.9909 167.931C48.1471 168.767 49.5222 169.247 50.9473 169.312C55.6093 169.752 74.9983 161.705 79.7518 158.803C79.1375 162.013 80.939 177.579 81.4168 181.491C82.4275 189.23 85.5061 204.928 86.0339 205.236C100.411 214.162 118.968 208.313 118.968 208.313C118.968 208.313 122.529 199.036 137.259 183.954C139.237 181.931 138.924 155.549 138.315 151.153C141.172 153.528 143.943 156.122 146.933 158.41C146.58 154.715 153.132 142.227 153.132 140.594C153.09 134.758 121.3 115.454 121.344 115.234ZM118.049 113.125C116.71 114.366 115.091 115.265 113.331 115.747C111.57 116.229 109.719 116.28 107.935 115.894C107.364 115.807 107.627 114.926 108.155 115.015C111.472 115.357 114.798 114.448 117.479 112.466C117.914 112.201 118.352 112.815 118.049 113.125Z" fill="#084C28"/>
<path d="M167.204 227.184C166.506 226.985 165.768 226.967 165.06 227.132C164.353 227.298 163.7 227.641 163.162 228.13C162.625 228.619 162.221 229.237 161.99 229.925C161.758 230.614 161.707 231.35 161.84 232.065C161.993 232.714 162.305 233.316 162.748 233.816C163.191 234.316 163.751 234.698 164.377 234.929C165.004 235.16 165.678 235.232 166.339 235.139C167 235.046 167.628 234.79 168.167 234.396C171.425 232.241 168.743 227.716 167.204 227.184Z" fill="#084C28"/>
<path d="M202.777 207.837C177.713 207.859 152.693 207.749 127.63 207.88C127.486 207.882 127.343 207.916 127.214 207.981C127.085 208.045 126.971 208.137 126.883 208.251C126.794 208.366 126.732 208.498 126.702 208.639C126.672 208.781 126.674 208.927 126.708 209.067C129.17 223.843 131.456 238.616 134.358 253.302C134.49 253.874 135.502 253.741 135.414 253.17C133.523 238.66 131.017 224.199 128.731 209.772C153.04 209.903 177.317 209.815 201.633 209.86C199.39 224.062 196.971 238.308 195.472 252.599C185.887 252.511 142.224 251.983 137.783 252.819C137.344 252.907 137.475 253.521 137.87 253.566C142.487 254.049 186.238 254.577 195.692 253.786C195.794 253.87 195.916 253.927 196.046 253.953C196.176 253.978 196.31 253.971 196.437 253.932C196.563 253.892 196.678 253.822 196.77 253.728C196.863 253.633 196.931 253.517 196.967 253.39C200.001 238.793 201.54 223.843 203.826 209.112C203.854 208.958 203.849 208.799 203.809 208.646C203.77 208.494 203.698 208.352 203.598 208.231C203.498 208.109 203.373 208.011 203.231 207.943C203.089 207.875 202.934 207.839 202.777 207.837Z" fill="#1A1A1A"/>
<path d="M198.511 255.764C198.472 255.631 198.391 255.514 198.28 255.431C198.169 255.348 198.034 255.303 197.896 255.303C197.757 255.303 197.622 255.348 197.511 255.431C197.401 255.514 197.32 255.631 197.281 255.764C197.145 256.326 197.071 256.901 197.061 257.479C192.399 257.83 146.934 257.312 136.601 257.391C136.523 256.632 136.376 255.882 136.162 255.15C136.135 255.06 136.08 254.982 136.005 254.926C135.93 254.87 135.839 254.84 135.746 254.84C135.652 254.84 135.561 254.87 135.486 254.926C135.411 254.982 135.356 255.06 135.329 255.15C135.183 256.154 135.124 257.169 135.153 258.183C135.159 258.391 135.245 258.589 135.392 258.736C135.539 258.883 135.737 258.968 135.945 258.974C146.453 259.678 192.842 259.59 197.898 259.106C198.117 259.098 198.324 259.008 198.478 258.853C198.633 258.699 198.723 258.491 198.731 258.273C198.748 257.431 198.674 256.59 198.511 255.764Z" fill="#1A1A1A"/>
<path d="M120.245 253.746C117.09 256.528 106.394 269.355 103.888 272.52C99.0944 270.894 79.5273 266.232 74.7787 265.09C83.485 258.186 90.5646 251.854 98.9212 245.742C99.0775 245.622 99.186 245.45 99.2276 245.258C105.677 247.173 112.223 248.744 118.84 249.963C119.411 250.008 119.411 249.26 118.971 249.084C112.393 247.016 105.698 245.343 98.9212 244.072C98.7937 244.05 98.6624 244.073 98.5499 244.137C98.4375 244.201 98.3509 244.302 98.3052 244.424C99.0527 243.808 88.455 252.337 73.7697 264.958C73.6817 264.988 73.6043 265.043 73.5465 265.116C73.4888 265.189 73.4531 265.277 73.4438 265.369C73.4345 265.462 73.452 265.555 73.4941 265.638C73.5362 265.721 73.6013 265.79 73.6815 265.837C79.191 268.31 103.433 274.672 104.241 273.663C107.319 270.539 118.795 257.745 121.081 254.315C121.344 253.829 120.641 253.391 120.245 253.746Z" fill="#1A1A1A"/>
<path d="M84.6719 262.492C87.942 263.158 100.721 267.549 103.931 268.296C104.054 268.328 104.185 268.314 104.299 268.256C104.412 268.199 104.501 268.103 104.55 267.985C104.598 267.867 104.602 267.736 104.561 267.615C104.52 267.495 104.437 267.393 104.327 267.329C98.3915 264.295 91.3119 263.152 84.8467 261.745C84.4155 261.656 84.1907 262.392 84.6719 262.492Z" fill="#1A1A1A"/>
<path d="M88.5864 257.875C92.2111 259.805 96.1635 261.043 100.241 261.525C100.857 261.568 100.944 260.692 100.373 260.513C96.491 259.585 92.6601 258.455 88.8961 257.128C88.4532 256.996 88.1452 257.699 88.5864 257.875Z" fill="#1A1A1A"/>
<path d="M95.5709 252.467C100.189 254.402 104.934 256.018 109.773 257.304C110.301 257.435 110.697 256.638 110.17 256.38C105.476 254.536 100.674 252.979 95.7907 251.718C95.6938 251.696 95.5923 251.712 95.5068 251.763C95.4213 251.813 95.3582 251.894 95.3303 251.99C95.3023 252.085 95.3116 252.187 95.3563 252.276C95.401 252.364 95.4777 252.433 95.5709 252.467Z" fill="#1A1A1A"/>
<path d="M160.173 165.581C161.358 167.472 164.169 169.41 166.416 168.043C166.525 167.97 166.607 167.866 166.653 167.743C166.699 167.621 166.705 167.487 166.671 167.361C166.637 167.235 166.565 167.123 166.464 167.04C166.363 166.957 166.239 166.908 166.108 166.9C165.141 166.856 162.459 167.566 160.7 165.141C160.477 164.79 159.948 165.23 160.173 165.581Z" fill="#1A1A1A"/>
<path d="M165.358 163.075C165.72 163.267 166.124 163.367 166.535 163.368C166.945 163.369 167.35 163.27 167.713 163.079C168.077 162.889 168.388 162.613 168.621 162.275C168.854 161.937 169.002 161.548 169.051 161.14C169.053 157.808 168.519 154.497 167.467 151.335C167.204 150.807 166.5 151.115 166.456 151.598C166.28 153.263 168.654 162.944 165.624 162.421C165.543 162.408 165.461 162.423 165.389 162.463C165.318 162.504 165.263 162.567 165.232 162.643C165.201 162.718 165.197 162.802 165.219 162.881C165.242 162.959 165.291 163.028 165.358 163.075Z" fill="#1A1A1A"/>
<path d="M171.952 152.654C171.906 153.451 172.041 154.248 172.349 154.985C172.398 155.073 172.473 155.144 172.563 155.188C172.654 155.233 172.756 155.249 172.856 155.235C172.955 155.22 173.049 155.176 173.123 155.108C173.197 155.039 173.249 154.95 173.271 154.852C173.391 154.058 173.334 153.247 173.105 152.477C173.051 151.818 171.909 151.95 171.952 152.654Z" fill="#1A1A1A"/>
<path d="M160.961 155.116C161.006 155.187 161.066 155.247 161.137 155.293C161.208 155.338 161.287 155.368 161.371 155.381C161.454 155.393 161.538 155.388 161.619 155.365C161.7 155.342 161.775 155.302 161.84 155.248C162.279 154.72 162.148 153.798 162.148 153.138C162.148 152.522 161.18 152.214 160.961 153.138C160.871 153.795 160.871 154.46 160.961 155.116Z" fill="#1A1A1A"/>
<path d="M159.203 151.643C160.017 150.652 161.079 149.894 162.28 149.444C162.357 149.394 162.416 149.321 162.449 149.235C162.482 149.15 162.486 149.056 162.461 148.967C162.437 148.879 162.385 148.801 162.312 148.744C162.24 148.687 162.152 148.655 162.06 148.653C161.259 148.651 160.474 148.883 159.802 149.321C159.131 149.758 158.601 150.382 158.279 151.115C158.24 151.176 158.213 151.244 158.202 151.316C158.19 151.387 158.192 151.46 158.21 151.53C158.227 151.6 158.258 151.666 158.302 151.724C158.345 151.782 158.4 151.83 158.463 151.866C158.526 151.902 158.595 151.924 158.667 151.932C158.739 151.941 158.811 151.934 158.881 151.913C158.95 151.893 159.014 151.858 159.069 151.811C159.125 151.765 159.17 151.708 159.203 151.643Z" fill="#1A1A1A"/>
<path d="M171.118 148.785C172.523 149.269 173.975 151.732 174.503 152.346C174.574 152.413 174.665 152.456 174.762 152.467C174.86 152.478 174.958 152.457 175.042 152.408C175.127 152.358 175.193 152.282 175.23 152.192C175.268 152.102 175.275 152.001 175.251 151.907C174.965 151.021 174.485 150.21 173.846 149.533C173.207 148.856 172.425 148.331 171.558 147.994C171.073 147.686 170.59 148.477 171.118 148.785Z" fill="#1A1A1A"/>
<path d="M158.718 182.73C163.203 193.942 173.183 187.039 174.108 183.696C174.327 182.95 173.36 182.685 172.964 183.213C171.25 185.413 165.534 191.523 159.597 182.51C159.246 182.026 158.543 182.151 158.718 182.73Z" fill="#1A1A1A"/>
<path d="M253.694 254.094C253.309 251.585 250.835 248.51 248.329 249.565C248.286 248.686 248.286 247.805 248.241 246.926C249.297 244.429 243.756 240.023 230.302 243.496C229.636 243.673 229.949 244.772 230.609 244.552C237.996 241.958 248.637 244.376 245.647 247.146C243.982 248.686 233.599 250.664 228.982 245.648C228.806 245.076 228.234 245.12 228.103 245.516C228.103 245.516 227.27 260.598 228.06 263.368C228.06 267.554 241.701 271.821 248.153 264.907C248.549 264.467 247.846 263.808 247.362 264.116C244.591 265.781 236.193 269.788 229.202 263.368C229.868 260.554 229.29 250.002 229.158 247.759C232.808 251.275 244.635 250.441 247.054 248.463C246.887 250.396 246.526 259.807 247.45 262.181C247.67 262.709 248.549 262.885 248.681 262.181C248.768 261.746 248.812 261.304 248.812 260.861C249.581 260.746 250.32 260.479 250.984 260.074C251.648 259.67 252.224 259.137 252.679 258.506C253.134 257.876 253.458 257.161 253.633 256.403C253.807 255.645 253.828 254.86 253.694 254.094ZM252.029 255.281C251.978 256.168 251.643 257.015 251.073 257.696C250.504 258.377 249.729 258.856 248.865 259.062C248.777 257.564 248.426 251.983 248.381 250.664C250.704 250.005 252.155 253.39 252.022 255.281H252.029Z" fill="#1A1A1A"/>
<path d="M193.982 151.643C191.665 154.463 190.093 157.819 189.41 161.404C189.277 162.07 190.243 162.328 190.377 161.668C190.937 159.564 191.764 157.539 192.838 155.644C192.304 162.399 192.451 169.189 193.278 175.914C193.323 176.53 194.29 176.58 194.29 175.914C194.422 168.395 193.458 161.009 194.245 153.533C194.254 153.478 194.251 153.422 194.236 153.369C194.221 153.316 194.194 153.267 194.157 153.225C194.333 152.874 194.51 152.559 194.686 152.214C194.993 151.775 194.327 151.242 193.982 151.643Z" fill="#1A1A1A"/>
<path d="M225.464 89.8651C225.427 90.2164 225.158 91.6667 225.421 91.9747C225.469 92.0547 225.535 92.1229 225.613 92.1743C225.691 92.2256 225.78 92.2588 225.873 92.2714C225.966 92.284 226.06 92.2757 226.149 92.2471C226.238 92.2186 226.32 92.1704 226.388 92.1062C226.696 91.7999 226.696 90.348 226.696 89.9967C226.653 89.1175 225.517 89.3823 225.464 89.8651Z" fill="#1A1A1A"/>
<path d="M215.485 90.3048C215.353 91.0745 215.323 91.8583 215.396 92.6358C215.485 93.1203 216.187 93.0753 216.319 92.6358C216.452 91.8664 216.497 91.0843 216.452 90.3048C216.445 90.1814 216.391 90.0654 216.301 89.9806C216.211 89.8959 216.092 89.8486 215.968 89.8486C215.845 89.8486 215.726 89.8959 215.636 89.9806C215.546 90.0654 215.492 90.1814 215.485 90.3048Z" fill="#1A1A1A"/>
<path d="M214.648 89.2438C215.506 88.5338 216.57 88.1177 217.682 88.0567C218.166 87.9684 218.033 87.3524 217.682 87.2242C216.983 87.0503 216.246 87.1061 215.581 87.3831C214.916 87.6602 214.358 88.1438 213.989 88.7626C213.681 89.1173 214.345 89.5602 214.648 89.2438Z" fill="#1A1A1A"/>
<path d="M224.85 85.7308C225.758 86.7417 226.727 87.6963 227.752 88.5896C227.825 88.6291 227.908 88.6463 227.991 88.6391C228.074 88.632 228.153 88.6007 228.218 88.5492C228.283 88.4977 228.332 88.4282 228.359 88.3493C228.385 88.2704 228.388 88.1855 228.366 88.1051C227.788 86.7465 226.698 85.67 225.333 85.1081C224.941 84.9399 224.493 85.4278 224.85 85.7308Z" fill="#1A1A1A"/>
<path d="M286.408 99.5371C286.368 99.0975 285.616 98.9227 285.576 99.4055C285.236 101.723 285.031 104.058 284.96 106.399C284.498 105.874 283.965 105.416 283.378 105.037C284.357 101.216 284.551 97.2374 283.949 93.3399C283.818 92.6739 282.805 92.8554 282.762 93.5148C282.674 97.2094 282.939 100.859 282.499 104.595C281.913 104.328 281.29 104.151 280.651 104.069C281.237 99.2426 280.818 94.347 279.42 89.6902C279.289 89.294 278.588 89.3389 278.63 89.7785C279.112 94.5271 279.64 99.2324 279.683 104.024C279.061 104.061 277.482 104.387 277.266 104.817C277.278 100.767 276.329 96.7726 274.495 93.1618C274.431 93.0588 274.332 92.9823 274.216 92.946C274.1 92.9097 273.976 92.9161 273.864 92.964C273.753 93.0119 273.662 93.0981 273.608 93.2071C273.555 93.3161 273.542 93.4406 273.573 93.558C275.385 98.6032 276.249 103.94 276.122 109.299C276.122 110.047 277.223 110.003 277.266 109.299C277.309 108.024 277.354 106.748 277.309 105.469C277.356 105.542 277.422 105.6 277.499 105.639C277.576 105.678 277.663 105.695 277.749 105.689C279.051 105.451 280.394 105.557 281.643 105.996C282.892 106.436 284.005 107.194 284.872 108.195C284.828 109.822 284.432 122.574 284.432 127.323C284.432 127.762 285.098 127.762 285.136 127.323C285.529 122.579 286.813 104.106 286.408 99.5371Z" fill="#1A1A1A"/>
<path d="M282.274 129.703C280.776 129.439 277.482 128.56 276.691 126.845C277.824 123.7 278.022 120.294 277.262 117.039C277.335 116.97 277.388 116.884 277.417 116.788C277.446 116.692 277.449 116.591 277.427 116.493C277.405 116.396 277.358 116.306 277.291 116.232C277.223 116.158 277.138 116.103 277.043 116.072C271.239 113.829 272.161 106.883 268.072 103.057C267.765 102.749 267.149 103.145 267.406 103.541C270.265 107.322 270.351 116.6 276.377 117.128C276.729 120.048 276.58 123.007 275.937 125.877C275.701 125.505 275.436 125.152 275.145 124.822C274.968 124.647 274.748 124.602 274.312 125.13C268.818 132.033 269.783 149.094 270.354 154.194C270.444 154.767 271.323 154.767 271.278 154.194C270.796 149.314 271.944 133.088 274.885 126.845C275.717 129.307 280.379 131.11 282.184 130.674C282.759 130.536 282.802 129.745 282.274 129.703Z" fill="#1A1A1A"/>
<path d="M291.773 80.8056C291.368 80.3744 290.76 80.9821 291.107 81.4716C299.681 92.9918 296.824 105.523 295.103 110.403C294.926 110.93 295.717 111.235 295.982 110.799C298.542 105.997 299.514 100.507 298.758 95.1174C298.001 89.7282 295.556 84.7175 291.773 80.8056Z" fill="#084C28"/>
<path d="M301.667 82.5658C301.36 82.1679 300.699 82.5658 301.001 82.9604C305.047 88.6331 306.014 94.8335 305.926 101.608C305.931 101.731 305.979 101.847 306.061 101.937C306.144 102.027 306.255 102.085 306.376 102.101C306.498 102.117 306.62 102.089 306.723 102.023C306.826 101.957 306.902 101.857 306.938 101.74C308.307 95.0533 305.729 87.8272 301.667 82.5658Z" fill="#084C28"/>
<path d="M268.337 142.277C266.775 136.117 256.245 125.479 236.941 119.544C236.956 118.8 236.757 118.069 236.37 117.434C235.799 116.422 231.357 112.597 229.862 112.64C229.291 112.729 229.029 113.739 228.808 114.092C228.656 113.338 228.389 112.611 228.015 111.938C227.947 111.83 227.845 111.747 227.726 111.701C227.606 111.655 227.475 111.649 227.352 111.684C227.229 111.718 227.12 111.791 227.042 111.892C226.963 111.993 226.919 112.116 226.916 112.244C227.065 113.413 227.423 114.545 227.972 115.588C226.974 117.303 225.531 118.716 223.795 119.677C223.355 119.897 223.663 120.556 224.146 120.468C227.309 119.72 229.995 115.411 230.306 114.141C231.955 115.166 233.514 116.328 234.968 117.614C237.343 119.682 231.627 127.156 228.372 130.278C228.46 126.448 225.25 122.715 222.261 120.787C221.074 120.479 216.896 126.986 216.192 130.461C211.331 127.69 207.678 123.206 205.947 117.885C207.507 115.611 209.782 113.924 212.411 113.092C212.499 116.83 216.94 120.523 220.326 121.05C220.854 121.139 221.294 120.348 220.721 120.128C218.531 119.073 216.561 117.61 214.917 115.819C215.306 115.031 215.558 114.183 215.664 113.311C215.657 113.201 215.616 113.096 215.546 113.01C215.476 112.924 215.382 112.863 215.275 112.834C215.168 112.805 215.055 112.81 214.951 112.848C214.848 112.887 214.759 112.957 214.697 113.048C214.435 113.518 214.243 114.022 214.126 114.547C213.783 113.904 213.475 113.243 213.202 112.567C213.145 112.443 213.049 112.342 212.929 112.278C212.808 112.214 212.67 112.193 212.536 112.216C209.459 112.7 204.665 115.379 205.017 118.24C197.982 118.906 189.715 126.731 188.134 129.717C188.08 129.816 188.063 129.932 188.087 130.043C188.111 130.154 188.173 130.253 188.263 130.322C188.353 130.391 188.465 130.425 188.578 130.419C188.692 130.413 188.799 130.366 188.881 130.288C191.65 128.002 194.684 122.945 205.238 119.207C206.557 124.44 211.26 130.245 216.274 131.695C216.355 131.716 216.44 131.716 216.521 131.695C216.602 131.675 216.676 131.634 216.738 131.577C216.799 131.52 216.845 131.449 216.871 131.37C216.898 131.291 216.904 131.206 216.89 131.124C216.933 131.079 218.999 124.352 222.218 121.89C227.987 126.027 226.245 132.272 228.11 131.651C232.376 130.331 236.602 122.109 236.86 120.483C259.241 128.838 265.664 139.918 267.419 142.732C267.497 142.817 267.601 142.875 267.714 142.896C267.828 142.917 267.945 142.901 268.049 142.85C268.152 142.799 268.236 142.715 268.288 142.612C268.34 142.508 268.357 142.391 268.337 142.277Z" fill="#1A1A1A"/>
<path d="M46.33 123.105C44.7716 118.29 39.2937 96.7234 38.2831 94.5256C38.02 93.9978 37.2724 94.3058 37.2275 94.7887C37.1392 97.0747 43.5162 118.621 45.406 123.325C45.6207 123.898 46.5132 123.675 46.33 123.105Z" fill="#1A1A1A"/>
<path d="M40.35 90.699C40.2682 94.4066 41.1469 98.0724 42.9007 101.34C42.9266 101.401 42.9642 101.455 43.0113 101.501C43.0585 101.548 43.1142 101.584 43.1753 101.608C43.2365 101.633 43.3019 101.645 43.3677 101.644C43.4336 101.644 43.4987 101.63 43.5592 101.604C43.6198 101.578 43.6747 101.54 43.7207 101.493C43.7668 101.446 43.8031 101.39 43.8276 101.329C43.8521 101.268 43.8643 101.203 43.8635 101.137C43.8628 101.071 43.8491 101.006 43.8231 100.945C42.6759 97.5595 41.7799 94.0935 41.1425 90.5758C41.0975 90.1279 40.3533 90.2594 40.35 90.699Z" fill="#1A1A1A"/>
<path d="M45.1429 87.797C44.5976 91.6002 45.0521 95.4798 46.4616 99.0541C46.6814 99.5819 47.3857 99.1856 47.2941 98.7028C46.5626 95.1251 46.1359 91.4918 46.0187 87.842C46.0288 87.7807 46.0258 87.718 46.01 87.6579C45.9942 87.5979 45.9659 87.5419 45.9269 87.4935C45.8879 87.4451 45.8392 87.4056 45.7839 87.3773C45.7286 87.3491 45.668 87.3329 45.6059 87.3297C45.5439 87.3265 45.4819 87.3364 45.424 87.3589C45.3661 87.3813 45.3136 87.4157 45.2699 87.4598C45.2262 87.5039 45.1923 87.5567 45.1704 87.6148C45.1485 87.6729 45.1391 87.735 45.1429 87.797Z" fill="#1A1A1A"/>
<path d="M51.4752 86.1705C48.5731 92.2394 50.0666 102.088 51.342 104.727C51.5618 105.21 52.3543 104.947 52.3094 104.462C52.1346 101.56 50.2431 94.2175 52.3543 86.3903C52.5292 85.8625 51.695 85.5994 51.4752 86.1705Z" fill="#1A1A1A"/>
<path d="M43.4286 104.594C45.2278 103.518 47.2694 102.913 49.3643 102.835C49.8921 102.747 50.1119 101.956 49.4959 101.825C48.3326 101.658 47.1468 101.748 46.0224 102.09C44.8979 102.432 43.8624 103.016 42.989 103.803C42.5045 104.154 42.9424 104.943 43.4286 104.594Z" fill="#1A1A1A"/>
<path d="M57.9815 98.4015C54.7081 102.121 57.4537 110.669 51.3415 111.945C50.902 112.031 50.9902 112.824 51.4747 112.777C51.9093 112.722 52.3364 112.619 52.7484 112.471C52.8176 116.401 53.4095 120.304 54.5083 124.077C54.6832 124.519 55.4757 124.299 55.4308 123.814C55.2559 121.923 54.0238 114.053 53.849 111.943C57.6219 109.612 57.3838 103.227 58.9056 99.0159C58.9445 98.8963 58.9432 98.7672 58.9018 98.6485C58.8605 98.5297 58.7814 98.4277 58.6767 98.3581C58.572 98.2884 58.4473 98.255 58.3218 98.2628C58.1963 98.2707 58.0768 98.3194 57.9815 98.4015Z" fill="#1A1A1A"/>
<path d="M33.666 77.2011C34.014 76.7582 33.3147 76.2337 32.9184 76.63C26.4549 82.917 25.7073 93.9543 28.7409 102C28.9607 102.527 29.7966 102.308 29.6201 101.78C28.2581 97.6023 26.9377 85.7941 33.666 77.2011Z" fill="#084C28"/>
<path d="M23.8182 73.0234C18.9348 76.9345 17.9691 84.5868 19.729 90.2162C19.7655 90.3244 19.8414 90.415 19.9416 90.4698C20.0419 90.5246 20.1591 90.5397 20.27 90.512C20.3808 90.4843 20.4771 90.4158 20.5398 90.3203C20.6025 90.2247 20.6268 90.1091 20.6081 89.9964C19.9421 87.0493 20.1236 78.2115 24.6973 73.6794C25.1419 73.1999 24.2578 72.6721 23.8182 73.0234Z" fill="#084C28"/>
<path d="M85.4631 207.266C84.7971 211.75 85.9909 229.69 87.6626 233.56C87.7392 233.682 87.8535 233.776 87.9883 233.828C88.1231 233.88 88.271 233.886 88.4099 233.846C88.5487 233.807 88.6709 233.723 88.758 233.608C88.8452 233.493 88.8925 233.353 88.893 233.208C88.4102 228.899 86.3439 211.706 86.3872 207.352C86.3439 206.87 85.5081 206.738 85.4631 207.266Z" fill="#1A1A1A"/>
<path d="M106.921 106.045C107.451 106.62 108.095 107.078 108.812 107.39C109.53 107.702 110.304 107.861 111.086 107.857C111.868 107.852 112.64 107.685 113.354 107.365C114.068 107.046 114.707 106.581 115.231 106C115.627 105.429 114.88 104.901 114.352 105.121C113.364 105.896 112.159 106.342 110.905 106.397C109.651 106.452 108.411 106.114 107.359 105.429C107.277 105.386 107.183 105.374 107.093 105.396C107.003 105.417 106.924 105.47 106.87 105.546C106.817 105.621 106.792 105.713 106.802 105.805C106.811 105.897 106.853 105.982 106.921 106.045Z" fill="#1A1A1A"/>
<path d="M109.867 103.23C113.773 104.952 112.461 94.9632 111.532 93.3798C111.476 93.2872 111.394 93.213 111.297 93.166C111.199 93.1191 111.09 93.1015 110.983 93.1155C110.876 93.1294 110.775 93.1743 110.692 93.2446C110.61 93.3148 110.55 93.4075 110.52 93.5113C110.433 94.1773 111.575 102.571 110.213 102.351C109.735 102.264 109.344 103 109.867 103.23Z" fill="#1A1A1A"/>
<path d="M115.1 95.4929C115.014 96.3416 115.135 97.1985 115.452 97.9904C115.523 98.0645 115.611 98.1209 115.709 98.1551C115.806 98.1894 115.91 98.2006 116.012 98.1878C116.115 98.175 116.212 98.1387 116.298 98.0816C116.384 98.0245 116.456 97.9483 116.507 97.8589C116.661 97.0099 116.616 96.1368 116.376 95.3081C116.199 94.5722 115.179 94.7886 115.1 95.4929Z" fill="#1A1A1A"/>
<path d="M104.415 95.493C104.131 96.3907 104.1 97.3496 104.327 98.2635C104.388 98.3528 104.47 98.4259 104.566 98.4763C104.662 98.5268 104.768 98.5532 104.876 98.5532C104.985 98.5532 105.091 98.5268 105.187 98.4763C105.283 98.4259 105.365 98.3528 105.426 98.2635C105.648 97.4172 105.736 96.5415 105.689 95.6678C105.646 94.9652 104.517 94.7471 104.415 95.493Z" fill="#1A1A1A"/>
<path d="M103.052 94.0857C103.931 92.8536 105.909 92.8536 106.482 92.6338C106.876 92.5023 107.098 91.8429 106.613 91.6232C105.809 91.4101 104.958 91.4521 104.178 91.7435C103.399 92.0349 102.729 92.5613 102.261 93.2499C101.82 93.821 102.524 94.6135 103.052 94.0857Z" fill="#1A1A1A"/>
<path d="M114.44 92.1513C116.155 92.3261 116.814 93.8663 117.342 94.086C117.737 94.2525 118.31 94.0411 118.265 93.5582C118.133 91.9315 115.979 91.1839 114.615 91.0957C114.487 91.0964 114.363 91.1424 114.266 91.2255C114.168 91.3086 114.103 91.4235 114.082 91.5498C114.062 91.6761 114.086 91.8058 114.151 91.9159C114.217 92.026 114.319 92.1094 114.44 92.1513Z" fill="#1A1A1A"/>
<path d="M116.419 72.2761C114.266 71.2621 105.338 71.2621 103.397 72.0946C86.8198 78.8661 90.5128 93.3766 90.5578 93.5081C90.9661 94.968 91.7904 96.2776 92.9301 97.2772C94.0698 98.2767 95.4757 98.9231 96.9763 99.1375C97.537 102.306 98.9857 105.251 101.154 107.629C109.73 116.865 124.903 111.169 124.722 96.2837C126.876 95.9324 127.977 93.2501 128.109 91.272C128.374 87.2839 127.39 83.3121 125.296 79.9081C123.201 76.5041 120.098 73.8367 116.419 72.2761ZM120.596 104.947C119.706 106.473 118.455 107.757 116.952 108.686C115.449 109.615 113.741 110.161 111.978 110.275C102.787 111.154 98.3466 101.745 97.2044 94.0942C97.2477 93.9177 98.2151 91.8082 104.019 90.6643C107.273 90.0483 110.263 84.7719 110.132 81.2105C110.248 83.7313 113.695 88.9427 119.409 90.8841C120.657 91.2661 121.74 92.0558 122.486 93.1269C122.889 97.1639 122.238 101.236 120.596 104.947Z" fill="#1A1A1A"/>
<path d="M113.912 69.8584C115.494 70.2114 117.342 70.8258 118.09 68.7578C118.969 66.252 120.421 58.9526 107.977 58.4698C105.094 58.2884 102.214 58.8623 99.6218 60.1348C97.7585 61.1003 96.3212 62.7247 95.5896 64.6916C94.858 66.6586 94.8846 68.8273 95.6641 70.7758C96.6764 73.3266 98.5662 72.9753 100.413 71.6999C105.909 68.0119 112.153 69.4638 113.912 69.8584Z" fill="#1A1A1A"/>
<path d="M81.4617 233.599C77.743 216.14 69.5281 199.955 57.6305 186.646C57.5209 186.542 57.3862 186.468 57.2394 186.431C57.0927 186.394 56.9388 186.395 56.7928 186.435C56.6468 186.475 56.5135 186.552 56.4059 186.658C56.2983 186.765 56.22 186.897 56.1787 187.043C52.2226 197.419 52.4857 210.083 57.9819 219.888C58.3781 220.636 59.3888 219.976 59.0808 219.222C54.7382 209.711 54.111 198.919 57.3225 188.969C68.481 201.91 76.4488 217.288 80.5859 233.867C80.7141 234.395 81.5849 234.177 81.4617 233.599Z" fill="#1A1A1A"/>
<path d="M53.6734 213.286C49.7157 207.459 37.9325 196.753 14.2762 190.86C13.5719 190.694 12.6928 191.388 13.0008 192.136C17.8632 204.703 26.3177 215.56 37.3098 223.355C33.2195 222.263 29.0117 221.673 24.779 221.596C24.6109 221.6 24.4467 221.647 24.3022 221.733C24.1577 221.819 24.0378 221.941 23.9541 222.087C23.8704 222.233 23.8257 222.398 23.8244 222.566C23.8231 222.734 23.8651 222.899 23.9465 223.047C27.3315 229.115 33.0041 234.523 39.8639 236.238C40.5299 236.415 40.9628 235.446 40.3468 235.138C34.7915 232.551 30.0146 228.548 26.4956 223.531C31.4207 223.619 41.3141 225.552 41.4024 225.466C41.5355 225.48 41.6697 225.453 41.7876 225.39C41.9054 225.326 42.0014 225.229 42.0631 225.11C42.1247 224.991 42.1492 224.857 42.1332 224.724C42.1172 224.591 42.0615 224.466 41.9735 224.365C39.5109 221.993 24.9139 213.506 15.8113 193.499C29.2662 197.677 43.4254 203.173 53.054 213.769C53.3221 214.169 53.9465 213.683 53.6734 213.286Z" fill="#1A1A1A"/>
<path d="M60.4007 205.294C69.5899 219.673 70.2492 227.272 71.7877 231.853C71.9642 232.381 72.9315 232.336 72.8433 231.721C71.7011 222.136 66.776 212.55 61.1883 204.855C60.7953 204.407 60.0477 204.795 60.4007 205.294Z" fill="#1A1A1A"/>
<path d="M62.7701 229.778C62.7398 227.477 62.5171 225.183 62.1041 222.919C61.9725 222.348 61.1367 222.522 61.1367 223.05C61.153 225.304 61.3445 227.554 61.7095 229.778C61.8077 230.393 62.815 230.436 62.7701 229.778Z" fill="#1A1A1A"/>
<path d="M50.5507 217.642C50.529 216.144 50.3309 214.697 50.2427 213.245C50.1994 212.937 49.7148 212.894 49.7148 213.245C49.7148 214.744 49.7148 216.19 49.7598 217.642C49.7563 217.696 49.7639 217.751 49.7822 217.802C49.8005 217.853 49.829 217.899 49.8661 217.939C49.9032 217.979 49.9479 218.01 49.9977 218.032C50.0474 218.053 50.101 218.064 50.1552 218.064C50.2094 218.064 50.2631 218.053 50.3128 218.032C50.3625 218.01 50.4073 217.979 50.4444 217.939C50.4814 217.899 50.51 217.853 50.5283 217.802C50.5466 217.751 50.5542 217.696 50.5507 217.642Z" fill="#1A1A1A"/>
<path d="M40.7924 209.024C40.4458 207.718 40.0051 206.438 39.4737 205.195C39.2972 204.799 38.7261 205.108 38.8077 205.46C39.057 206.742 39.3947 208.005 39.8184 209.241C40.0415 209.903 40.9722 209.637 40.7924 209.024Z" fill="#1A1A1A"/>
<path d="M54.3769 227.712C52.6377 227.522 50.883 227.522 49.1438 227.712C48.6593 227.755 48.4395 228.503 49.0123 228.635C50.7836 228.935 52.5828 229.038 54.3769 228.943C54.5345 228.934 54.683 228.866 54.7917 228.752C54.9003 228.637 54.9609 228.485 54.9609 228.327C54.9609 228.17 54.9003 228.018 54.7917 227.903C54.683 227.789 54.5345 227.72 54.3769 227.712Z" fill="#1A1A1A"/>
<path d="M42.9436 215.451C41.6847 215.354 40.4241 215.281 39.1624 215.231C38.6346 215.231 38.6795 215.936 39.1624 216.024C40.3945 216.19 41.6599 216.287 42.9436 216.375C43.5164 216.41 43.5164 215.486 42.9436 215.451Z" fill="#1A1A1A"/>
<path d="M61.9381 232.504C56.8664 225.72 50.9735 219.59 44.394 214.256C37.9357 208.781 30.9897 203.91 23.6431 199.702C23.2918 199.482 22.9388 200.053 23.2918 200.273C26.3381 202.189 29.3153 204.214 32.2178 206.342C30.7505 206.634 29.2672 206.84 27.7756 206.958C27.381 207.001 27.4243 207.66 27.7756 207.749C29.2794 208.016 30.8271 207.88 32.2611 207.354C32.3342 207.33 32.4013 207.291 32.4577 207.239C32.5141 207.186 32.5584 207.123 32.5877 207.051C32.617 206.98 32.6305 206.904 32.6273 206.827C32.6241 206.75 32.6043 206.675 32.5691 206.607C47.4592 217.557 52.401 224.304 61.1938 233.032C61.5884 233.433 62.2461 232.945 61.9381 232.504Z" fill="#1A1A1A"/>
<path d="M271.193 227.712C270.924 223.158 271.148 218.587 271.859 214.081C271.887 213.976 271.872 213.865 271.818 213.771C271.765 213.677 271.676 213.608 271.572 213.579C271.467 213.55 271.356 213.564 271.261 213.617C271.167 213.669 271.097 213.757 271.067 213.861C269.847 218.373 269.564 223.087 270.234 227.712C270.314 228.283 271.237 228.327 271.193 227.712Z" fill="#1A1A1A"/>
<path d="M309.668 196.97C305.491 199.127 301.517 201.658 297.797 204.532C298.929 202.44 300.366 200.528 302.061 198.859C302.414 198.465 301.972 197.805 301.49 198.113C299.046 199.943 297.295 202.547 296.521 205.499C293.751 207.567 285.089 214.99 283.461 216.537C284.045 212.943 285.527 209.555 287.77 206.687C288.035 206.335 287.638 205.896 287.287 206.204C285.732 207.686 284.492 209.466 283.638 211.438C282.785 213.409 282.336 215.532 282.319 217.68C277.943 221.956 273.915 226.573 270.271 231.487C269.874 232.014 270.799 232.674 271.15 232.189C277.921 222.912 290.277 212.709 290.76 212.314C294.498 212.314 298.984 211.7 302.061 209.545C302.15 209.489 302.216 209.403 302.247 209.302C302.278 209.202 302.271 209.093 302.228 208.997C302.186 208.9 302.11 208.823 302.014 208.778C301.919 208.733 301.811 208.724 301.709 208.753C298.508 209.853 295.231 210.72 291.904 211.347C299.818 204.532 307.029 200.882 310.327 198.245C310.898 197.724 310.326 196.71 309.668 196.97Z" fill="#1A1A1A"/>
<path d="M279.152 226.657C283.182 226.897 287.206 226.11 290.848 224.369C291.288 224.149 290.98 223.403 290.497 223.536C286.788 224.612 282.992 225.362 279.152 225.779C279.046 225.794 278.949 225.846 278.879 225.927C278.808 226.007 278.77 226.111 278.77 226.218C278.77 226.325 278.808 226.428 278.879 226.509C278.949 226.589 279.046 226.642 279.152 226.657Z" fill="#1A1A1A"/>
<path d="M180.968 49.8951C180.929 49.7799 180.855 49.6798 180.757 49.6088C180.658 49.5378 180.54 49.4996 180.418 49.4996C180.297 49.4996 180.178 49.5378 180.08 49.6088C179.981 49.6798 179.907 49.7799 179.869 49.8951C179.384 51.6101 178.99 86.8748 178.768 94.3057C176.219 93.9094 150.759 94.5255 145.135 94.9717C145.355 91.4102 143.637 57.6757 142.321 50.6061C147.906 50.6927 173.803 51.1339 176.311 50.6927C177.101 50.5611 176.838 49.4622 176.134 49.374C173.452 49.066 147.163 49.066 141.397 49.5055C141.266 49.5089 141.141 49.5605 141.045 49.6506C140.95 49.7407 140.891 49.8629 140.88 49.9938C140.869 50.1246 140.907 50.2549 140.986 50.3596C141.065 50.4643 141.18 50.536 141.309 50.5611C141.266 57.9487 142.936 91.6733 143.332 95.3679C143.34 95.5327 143.393 95.6921 143.485 95.8288C143.577 95.9654 143.705 96.0741 143.855 96.1428C144.005 96.2116 144.171 96.2378 144.335 96.2186C144.499 96.1994 144.654 96.1355 144.784 96.0339C150.769 96.3103 178.428 95.8058 178.948 95.2864C179.213 95.5061 179.739 95.4612 179.78 95.0216C181.099 87.6224 181.579 51.5685 180.968 49.8951Z" fill="#1A1A1A"/>
<path d="M87.4422 81.1588C84.8448 81.0922 74.2887 81.8615 71.7013 82.2128C71.5741 82.2192 71.4497 82.2527 71.3366 82.3111C71.2234 82.3695 71.1241 82.4515 71.0452 82.5515C70.9664 82.6515 70.9098 82.7672 70.8794 82.8908C70.8489 83.0145 70.8453 83.1432 70.8688 83.2684C72.627 96.0639 73.8658 109.123 74.342 122.006C74.3431 122.085 74.3635 122.162 74.4013 122.231C74.4391 122.3 74.4931 122.359 74.5588 122.402C74.6244 122.445 74.6997 122.472 74.7779 122.48C74.8562 122.487 74.9352 122.476 75.008 122.446C76.972 122.513 78.9368 122.336 80.8571 121.918C81.3832 121.787 81.2084 121.086 80.7239 121.039C78.9154 120.922 77.0995 121.026 75.316 121.347C74.9197 108.771 74.2171 96.2404 72.6337 83.7529C75.0529 83.4882 85.1661 83.1369 87.6187 82.3893C87.7664 82.3495 87.8945 82.257 87.9788 82.1293C88.063 82.0015 88.0975 81.8473 88.0757 81.6958C88.054 81.5444 87.9776 81.4061 87.8608 81.3072C87.7441 81.2082 87.5952 81.1555 87.4422 81.1588Z" fill="#1A1A1A"/>
<path d="M202.204 115.551C199.538 115.15 196.828 115.136 194.157 115.508C193.806 108.956 192.839 81.6499 192.619 80.3762C194.685 80.4211 196.796 80.4211 198.862 80.2879C198.997 80.2879 199.125 80.2347 199.22 80.1399C199.315 80.0452 199.368 79.9166 199.368 79.7826C199.368 79.6486 199.315 79.52 199.22 79.4253C199.125 79.3305 198.997 79.2773 198.862 79.2773C196.445 79.0142 193.982 79.0142 191.52 78.881C190.201 78.8377 190.904 80.0681 190.904 80.1131C190.904 80.1581 192.531 109.837 192.444 116.432C192.452 116.663 192.547 116.882 192.71 117.045C192.873 117.209 193.092 117.304 193.323 117.313C196.225 117.224 199.171 117.224 202.029 116.871C202.732 116.73 202.995 115.717 202.204 115.551Z" fill="#1A1A1A"/>
<path d="M223.618 72.1878C218.386 63.8345 206.821 67.3959 203.128 75.2214C201.326 79.5363 200.971 84.3193 202.118 88.8528C202.864 92.2827 204.755 96.7682 208.536 97.8221C208.713 99.4871 208.976 101.209 209.241 102.924C210.891 113.869 223.06 116.147 228.763 109.475C231.973 106.617 233.072 102.264 233.38 97.8671C235.491 97.1195 236.898 93.9976 237.6 92.1062C242.644 77.912 232.239 69.677 223.618 72.1878ZM223.926 102.616C223.706 103.934 220.096 105.561 217.374 103.979C216.76 103.626 217.287 102.704 217.947 103.012C218.832 103.347 219.797 103.414 220.72 103.203C221.643 102.991 222.483 102.512 223.135 101.825C223.486 101.429 224.014 102.219 223.926 102.616ZM231.665 101.165C231.298 100.291 230.741 99.5089 230.034 98.8774C229.326 98.2459 228.486 97.7806 227.576 97.5158C225.578 96.9563 222.357 98.2334 220.804 98.4831C219.88 96.943 220.717 94.8767 220.98 93.0735C221.069 92.4592 220.188 92.1511 220.013 92.8105C219.327 94.6329 219.072 96.589 219.265 98.5264C218.341 98.3949 217.462 97.9986 216.54 97.8604C215.659 97.7261 214.76 97.7822 213.903 98.0249C213.046 98.2676 212.251 98.6913 211.572 99.2673C210.957 99.8118 210.526 100.534 210.339 101.334C209.364 97.3029 208.877 93.1696 208.888 89.0226C211.527 88.6696 221.728 85.1531 223.003 80.5311C223.669 84.0925 230.609 87.2144 232.72 87.7855C232.72 88.1052 231.796 100.681 231.665 101.165Z" fill="#1A1A1A"/>
<path d="M316.66 180.32C310.591 180.936 304.92 185.596 300.258 189.158C296.918 191.708 287.068 199.182 285.273 199.98C276.127 203.976 280.568 192.11 278.501 190.042C269.843 181.204 254.142 223.675 252.471 231.99C252.384 232.341 252.955 232.517 253.044 232.166C257.04 218.095 269.883 188.986 276.875 191.229C278.59 191.758 276.831 197.649 277.622 199.887C281.227 210.483 303.43 188.898 309.369 185.333C319.394 179.352 323.355 185.947 322.164 189.509C320.01 196.017 303.698 206.174 304.004 211.67C304.357 217.997 312.139 214.044 312.402 216.067C313.235 222.972 298.2 232.776 291.825 236.339C290.946 236.821 291.737 238.142 292.617 237.702C299.124 234.49 317.855 222.443 313.678 214.352C312.755 212.506 306.775 215.673 306.07 211.45C305.499 208.022 321.197 197.556 323.886 191.004C326.58 184.276 322.011 179.757 316.66 180.32Z" fill="#1A1A1A"/>
<path d="M292.563 147.597C292.197 144.3 288.123 131.899 286.1 129.615C285.66 129.131 284.648 129.658 284.956 130.281C286.231 133.36 290.76 145.766 291.025 149.012C291.464 154.948 291.156 163.126 287.33 168.008C283.021 173.503 264.335 171.042 252.946 159.169C252.456 154.604 251.722 150.069 250.747 145.582C250.66 145.1 249.914 145.319 249.999 145.802C252.874 163.923 252.546 182.407 249.032 200.414C245.427 201.337 236.15 204.986 223.662 204.723C224.673 199.315 229.114 153.981 223.309 127.071C223.178 126.5 222.342 126.5 222.387 127.071C224.649 152.881 224.5 178.846 221.944 204.628C218.338 204.365 213.238 203.837 210.424 203.31C206.428 194.295 195.429 185.632 195.342 185.546C192.989 179.934 190.21 174.509 187.031 169.32C183.954 164.352 185.366 157.843 185.755 152.039C186.152 145.84 186.24 138.321 182.151 133.133C180.652 131.198 178.018 127.592 169.663 127.064C167.388 126.986 165.159 127.718 163.374 129.131C155.372 126.362 147.81 130.934 144.423 138.276C139.978 147.868 143.772 159.199 140.859 164.702C140.111 166.152 134.175 174.375 133.165 177.674C132.432 180.075 130.764 186.145 132.68 187.742C119.36 198.911 117.196 210.827 115.709 217.599C111.135 238.484 122.832 251.455 129.911 253.17C130.702 253.346 131.361 252.114 130.526 251.763C117.687 246.047 115.884 230.481 117.775 218.17C121.16 195.877 141.085 184.269 143.498 183.125C148.105 180.96 153.036 179.564 158.095 178.992C158.044 179.547 158.059 180.106 158.14 180.657C158.148 180.771 158.196 180.879 158.274 180.962C158.352 181.045 158.456 181.099 158.569 181.114C158.683 181.13 158.798 181.106 158.895 181.047C158.993 180.988 159.068 180.898 159.107 180.79C159.715 178.648 159.941 176.415 159.773 174.194C164.566 177.535 170.897 175.118 172.523 174.15C172.408 176.378 172.895 178.595 173.932 180.569C174.195 180.965 174.943 180.834 174.899 180.306C174.811 179.558 174.678 178.807 174.546 178.063C175.672 177.961 176.805 177.946 177.933 178.02C184.856 180.397 191.237 184.129 196.703 188.998C202.169 193.867 206.61 199.776 209.768 206.38C222.342 233.02 206.952 248.504 203.567 250.351C202.643 250.879 203.304 252.154 204.27 251.978C210.162 250.967 215.747 237.863 215.878 237.159C222.65 237.028 250.484 236.676 250.484 236.676C250.484 236.676 250.264 205.721 250.176 202.73C251.841 198.598 255.013 177.712 253.209 160.696C265.742 173.491 274.931 172.517 280.119 172.655C292.387 172.923 293.579 156.748 292.563 147.597ZM153.969 160.304C153.55 160.416 153.111 160.43 152.687 160.346C152.262 160.262 151.862 160.081 151.518 159.818C151.173 159.554 150.894 159.215 150.702 158.827C150.509 158.439 150.409 158.012 150.407 157.579C150.504 156.691 150.909 155.866 151.552 155.247C152.195 154.628 153.035 154.255 153.925 154.192C153.896 152.887 154.175 151.594 154.74 150.417C155.305 149.241 156.139 148.214 157.176 147.421C158.759 146.233 160.737 145.662 162.407 144.607C163.284 144.145 163.999 143.425 164.455 142.544C164.911 141.664 165.087 140.665 164.958 139.682C165.604 142.913 169.831 144.16 171.861 145.311C172.881 146.013 173.799 146.854 174.588 147.808C176.449 149.911 177.562 152.57 177.752 155.371C177.967 155.281 178.203 155.25 178.435 155.281C178.666 155.312 178.886 155.404 179.07 155.547C181.734 157.674 180.822 161.317 178.587 161.615C178.193 161.659 177.795 161.659 177.4 161.615C177.136 164.165 173.707 173.311 167.55 173.927C165.709 174.154 163.84 173.958 162.085 173.353C160.331 172.748 158.739 171.751 157.429 170.437C156.119 169.122 155.126 167.527 154.526 165.771C153.927 164.015 153.736 162.145 153.969 160.304Z" fill="#1A1A1A"/>
<path d="M287.727 236.197C287.598 236.009 287.417 235.863 287.206 235.778C286.995 235.692 286.763 235.67 286.54 235.714C280.779 235.274 227.707 235.89 215.924 236.285C215.801 236.285 215.684 236.334 215.597 236.42C215.51 236.507 215.462 236.625 215.462 236.747C215.462 236.87 215.51 236.987 215.597 237.074C215.684 237.16 215.801 237.209 215.924 237.209C227.707 237.604 280.559 238.177 286.187 237.78C291.946 245.211 317.977 278.321 321.01 281.486C281.57 282.191 22.7605 280.256 11.4601 280.654C16.9996 273.266 45.536 236.418 45.536 236.332C56.0888 236.903 106.523 237.164 109.251 236.463C110.041 236.243 110.13 234.925 109.251 234.798C106.48 234.359 55.561 235.238 44.7019 235.194C43.6462 235.194 14.1424 273.142 8.64462 280.88C8.60133 280.924 7.59067 282.154 9.3922 282.242C38.6779 283.341 301.488 284.177 322.637 283.741C323.43 283.653 324.836 282.862 324.177 281.894C319.562 274.495 293.017 242.923 287.727 236.197Z" fill="#084C28"/>
</svg>
