<svg width="333" height="333" viewBox="0 0 333 333" fill="none" xmlns="http://www.w3.org/2000/svg">
<path d="M117.832 249.917C120.607 248.933 123.451 248.154 126.34 247.586L126.69 248.868C126.729 249.019 126.821 249.151 126.949 249.239C127.078 249.328 127.234 249.367 127.389 249.35L138.828 248.018C141.974 240.842 147.752 229.97 147.835 229.803C147.752 227.089 147.835 224.808 147.835 222.211C141.292 224.642 129.187 229.254 122.86 232.201C122.717 232.293 122.607 232.428 122.544 232.586C122.481 232.744 122.47 232.918 122.511 233.083C122.511 233.083 122.627 233.5 122.777 234.099C119.68 234.099 110.406 233.649 108.175 235.764C107.828 236.247 107.658 236.835 107.692 237.429C107.559 239.727 108.708 257.576 110.539 262.82C111.488 265.568 113.486 265.268 114.852 262.637C116.432 258.675 117.446 254.511 117.865 250.266C117.865 250.05 117.815 250.066 117.832 249.917ZM115.917 235.015C117.949 234.848 118.581 234.882 122.944 234.748C123.726 237.712 125.341 243.806 126.174 246.92C123.236 247.375 120.336 248.048 117.499 248.934C116.615 244.342 116.086 239.688 115.917 235.015Z" fill="#084C28"/>
<path d="M271.079 89.2936C271.495 88.7108 270.962 87.9616 270.513 87.3788C271.786 86.069 273.198 84.9021 274.725 83.899C277.301 82.6151 279.656 80.929 281.701 78.9039C282.55 78.0215 284.149 76.2067 283.549 75.1411C282.95 74.0755 281.884 74.0089 280.436 74.6249C281.064 73.966 281.576 73.2061 281.951 72.3772C282.417 71.0785 281.318 70.0295 278.937 70.9952C279.803 69.6133 280.003 68.1647 278.538 67.4654C277.356 66.8993 275.624 68.2479 274.625 69.1304C272.663 70.8444 270.822 72.6914 269.114 74.6582C268.065 72.4604 266.4 69.9296 264.319 70.7288C262.237 71.528 263.853 75.1077 264.918 77.0558L261.139 79.6698C260.567 79.3615 259.922 79.2174 259.274 79.2536C254.978 79.9862 235.248 95.0045 233.25 95.0045C231.718 95.0045 209.84 84.515 190.926 81.4847C190.889 81.3713 190.821 81.2704 190.73 81.1938C190.639 81.1173 190.527 81.068 190.409 81.0518C187.11 80.4888 183.766 80.238 180.419 80.3026C180.318 80.3094 180.219 80.3382 180.13 80.3871C180.041 80.436 179.964 80.5037 179.903 80.5856H178.505C178.172 79.2369 176.94 76.1234 176.507 74.9246C177.639 73.9422 179.204 73.4427 180.02 71.861C181.518 68.9306 181.452 63.8357 181.035 60.5723C182.917 59.1404 182.967 56.8427 182.534 54.4951C182.367 53.546 181.851 51.3982 181.052 50.8654C180.603 50.5657 179.653 50.8654 178.838 51.1651C178.022 49.267 178.022 50.1328 178.355 49.3669C178.509 49.0139 178.6 48.6361 178.621 48.2513C179.504 48.5177 181.335 46.7528 180.702 44.4218C180.371 43.5873 179.964 42.7848 179.487 42.0242C179.72 41.4581 180.22 40.7755 178.654 38.6942C177.98 37.9671 177.105 37.4571 176.14 37.229H175.374C174.822 36.4269 174.011 35.8391 173.077 35.564C171.667 35.2044 170.171 35.4137 168.914 36.1467C168.581 36.3965 168.315 36.7295 167.982 36.9626C167.229 36.5055 166.365 36.2637 165.484 36.2637C164.604 36.2637 163.74 36.5055 162.987 36.9626C162.546 37.1355 162.145 37.3958 161.807 37.7277C161.47 38.0596 161.203 38.4563 161.022 38.894C160.206 38.6125 159.341 38.5042 158.481 38.5758C157.621 38.6475 156.785 38.8976 156.027 39.3103C153.151 40.8699 150.999 43.4936 150.033 46.6196C150.006 47.091 150.006 47.5635 150.033 48.0348H149.85C147.352 47.6685 144.172 53.596 146.72 58.208C147.019 58.7575 147.402 59.2736 147.769 59.873C148.834 61.538 148.418 62.0375 150.799 64.0688C151.498 64.6682 151.615 64.6182 152.048 64.9845C152.481 65.3508 152.314 65.1677 152.564 66.1001C152.7 66.6494 152.944 67.1662 153.281 67.6206C153.618 68.075 154.042 68.458 154.529 68.7474C154.706 70.376 155.4 71.905 156.51 73.1097C156.862 73.5031 157.271 73.84 157.725 74.1087C157.848 74.1778 157.985 74.2176 158.125 74.2253C158.625 77.3222 159.241 81.3515 159.507 83.0665L158.025 83.8656C156.086 84.6458 154.201 85.5524 152.381 86.5796C152.238 86.6784 152.137 86.8268 152.098 86.9958C150.333 87.9282 148.668 88.8107 147.719 89.3768C134.499 97.2189 96.9529 148.917 96.57 151.282C96.5277 151.417 96.5277 151.562 96.57 151.698C97.1081 152.556 97.7639 153.335 98.518 154.012C98.2857 154.436 98.0064 154.833 97.6855 155.194C94.3555 157.375 89.3605 160.622 86.6799 163.519C86.4919 163.687 86.3508 163.901 86.2707 164.139C86.1905 164.378 86.174 164.634 86.2227 164.881C86.2715 165.128 86.3838 165.358 86.5486 165.549C86.7135 165.739 86.9252 165.883 87.1627 165.967C87.6622 166.133 87.7455 166.083 90.9922 164.302C90.0999 165.084 89.3702 166.035 88.8444 167.099C88.6279 168.015 89.4604 168.548 90.5094 168.381C91.0996 168.226 91.6616 167.979 92.1744 167.648C91.8741 168.112 91.7143 168.653 91.7143 169.205C91.7143 169.758 91.8741 170.298 92.1744 170.762C93.8394 172.86 98.2017 166.25 100.499 164.618C101.432 165.8 102.697 168.564 104.712 167.832C106.46 167.182 104.545 163.336 104.712 162.221C105.389 161.57 106.113 160.969 106.876 160.422C108.161 161.375 109.629 162.05 111.189 162.404C113.936 162.404 142.607 133.466 144.788 131.152C144.006 138.511 140.06 170.096 140.892 176.24C141.275 179.02 147.952 179.42 150.766 179.57C149.917 199.55 149.35 229.82 149.201 230.136C144.788 239.643 143.59 242.24 142.108 245.121C139.41 250.282 128.055 269.33 126.773 273.659C126.59 274.342 126.573 274.608 127.289 275.873C125.144 278.129 123.152 280.527 121.329 283.05C120.413 284.715 124.342 300.232 127.123 305.727C127.755 306.959 128.788 308.857 130.17 308.807C134.332 308.657 134.316 293.706 134.199 289.526C134.198 289.398 134.151 289.273 134.066 289.177C134.82 288.051 135.643 286.972 136.53 285.947C137.059 286.311 137.616 286.634 138.195 286.912C138.761 287.162 139.394 286.729 139.86 286.346C145.404 281.984 175.308 244.721 181.718 227.139C184.632 219.114 188.511 208.025 189.61 200.166C190.282 195.197 190.343 190.165 189.793 185.181C189.793 185.11 189.821 185.042 189.871 184.993C189.921 184.943 189.989 184.915 190.06 184.915C190.13 184.915 190.198 184.943 190.248 184.993C190.298 185.042 190.326 185.11 190.326 185.181C191.16 190.193 191.322 195.294 190.809 200.349C189.577 211.255 180.969 233.982 176.373 242.34C180.336 241.608 188.395 240.009 192.291 238.844C205.278 234.898 217.266 223.126 218.315 209.906C218.654 203.678 218.654 197.436 218.315 191.208C218.202 182.61 217.085 174.055 214.985 165.717C218.515 163.802 221.745 161.555 222.794 159.49C225.041 155.078 219.097 129.686 217.799 122.56C224.908 123.343 237.013 124.758 242.657 120.346C249.117 115.151 263.07 100.532 271.079 89.2936ZM133.3 288.611C130.303 286.796 126.107 282.484 125.474 279.104C126.157 278.238 126.873 277.439 127.539 276.539C129.795 279.983 132.609 283.027 135.864 285.547C134.95 286.517 134.093 287.54 133.3 288.611ZM265.667 77.522C265.753 77.467 265.815 77.3812 265.84 77.2821C265.865 77.183 265.851 77.0782 265.801 76.9892C265.218 75.907 263.47 72.0941 264.685 71.6612C265.384 71.3948 266 71.8277 266.517 72.4104C267.305 73.4103 267.918 74.5362 268.331 75.7405C268.362 75.8384 268.419 75.926 268.496 75.9941C268.573 76.0622 268.667 76.1081 268.768 76.1269C268.868 76.1457 268.973 76.1367 269.069 76.1009C269.165 76.0651 269.25 76.0038 269.314 75.9236C270.979 74.0754 274.875 69.863 277.073 68.7308C278.738 67.865 279.137 69.4634 275.058 73.193C274.121 73.9074 273.221 74.6687 272.361 75.474C272.313 75.5394 272.288 75.6181 272.288 75.6988C272.288 75.7796 272.313 75.8582 272.361 75.9236C272.361 76.3565 272.71 76.8394 273.31 76.3898C274.757 75.1193 276.287 73.9457 277.888 72.8766C278.706 72.2958 279.656 71.9294 280.652 71.8111C280.153 73.3429 275.508 77.5053 275.108 77.9715C274.981 78.0852 274.904 78.244 274.893 78.4138C274.883 78.5836 274.939 78.7509 275.05 78.8797C275.161 79.0084 275.319 79.0883 275.488 79.1022C275.658 79.1161 275.826 79.0628 275.957 78.9539C277.805 77.7551 281.035 74.9579 282.151 75.3741C283.266 75.7904 279.953 78.8873 279.121 79.6199C274.342 83.7658 275.574 81.1017 270.046 86.7295C267.64 84.0936 264.877 81.8071 261.838 79.9362L265.667 77.522ZM193.323 157.159C193.04 154.861 192.69 152.38 192.258 149.8L192.973 148.851C196.303 144.572 197.302 137.762 196.986 132.417C198.768 140.226 200.183 147.902 201.265 155.527L193.323 157.159ZM168.565 100.149C164.186 96.8193 157.143 91.0751 153.047 87.1457L159.707 83.8157C165.822 89.528 171.057 96.1153 175.241 103.363C181.638 115.115 186.384 127.693 189.344 140.742L165.601 107.159L168.698 100.732C168.739 100.633 168.748 100.524 168.724 100.419C168.7 100.315 168.645 100.221 168.565 100.149ZM179.82 81.2682C179.92 81.4514 181.069 83.899 182.817 88.178C182.817 88.3612 182.501 92.5236 182.351 93.9888C180.226 93.1465 178.221 92.0268 176.39 90.6588C176.756 89.2103 178.405 82.6335 178.521 81.1517L179.82 81.2682ZM173.909 99.1504C174.026 98.8507 174.142 98.4511 174.276 97.9849L175.391 98.5676C176.024 98.9838 175.774 97.7185 176.34 101.381C176.34 101.998 176.507 102.68 176.54 103.429C175.774 102.047 174.825 100.566 173.926 99.1504H173.909ZM172.977 97.7518C169.831 93.2901 166.251 89.1518 162.288 85.3974L174.825 90.842C174.342 91.9909 173.643 95.504 172.993 97.7518H172.977ZM185.781 107.509C184.116 102.963 182.834 97.8849 182.201 96.5529C182.239 96.1375 182.239 95.7196 182.201 95.3042C182.442 95.3939 182.694 95.4499 182.95 95.4707C183.111 95.4725 183.267 95.4162 183.389 95.3122C183.511 95.2082 183.592 95.0634 183.616 94.9046C183.749 94.3551 183.966 91.5746 183.999 90.9586C188.843 103.187 192.886 115.718 196.104 128.471C186.696 108.458 188.145 114.252 185.797 107.509H185.781ZM199.55 139.294C195.754 121.095 189.077 98.4011 181.485 81.5846C184.273 81.5862 187.057 81.8088 189.81 82.2506C191.225 94.9046 190.043 94.4717 190.992 94.9712C191.941 95.4707 197.652 97.7684 198.501 98.118C198.418 99.4001 199.617 136.063 199.567 139.294H199.55ZM180.386 51.9309C181.254 53.8251 181.56 55.9285 181.269 57.9916C181.133 58.5166 180.854 58.9938 180.464 59.3699C180.073 59.746 179.586 60.0064 179.056 60.122C178.526 60.2377 177.975 60.204 177.463 60.0248C176.951 59.8456 176.499 59.5279 176.157 59.1071C175.363 57.4335 174.765 55.6736 174.375 53.8623C174.825 53.2796 179.62 52.1141 180.386 51.9309ZM157.476 68.5809C156.867 68.304 156.245 68.0595 155.611 67.8484C155.185 67.6734 154.805 67.4034 154.5 67.0589C154.195 66.7144 153.973 66.3046 153.851 65.861C153.729 65.4174 153.71 64.9517 153.796 64.4996C153.881 64.0475 154.069 63.6211 154.345 63.253C155.394 62.3705 156.343 62.4204 157.209 63.7358C157.759 64.7514 157.742 64.8347 157.992 64.9346C158.063 64.9662 158.141 64.9821 158.219 64.9812C158.298 64.9804 158.375 64.9628 158.446 64.9297C158.517 64.8966 158.58 64.8487 158.631 64.7893C158.682 64.7298 158.719 64.6601 158.741 64.5849C158.988 63.5428 159.027 62.4623 158.858 61.4048C158.658 60.256 158.625 55.161 158.658 54.9945C159.144 55.2509 159.691 55.3717 160.24 55.3442C163.253 55.2276 163.853 53.6792 165.051 52.4138C166.433 52.547 166.716 53.213 168.282 52.4138C169.014 51.9969 169.687 51.4815 170.28 50.882C170.758 51.0779 171.22 51.3118 171.661 51.5813C172.659 52.0612 173.785 52.2085 174.873 52.0018C175.96 51.795 176.953 51.245 177.705 50.4324C177.889 50.7821 178.055 51.1317 178.205 51.498C176.675 51.9728 175.234 52.6987 173.943 53.6459C173.659 53.9956 174.076 55.8936 174.176 56.3432C172.781 56.5187 171.431 56.9535 170.196 57.6252C169.947 56.7594 169.397 55.1444 168.531 54.6948C168.271 54.6151 167.993 54.6151 167.732 54.6948C166.234 54.9279 160.856 56.543 160.206 57.4254C159.64 58.0415 161.255 62.8034 161.755 63.5859C163.669 66.5496 169.281 65.6838 170.329 62.2206C170.589 61.0584 170.589 59.8531 170.329 58.6908C170.812 58.6908 172.261 58.1747 172.427 58.1248C173.576 60.7055 173.909 60.8554 175.241 63.6359C175.058 63.7858 174.758 64.0355 174.509 64.202C173.326 64.9846 173.077 64.8514 173.143 65.1844C173.163 65.2504 173.206 65.3072 173.264 65.344C173.322 65.3808 173.392 65.395 173.46 65.3841C174.158 65.2843 174.841 65.094 175.491 64.818C175.88 64.673 176.2 64.388 176.39 64.0188C176.856 62.9699 174.276 59.0238 173.26 57.8417C173.46 57.8417 173.926 57.5087 174.276 57.3255C174.742 59.1903 175.058 60.6555 176.856 61.3881C177.376 61.5844 177.93 61.6737 178.485 61.6508C179.04 61.6279 179.585 61.4933 180.086 61.2549C180.353 64.1853 180.303 68.9473 178.904 71.5447C178.188 72.8933 176.423 73.4095 175.291 74.525C174.958 74.8414 175.175 75.2909 175.291 75.7738C177.139 80.9186 177.173 80.902 177.073 81.568C176.583 84.3322 175.898 87.0585 175.025 89.7265C174.609 89.5433 169.93 87.0625 160.772 83.4994C160.489 81.6179 158.974 71.578 158.491 69.7298C158.525 69.0805 158.441 68.9306 157.476 68.4977V68.5809ZM169.131 61.7877C168.598 63.6026 166.084 64.3851 164.286 63.8856C162.487 63.3861 162.371 62.4704 161.522 60.3059C161.124 59.479 160.849 58.5983 160.706 57.6919C161.255 57.0925 167.266 55.8604 168.015 55.7438C169.066 57.5416 169.46 59.6484 169.131 61.7045V61.7877ZM103.979 161.754C103.347 162.37 104.196 164.385 104.329 166.133C104.329 166.283 104.329 166.933 104.229 166.982C103.313 167.282 102.464 165.9 101.948 165.068C101.432 164.235 100.916 163.103 100.1 163.403C98.4348 164.185 94.572 169.313 93.0568 169.846C92.2909 168.381 96.6699 164.202 96.8197 163.969C96.884 163.862 96.9176 163.739 96.9171 163.614C96.9165 163.49 96.8817 163.367 96.8165 163.261C96.7512 163.154 96.658 163.068 96.5471 163.011C96.4361 162.953 96.3116 162.928 96.187 162.937C95.8873 162.937 95.6875 163.203 95.2213 163.619C93.8033 165.003 92.1803 166.16 90.4095 167.049C92.015 165.207 93.7333 163.467 95.5543 161.838C95.6443 161.745 95.7076 161.63 95.7375 161.505C95.7375 161.505 95.3878 160.622 94.7052 160.972C93.7395 161.505 89.0442 164.219 87.5623 164.918C87.3625 164.785 87.4791 164.585 87.5623 164.385C89.91 161.505 95.0715 158.008 98.235 155.794C98.6063 155.411 98.9153 154.973 99.1507 154.495C101.342 156.533 103.679 158.409 106.144 160.106C105.384 160.604 104.661 161.155 103.979 161.754ZM142.724 176.889C142.357 176.656 142.091 176.44 142.041 176.14C141.125 169.347 146.22 130.852 146.137 129.337C146.137 129.248 146.119 129.16 146.085 129.078C146.05 128.996 146 128.922 145.936 128.86C145.873 128.798 145.797 128.749 145.714 128.717C145.632 128.684 145.543 128.669 145.454 128.671C144.605 128.671 146.104 128.671 124.892 148.984C123.493 150.299 112.804 160.522 111.022 161.205C108.575 161.022 99.3672 153.679 97.8687 151.365C100.766 145.504 135.897 97.2855 148.052 89.9096C148.984 89.3435 150.583 88.4611 152.331 87.5287C152.935 88.0988 153.587 88.6168 154.279 89.0771C158.142 92.7401 163.52 97.3022 167.599 100.732L164.419 107.042C164.371 107.126 164.345 107.221 164.345 107.317C164.345 107.414 164.371 107.508 164.419 107.592C190.243 144.638 189.86 144.222 190.026 144.222C191.682 152.783 192.711 161.452 193.107 170.163C193.107 172.51 193.107 172.31 193.207 172.144C193.306 171.977 193.207 172.261 193.207 172.261C189.177 176.656 149.301 180.752 142.724 176.889ZM234.765 121.728C227.223 122.777 218.698 121.212 217.049 121.145C216.133 116.706 214.308 112.506 211.688 108.807C211.648 108.753 211.589 108.717 211.523 108.704C211.457 108.692 211.389 108.705 211.332 108.741C211.275 108.776 211.234 108.832 211.217 108.897C211.199 108.962 211.207 109.031 211.239 109.09C212.204 111.055 215.434 119.53 216.234 121.595C215.984 122.394 223.759 154.545 221.562 158.874C219.597 162.787 208.158 167.715 204.029 169.13C203.213 159.861 201.879 150.645 200.033 141.525C200.599 136.729 199.867 108.225 199.65 97.6852C199.644 97.5627 199.603 97.4445 199.532 97.3443C199.461 97.2442 199.364 97.166 199.251 97.119L191.775 93.9722C191.741 90.0154 191.491 86.0635 191.025 82.134C209.69 85.3642 231.435 96.0368 233.25 96.0535C235.881 96.0535 255.428 81.0685 259.474 80.4691C261.272 80.186 268.997 86.9292 269.896 88.794C262.004 99.8164 248.135 114.302 241.708 119.313C239.638 120.698 237.247 121.529 234.765 121.728Z" fill="#084C28"/>
<path d="M167.415 58.458C167.396 58.3473 167.355 58.2416 167.294 58.147C167.234 58.0524 167.155 57.9708 167.063 57.9069C166.97 57.843 166.866 57.7981 166.756 57.7748C166.646 57.7515 166.533 57.7504 166.422 57.7713C166.312 57.7923 166.207 57.835 166.113 57.897C166.02 57.9589 165.939 58.0389 165.877 58.1322C165.814 58.2255 165.771 58.3304 165.749 58.4406C165.727 58.5508 165.728 58.6643 165.75 58.7743C166.083 60.4393 166.15 60.8223 166.883 60.8223C167.021 60.8228 167.158 60.7887 167.28 60.7232C167.402 60.6576 167.505 60.5627 167.581 60.447C167.657 60.3313 167.703 60.1984 167.715 60.0604C167.727 59.9224 167.704 59.7837 167.649 59.6568C167.599 59.3904 167.449 58.6078 167.415 58.458ZM172.51 69.4803C173.593 69.7966 174.625 69.2805 174.592 69.0141C174.558 68.7477 174.592 68.8809 173.126 68.3314C172.144 67.9651 171.062 66.6664 170.679 66.8662C170.296 67.066 170.879 68.1316 171.012 68.3314C171.368 68.8719 171.896 69.2766 172.51 69.4803ZM202.963 53.6628C200.782 62.8036 199.184 70.5625 198.917 72.111C198.74 72.7847 198.706 73.488 198.817 74.1756C199.7 76.057 211.105 79.77 212.554 79.0374C214.002 78.3048 217.765 69.8299 222.144 61.0887C224.827 61.1744 227.511 60.9791 230.153 60.5059C232.934 59.9956 235.642 59.1398 238.211 57.9585C243.839 55.3611 249.999 44.2389 250.832 38.6445C251.456 32.5706 250.17 26.4533 247.152 21.1453C233.183 -3.08041 192.207 9.95653 195.537 36.8629C196.488 43.0196 199.05 48.8154 202.963 53.6628ZM213.12 73.4929C213.12 73.7593 212.82 73.726 211.455 73.4929C208.662 73.142 205.958 72.2784 203.479 70.9455C202.314 70.3128 201.998 70.1796 202.114 69.8965C202.231 69.6135 202.48 69.7134 204.279 70.2129C204.445 70.2129 209.607 71.8779 211.088 72.394C213.003 73.2598 213.12 73.2598 213.12 73.4929ZM212.82 46.4034C214.598 46.4956 216.37 46.1286 217.965 45.3378C219.447 46.056 221.051 46.4908 222.693 46.6198C219.896 51.8313 214.219 62.454 212.387 68.115L205.328 66.1669C206.993 62.071 210.672 52.4806 212.787 46.4034H212.82ZM212.237 45.0214C210.994 44.8337 209.847 44.2434 208.972 43.3411C208.097 42.4389 207.542 41.2745 207.392 40.0264C206.926 36.6964 209.057 32.9668 212.271 33.8493C214.285 34.3987 214.535 35.9971 214.185 38.0118C213.886 39.477 212.803 43.1566 212.204 44.9548L212.237 45.0214ZM216.766 41.0254C216.944 39.9359 217.353 38.8971 217.965 37.9785C218.256 37.4777 218.682 37.0688 219.194 36.798C219.706 36.5272 220.284 36.4055 220.862 36.4467C222.094 36.813 222.627 39.144 221.611 40.6092C220.635 41.9045 219.42 43.001 218.031 43.8393C217.554 43.5589 217.173 43.139 216.941 42.636C216.709 42.1329 216.636 41.5709 216.733 41.0254H216.766ZM201.465 19.8633C208.924 10.8889 222.96 7.32584 233.1 11.0221C238.608 12.913 243.241 16.7415 246.137 21.7947C249.007 26.8456 250.235 32.6646 249.65 38.4447C248.884 43.6228 242.99 54.3787 237.812 56.7597C233.077 58.9192 227.912 59.9672 222.71 59.8233C222.144 59.8233 221.545 59.8233 221.328 60.2229C220.346 62.2209 218.548 66.0837 216.783 69.7134C215.564 69.1249 214.3 68.6349 213.003 68.2482C214.935 62.7204 221.028 51.8646 223.926 46.6032C226.436 46.8182 228.959 46.3824 231.252 45.3378C231.871 45.0117 232.385 44.5158 232.732 43.9081C233.079 43.3004 233.246 42.6063 233.213 41.9071C233.18 41.2079 232.948 40.5327 232.544 39.9607C232.141 39.3887 231.583 38.9437 230.935 38.6778C228.354 37.4124 226.04 40.4427 224.691 42.9901C224.325 43.6561 223.909 44.4387 223.443 45.3211C222.096 45.2326 220.768 44.9581 219.497 44.5053C220.763 43.6154 221.886 42.5374 222.827 41.3085C223.354 40.5124 223.621 39.5723 223.591 38.618C223.561 37.6637 223.236 36.7421 222.66 35.9805C222.208 35.4552 221.579 35.1129 220.893 35.0179C220.206 34.9229 219.509 35.0816 218.931 35.4643C217.765 36.1808 216.83 37.2186 216.239 38.4532C215.649 39.6877 215.427 41.0665 215.601 42.424C215.782 43.1903 216.194 43.8822 216.783 44.4054C215.691 44.8577 214.518 45.0843 213.336 45.0714C214.002 43.1067 215.084 39.5602 215.367 38.1117C215.545 37.2858 215.584 36.4363 215.484 35.5975C215.355 34.8775 215.021 34.21 214.522 33.6754C214.023 33.1408 213.38 32.7617 212.67 32.5839C208.624 31.435 205.644 35.9139 206.227 40.093C206.391 41.5907 207.034 42.9954 208.06 44.0991C209.085 45.2027 210.439 45.9465 211.921 46.2202C209.79 52.2142 206.46 61.8879 204.795 66.0171L201.132 65.068C203.479 53.2798 203.762 53.5629 203.429 53.413C199.646 48.5896 197.226 42.8399 196.42 36.763C196.027 33.7498 196.274 30.6877 197.143 27.776C198.012 24.8643 199.485 22.1683 201.465 19.8633ZM224.575 45.421C225.74 43.3065 228.071 38.6778 230.336 39.81C230.789 39.9925 231.183 40.2952 231.477 40.6854C231.77 41.0757 231.951 41.5387 232.001 42.0244C231.968 44.9548 227.405 45.471 224.508 45.421H224.575ZM288.311 52.7637C290.318 51.5837 292.687 51.1808 294.971 51.6315C297.48 51.6764 299.876 52.6794 301.669 54.4348C303.461 56.1902 304.514 58.565 304.611 61.072C303.103 60.1968 301.339 59.8675 299.616 60.1396C295.437 60.5059 289.976 62.7703 290.709 66.7996C291.308 70.1296 295.704 69.6801 299.034 68.781C302.364 67.8819 305.011 66.2502 305.694 63.0367C309.74 65.9838 310.689 71.1453 310.855 76.1902C310.855 76.2609 310.883 76.3287 310.933 76.3786C310.983 76.4286 311.051 76.4566 311.122 76.4566C311.192 76.4566 311.26 76.4286 311.31 76.3786C311.36 76.3287 311.388 76.2609 311.388 76.1902C311.505 70.5459 310.489 65.0181 305.877 61.8046C305.924 60.3591 305.678 58.9189 305.153 57.5713C304.627 56.2237 303.834 54.9967 302.82 53.9647C301.807 52.9327 300.595 52.117 299.257 51.5672C297.919 51.0173 296.484 50.7446 295.038 50.7657C292.726 50.4282 290.37 50.9113 288.378 52.131C287.762 52.4307 288.045 52.8802 288.311 52.7637ZM303.496 64.7017C301.614 67.1659 296.286 68.448 293.822 68.0317C292.907 67.8819 292.157 67.4989 291.957 66.5499C291.358 63.2199 297.102 61.405 300.532 61.2885C301.929 61.1814 303.322 61.5385 304.495 62.3041C304.369 63.1747 304.025 63.9993 303.496 64.7017ZM280.685 33.2998C282.467 31.102 281.268 27.2725 276.29 27.2559C274.358 27.2559 273.426 29.2206 273.559 31.102C273.859 35.5809 278.904 35.4477 280.685 33.2998ZM274.725 31.0188C274.725 29.9199 275.241 28.488 276.39 28.5046C279.07 28.5046 280.302 29.7534 280.302 31.1353C280.236 34.2822 274.508 35.9139 274.725 31.0188ZM274.042 219.78C259.407 213.936 252.614 242.224 240.659 266.533C240.583 267.555 240.617 268.582 240.759 269.597C240.759 272.144 241.042 289.011 242.524 290.925C242.923 291.691 244.605 290.925 245.387 290.442C252.034 286.328 258.297 281.625 264.102 276.39C264.152 276.333 264.189 276.267 264.212 276.196C264.235 276.124 264.243 276.048 264.235 275.974C267.332 271.561 278.937 248.584 281.751 237.063C283.716 228.904 281.768 222.827 274.042 219.78ZM279.27 240.925C271.435 239.921 263.86 237.447 256.943 233.633C260.839 226.257 265.65 217.848 273.593 221.012C282.434 224.525 282.251 231.801 279.27 240.875V240.925ZM251.565 284.215C251.053 283.787 250.495 283.418 249.9 283.116C247.65 281.973 245.05 281.723 242.624 282.417C242.457 280.436 241.508 267.549 241.508 267.432C253.979 271.994 250.133 270.013 262.487 276.157C261.188 277.389 256.31 280.802 251.565 284.182V284.215ZM260.156 236.03C261.78 236.917 263.447 237.723 265.151 238.444C261.335 244.439 257.962 250.705 255.061 257.192C252.264 263.037 252.364 263.003 249.517 269.38C247.852 268.847 246.187 268.348 244.522 267.848C246.32 264.269 259.107 238.095 260.156 235.997V236.03ZM250.166 269.547C255.577 259.84 261.088 247.768 265.817 238.661C267.482 239.36 269.147 239.926 270.812 240.426C269.93 242.091 267.349 246.52 266.666 247.802C265.983 249.084 259.14 262.57 258.657 263.603C257.892 265.268 255.794 269.913 255.144 271.395C253.446 270.646 251.814 270.079 250.099 269.513L250.166 269.547ZM255.744 271.611C256.759 269.763 260.939 262.004 261.455 261.005C262.237 259.457 270.962 241.625 271.445 240.592C272.976 241.025 274.592 241.392 275.624 241.591C272.577 249.916 263.802 265.95 260.639 273.859C257.758 272.51 257.109 272.177 255.677 271.578L255.744 271.611ZM256.759 234.115L259.74 235.78C253.734 246.009 248.502 256.672 244.089 267.682L241.591 266.916C251.265 246.303 251.714 243.606 256.693 234.082L256.759 234.115ZM263.619 275.308L261.105 274.109C263.819 268.781 272.31 255.111 276.19 241.708C277.122 241.874 278.038 242.024 278.921 242.141C274.642 253.557 269.505 264.634 263.553 275.274L263.619 275.308ZM211.455 286.113C212.118 285.564 212.593 284.82 212.811 283.987C213.029 283.153 212.98 282.272 212.67 281.468C212.529 280.308 211.997 279.231 211.162 278.413C210.326 277.596 209.238 277.087 208.075 276.971C206.912 276.854 205.744 277.137 204.764 277.773C203.783 278.409 203.048 279.36 202.68 280.469C200.549 279.087 198.235 277.622 196.02 276.223C197.685 274.009 202.58 274.991 203.08 276.806C203.092 276.875 203.132 276.937 203.189 276.977C203.246 277.018 203.317 277.035 203.387 277.024C203.456 277.013 203.519 276.975 203.561 276.919C203.603 276.863 203.622 276.793 203.613 276.723C203.363 273.826 197.336 272.127 194.905 275.541C192.757 274.225 190.093 272.627 187.862 271.411C189.776 269.746 194.055 270.679 194.522 272.41C194.544 272.47 194.586 272.519 194.641 272.55C194.696 272.581 194.76 272.592 194.822 272.58C194.884 272.568 194.94 272.534 194.979 272.485C195.019 272.435 195.04 272.374 195.038 272.311C194.821 269.613 189.244 267.798 186.713 270.762C185.652 270.168 184.537 269.677 183.383 269.297C183.172 269.209 182.94 269.185 182.716 269.226C182.491 269.268 182.283 269.373 182.117 269.53C177.905 274.775 163.703 288.394 157.142 289.976C156.978 290.001 156.822 290.069 156.692 290.173C156.561 290.277 156.461 290.414 156.4 290.569C156.339 290.724 156.32 290.893 156.346 291.058C156.371 291.223 156.439 291.378 156.543 291.508C157.984 292.97 159.633 294.21 161.438 295.188C159.773 296.853 158.474 298.351 157.509 299.433C157.009 299.966 156.743 310.156 157.176 312.404C157.24 312.624 157.382 312.813 157.575 312.937C159.673 314.368 186.696 326.057 189.46 324.492C191.308 323.443 213.369 300.482 213.719 299.783C214.252 298.684 214.069 291.358 214.035 288.428C213.902 287.545 212.254 286.596 211.455 286.113ZM158.175 308.108V304.395C165.084 307.725 180.902 314.518 186.896 316.416C188.428 316.916 188.561 316.849 189.36 316.416C193.939 313.486 210.106 295.271 213.07 292.49V296.004C204.079 305.011 188.811 320.795 188.528 319.896C186.879 319.796 159.607 308.774 158.175 308.108ZM211.038 280.502C211.637 281.511 211.959 282.66 211.971 283.832C211.965 284.206 211.873 284.572 211.703 284.904C211.533 285.236 211.288 285.525 210.989 285.747C209.59 284.815 206.943 283.083 203.812 281.052C205.527 277.672 209.34 277.622 210.972 280.502H211.038ZM157.758 291.158C164.851 289.06 178.321 276.073 182.85 270.446C183.94 270.749 184.991 271.179 185.98 271.728C184.315 274.825 186.097 278.221 186.729 277.738C187.079 277.472 186.446 277.372 186.347 275.74C186.304 274.549 186.574 273.366 187.129 272.311C189.427 273.509 192.124 275.074 194.405 276.39C193.007 279.503 194.688 282.584 195.271 282.134C195.854 281.685 195.005 281.784 194.905 280.153C194.864 279.083 195.069 278.018 195.504 277.039C197.852 278.421 200.249 279.853 202.447 281.202C202.108 282.031 201.974 282.93 202.055 283.823C202.136 284.715 202.431 285.575 202.913 286.33C202.957 286.387 203.023 286.425 203.094 286.434C203.166 286.444 203.239 286.424 203.296 286.38C203.354 286.336 203.391 286.271 203.401 286.199C203.41 286.127 203.39 286.054 203.346 285.997C203.047 285.335 202.899 284.615 202.914 283.89C202.928 283.164 203.104 282.45 203.429 281.801C207.309 284.165 210.439 286.147 211.405 286.796C211.222 286.963 193.856 302.414 187.945 307.009C184.065 305.994 163.703 295.887 157.758 291.158ZM158.391 300.432C165.934 303.762 183.066 311.488 187.013 312.237C187.695 312.37 187.962 312.42 189.26 311.388C194.805 306.943 212.837 288.078 213.003 288.278C213.011 288.328 213.011 288.378 213.003 288.428V291.758C209.29 294.738 188.644 316.416 188.311 315.384C186.646 315.384 159.59 304.345 158.208 303.729C158.175 303.03 158.325 301.165 158.391 300.432ZM188.711 323.376C187.046 324.325 161.688 314.019 158.291 311.921C158.164 310.86 158.103 309.793 158.108 308.724C165.401 312.321 186.613 321.278 188.561 321.195C191.408 321.045 211.538 298.384 212.97 296.803C212.986 297.653 212.903 298.503 212.72 299.334C212.437 299.883 189.81 322.76 188.711 323.376ZM50.7656 229.52C50.8821 231.302 50.9654 232.85 50.9654 234.299C50.9654 234.519 51.0531 234.731 51.2092 234.887C51.3653 235.043 51.5771 235.131 51.7979 235.131C52.0187 235.131 52.2304 235.043 52.3865 234.887C52.5427 234.731 52.6304 234.519 52.6304 234.299C52.6304 232.75 52.5471 231.218 52.4306 229.404C52.4151 229.183 52.3126 228.977 52.1455 228.832C51.9785 228.687 51.7606 228.614 51.5398 228.629C51.319 228.645 51.1134 228.747 50.9682 228.914C50.823 229.081 50.7501 229.299 50.7656 229.52ZM304.462 196.137C304.353 196.143 304.247 196.171 304.149 196.219C304.051 196.267 303.964 196.334 303.893 196.417C303.821 196.499 303.767 196.594 303.733 196.698C303.699 196.802 303.687 196.911 303.696 197.019C303.796 198.551 303.896 200.199 303.896 201.798C303.896 202.019 303.983 202.23 304.139 202.386C304.295 202.543 304.507 202.63 304.728 202.63C304.949 202.63 305.161 202.543 305.317 202.386C305.473 202.23 305.561 202.019 305.561 201.798C305.561 200.133 305.461 198.468 305.344 196.903C305.338 196.794 305.31 196.688 305.262 196.59C305.214 196.492 305.147 196.405 305.064 196.334C304.982 196.262 304.886 196.208 304.783 196.174C304.679 196.141 304.57 196.128 304.462 196.137ZM46.4532 225.374C46.674 225.374 46.8858 225.287 47.0419 225.13C47.198 224.974 47.2857 224.763 47.2857 224.542C47.2857 224.321 47.198 224.109 47.0419 223.953C46.8858 223.797 46.674 223.709 46.4532 223.709C44.4386 223.709 42.7569 223.859 41.0919 223.826C40.8696 223.826 40.6561 223.913 40.4973 224.069C40.3385 224.224 40.2471 224.436 40.2428 224.658C40.2428 224.879 40.3305 225.091 40.4866 225.247C40.6427 225.403 40.8545 225.491 41.0753 225.491C42.7902 225.524 44.6717 225.457 46.4532 225.374ZM299.3 191.208C297.302 191.208 295.62 191.325 293.939 191.342C293.718 191.342 293.506 191.429 293.35 191.585C293.194 191.742 293.106 191.953 293.106 192.174C293.106 192.395 293.194 192.607 293.35 192.763C293.506 192.919 293.718 193.007 293.939 193.007C295.737 193.007 297.602 193.007 299.4 192.873C299.618 192.856 299.82 192.754 299.963 192.589C300.106 192.424 300.179 192.21 300.166 191.992C300.153 191.774 300.055 191.57 299.893 191.423C299.731 191.277 299.518 191.2 299.3 191.208ZM50.316 215.085C50.4159 216.616 50.5158 218.265 50.5158 219.863C50.5201 220.083 50.6092 220.292 50.7644 220.447C50.9196 220.602 51.1289 220.691 51.3483 220.696C51.5691 220.696 51.7809 220.608 51.937 220.452C52.0931 220.296 52.1808 220.084 52.1808 219.863C52.1808 218.198 52.0809 216.533 51.981 214.968C51.9656 214.747 51.863 214.542 51.696 214.396C51.5289 214.251 51.311 214.178 51.0903 214.194C50.8695 214.209 50.6638 214.312 50.5187 214.479C50.3735 214.646 50.3006 214.864 50.316 215.085ZM305.111 187.362C305.111 185.697 305.011 184.032 304.895 182.467C304.879 182.246 304.777 182.041 304.609 181.896C304.442 181.75 304.225 181.678 304.004 181.693C303.783 181.708 303.577 181.811 303.432 181.978C303.287 182.145 303.214 182.363 303.23 182.584C303.329 184.116 303.429 185.764 303.429 187.362C303.429 187.583 303.517 187.795 303.673 187.951C303.829 188.107 304.041 188.195 304.262 188.195C304.484 188.195 304.698 188.108 304.856 187.952C305.015 187.796 305.107 187.585 305.111 187.362ZM62.6037 225.158C62.7131 225.153 62.8205 225.128 62.9199 225.082C63.0193 225.036 63.1086 224.971 63.1828 224.891C63.2571 224.81 63.3147 224.716 63.3525 224.613C63.3902 224.51 63.4074 224.401 63.4029 224.292C63.3861 224.074 63.2875 223.871 63.1269 223.722C62.9664 223.574 62.7557 223.492 62.5371 223.493C60.5225 223.576 58.8408 223.643 57.1592 223.609C56.9384 223.609 56.7266 223.697 56.5705 223.853C56.4144 224.009 56.3267 224.221 56.3267 224.442C56.3267 224.663 56.4144 224.874 56.5705 225.031C56.7266 225.187 56.9384 225.274 57.1592 225.274C58.9407 225.308 60.8055 225.241 62.6037 225.158ZM315.451 190.992C313.786 191.075 311.937 191.125 310.089 191.125C309.979 191.121 309.87 191.138 309.767 191.177C309.664 191.216 309.57 191.276 309.491 191.352C309.411 191.428 309.348 191.52 309.305 191.621C309.262 191.722 309.24 191.831 309.24 191.941C309.24 192.163 309.327 192.377 309.483 192.536C309.639 192.694 309.85 192.786 310.073 192.79C311.971 192.79 313.503 192.79 315.517 192.657C315.627 192.653 315.734 192.627 315.833 192.581C315.933 192.535 316.022 192.47 316.096 192.39C316.171 192.309 316.228 192.215 316.266 192.112C316.304 192.01 316.321 191.901 316.316 191.791C316.296 191.575 316.196 191.373 316.036 191.226C315.877 191.078 315.668 190.995 315.451 190.992ZM24.342 175.824C24.5585 175.99 71.5115 169.031 73.5261 167.799C73.6377 167.717 73.7268 167.609 73.785 167.484C73.8432 167.358 73.8687 167.22 73.8591 167.083C73.8591 164.935 71.0453 144.772 69.6966 139.743C69.5301 139.127 69.3636 138.511 68.9807 138.295C66.4332 136.763 21.5448 145.221 18.8642 146.953C18.7915 146.996 18.7288 147.053 18.68 147.122C18.6312 147.191 18.5975 147.27 18.5811 147.352C18.015 149.367 22.8935 174.825 24.342 175.824ZM19.5968 147.752C22.7936 146.303 63.5361 138.844 68.1981 139.427C69.3303 142.341 72.3606 163.686 72.5604 166.816C70.2461 167.499 24.9747 175.274 24.8082 175.308C24.6417 175.341 24.6251 175.541 24.2754 174.492C22.8102 170.096 19.5135 151.515 19.5968 147.752Z" fill="#084C28"/>
<path d="M77.1892 169.28C77.2798 169.112 77.3202 168.922 77.3057 168.731C77.3057 166.084 73.5095 136.696 72.1609 134.349C72.0552 134.176 71.9055 134.034 71.7271 133.937C71.5487 133.841 71.348 133.793 71.1452 133.799C65.5675 133.117 18.5146 142.307 15.4177 144.455C14.9848 144.755 15.0514 145.504 15.1013 146.303C15.3677 150.682 20.0963 179.487 21.7613 179.32C21.9445 179.32 21.8779 179.187 21.445 180.07C18.8476 185.414 13.9192 202.531 14.0191 205.977C14.0191 207.426 14.3521 209.307 15.784 209.207C26.057 207.942 76.4233 199.95 90.9088 196.969C91.4749 196.853 91.8412 196.337 91.8245 195.488C91.6536 194.073 91.2247 192.702 90.5591 191.442C88.5278 187.629 80.1029 172.527 77.1892 169.28ZM21.8612 178.804C20.5625 177.139 15.784 148.451 16.1503 145.271C19.8133 143.373 66.2335 134.399 71.0953 135.131C72.4273 138.794 75.8738 165.251 76.0903 168.431C70.1962 170.463 29.387 177.056 21.8612 178.804ZM22.5938 179.304C23.9924 178.954 71.6281 170.979 75.9904 169.83C78.3713 172.044 89.1272 191.175 89.8265 192.807C80.2694 194.472 23.5762 203.946 15.2345 205.211C15.3511 200.166 20.5292 182.534 22.5938 179.304Z" fill="#084C28"/>
<path d="M28.854 196.57C30.3026 196.353 61.0385 192.657 72.144 189.643C72.2125 189.626 72.2711 189.581 72.307 189.521C72.3429 189.46 72.3532 189.387 72.3355 189.319C72.3179 189.25 72.2737 189.191 72.2128 189.156C72.1519 189.12 72.0793 189.109 72.0108 189.127C69.8297 189.577 43.223 193.123 28.8207 196.053C28.781 196.046 28.7401 196.048 28.7012 196.059C28.6622 196.07 28.6264 196.09 28.5962 196.117C28.566 196.144 28.5424 196.177 28.5271 196.215C28.5117 196.252 28.5051 196.292 28.5077 196.333C28.5103 196.373 28.5221 196.412 28.5421 196.448C28.5621 196.483 28.5898 196.513 28.6232 196.536C28.6566 196.558 28.6947 196.573 28.7347 196.579C28.7747 196.585 28.8155 196.582 28.854 196.57ZM51.3149 80.7189C50.6929 82.1237 50.1699 83.5702 49.7498 85.0479C49.725 85.285 49.7904 85.5228 49.9329 85.7139C51.6146 88.2447 68.8473 107.675 73.3428 110.406C73.9589 110.789 74.6915 111.055 75.141 110.506C78.4067 106.442 82.6686 103.293 87.512 101.365C91.4541 99.9702 95.5871 99.1896 99.7664 99.0506C103.096 98.7509 103.679 98.4179 104.961 96.2367C106.474 93.3663 108.48 90.7849 110.889 88.611C113.96 85.9257 117.369 83.6532 121.028 81.8511C121.193 81.7578 121.322 81.612 121.394 81.437C121.467 81.2621 121.479 81.0679 121.428 80.8854C120.865 79.4532 120.121 78.099 119.214 76.8561C119.813 76.6563 120.479 76.4732 120.479 75.8738C120.479 74.2088 105.96 53.1965 101.931 49.2338C101.515 48.8175 100.915 48.2681 100.366 48.3014C92.0408 48.7676 83.9322 56.6264 79.2369 63.4862C73.859 63.2864 70.3791 62.8035 64.2519 65.3843C59.9264 67.2204 56.0266 69.9298 52.7967 73.343C52.2972 73.8591 48.9006 77.4555 48.8507 77.7386C48.8007 78.0216 48.9006 78.0216 51.3149 80.7189ZM117.915 80.2527C110.972 81.4349 106.543 87.2124 103.28 93.4895C101.831 96.2867 101.964 96.4199 100.432 96.3866C97.7538 96.2349 95.0669 96.3352 92.4071 96.6863C90.4562 96.9779 88.5381 97.4574 86.6795 98.1182C82.4504 99.6167 77.6052 104.412 75.0245 107.975C74.9697 108.048 74.9 108.109 74.82 108.154C74.74 108.198 74.6515 108.225 74.5603 108.233C74.4691 108.241 74.3773 108.229 74.2909 108.199C74.2044 108.169 74.1253 108.121 74.0588 108.058C68.6475 102.48 59.0738 92.6903 54.2619 87.0626C54.0288 86.8128 54.4284 86.4465 54.6615 86.7129C57.7751 90.0429 65.817 98.0183 74.4417 106.693C77.3555 102.98 81.851 98.4845 86.2965 96.9194C88.7207 96.0547 91.2432 95.4954 93.8057 95.2544C96.2054 95.0721 98.6154 95.0721 101.015 95.2544C101.997 94.1222 106.859 81.2684 117.882 79.8365C117.914 79.8602 117.94 79.8908 117.959 79.9261C117.978 79.9615 117.989 80.0006 117.99 80.0406C117.992 80.0806 117.984 80.1204 117.968 80.1571C117.952 80.1939 117.929 80.2265 117.898 80.2527H117.915ZM100.349 49.65C103.679 51.981 117.232 72.0443 118.997 75.5574C115.935 76.5278 112.978 77.8052 110.173 79.3703C107.516 80.7021 105.19 82.6098 103.364 84.9544C101.537 87.299 100.257 90.0214 99.6165 92.9234C93.6392 83.1998 85.2975 72.4938 79.7531 64.6184C80.0861 64.4019 89.4434 50.2994 100.349 49.65ZM64.6182 66.3C70.6955 63.8525 74.0588 64.4186 79.0871 64.635C84.0821 73.1598 93.0564 85.1811 98.9672 93.0566C93.5118 91.7657 87.771 92.5552 82.8666 95.271C79.9196 96.936 76.3232 100.932 74.1087 103.413C70.9119 100.849 52.4637 81.2018 49.5 77.8718C54.0621 72.7103 58.2746 68.8308 64.6182 66.2334V66.3ZM34.1487 108.641C33.7372 108.352 33.2507 108.189 32.7483 108.171C32.2459 108.154 31.7491 108.282 31.3182 108.541C31.0045 108.681 30.7213 108.881 30.485 109.131C30.2487 109.38 30.0638 109.674 29.9409 109.994C29.818 110.315 29.7594 110.657 29.7686 111.001C29.7779 111.344 29.8546 111.682 29.9946 111.996C30.1345 112.31 30.3349 112.593 30.5842 112.829C30.8336 113.066 31.127 113.25 31.4479 113.373C31.7687 113.496 32.1106 113.555 32.454 113.546C32.7974 113.536 33.1357 113.46 33.4494 113.32C33.9507 113.21 34.4068 112.951 34.7572 112.576C35.1077 112.201 35.336 111.729 35.4118 111.221C35.4877 110.714 35.4075 110.195 35.1819 109.735C34.9563 109.274 34.596 108.892 34.1487 108.641ZM33.0498 111.971C31.8843 112.337 31.185 111.971 30.902 111.405C30.3692 110.223 31.0352 108.408 32.7668 108.941C33.9822 109.39 34.9646 111.438 33.0498 112.054V111.971ZM118.814 32.4506C119.297 33.4329 121.545 33.0666 122.527 32.7503C123.043 32.5838 123.376 32.4006 123.426 31.9011C123.576 30.6524 123.742 19.8299 123.176 18.7809C123.118 18.6709 123.028 18.5807 122.919 18.5214C122.809 18.4622 122.684 18.4366 122.56 18.4479C120.784 18.443 119.016 18.7011 117.315 19.2138C116.633 19.6301 118.215 31.3517 118.814 32.4506ZM117.665 19.6134C119.203 19.3934 120.759 19.3209 122.31 19.397C122.41 20.6291 122.144 31.3017 122.127 31.4682C121.424 31.7203 120.673 31.8113 119.93 31.7346C119.813 31.3517 119.613 30.3194 119.363 29.0207C118.63 25.9175 118.063 22.7772 117.665 19.6134ZM32.5337 94.5884C32.6934 94.6702 32.8704 94.7129 33.0498 94.7129C33.2293 94.7129 33.4062 94.6702 33.566 94.5884C34.2092 94.1916 34.7194 93.6119 35.0312 92.9234C35.0735 92.8132 35.0866 92.6939 35.0691 92.5772C35.0516 92.4605 35.0041 92.3503 34.9313 92.2574C34.1321 91.3083 25.4075 81.2018 24.3419 81.8345C23.0336 82.6815 21.7923 83.6278 20.6289 84.665C20.5821 84.7069 20.5445 84.7582 20.5187 84.8156C20.4929 84.8729 20.4794 84.9351 20.4791 84.998C20.4458 85.8638 30.1361 93.6227 32.5337 94.5884ZM24.5417 82.2674C25.7571 83.1498 29.853 88.2114 33.6492 92.6903C33.4859 92.9474 33.2837 93.1777 33.0498 93.3729C29.0586 90.8184 25.2479 87.9924 21.6446 84.9147C22.5479 83.9663 23.5159 83.0817 24.5417 82.2674ZM50.6988 45.5375C51.0651 39.0773 54.828 36.0803 58.7574 35.3144C57.6419 39.4103 57.825 44.7383 61.871 45.4209C63.8024 45.7373 64.7514 44.7383 66.15 43.5728C72.1274 38.5778 67.2989 33.5828 60.5556 33.9324C63.0698 27.0393 68.8806 21.4283 76.5896 21.2451C76.6602 21.2451 76.728 21.2171 76.778 21.1671C76.8279 21.1171 76.856 21.0494 76.856 20.9787C76.856 20.9081 76.8279 20.8403 76.778 20.7904C76.728 20.7404 76.6602 20.7123 76.5896 20.7123C68.2646 20.5458 61.7211 26.5398 59.1404 34.0323C54.6948 34.7982 50.2826 38.1282 50.166 45.4376C50.1574 45.4734 50.1562 45.5105 50.1624 45.5468C50.1686 45.5831 50.1821 45.6177 50.2021 45.6486C50.2221 45.6795 50.2482 45.706 50.2787 45.7265C50.3093 45.747 50.3437 45.7611 50.3799 45.7679C50.416 45.7747 50.4532 45.774 50.4891 45.766C50.5251 45.7579 50.559 45.7427 50.5888 45.7211C50.6186 45.6996 50.6438 45.6722 50.6627 45.6406C50.6816 45.609 50.6939 45.5739 50.6988 45.5375ZM60.1727 35.1146C62.6535 34.9481 66.3498 35.714 67.3655 37.9617C67.9482 39.2438 67.3655 40.8255 65.3009 42.5571C64.7404 43.1187 64.1009 43.5954 63.4028 43.9724C60.9053 45.038 58.1414 41.9577 60.1727 35.1146ZM64.9346 270.596C63.326 270.165 61.6474 270.06 59.9977 270.287C58.348 270.515 56.7605 271.07 55.3285 271.92C53.8965 272.77 52.6491 273.898 51.6596 275.238C50.6701 276.577 49.9585 278.101 49.5666 279.72C48.827 283.082 49.4534 286.601 51.3082 289.502C53.1629 292.403 56.0941 294.448 59.4567 295.188C62.8194 295.927 66.3382 295.301 69.239 293.446C72.1398 291.591 74.1849 288.66 74.9246 285.297C75.2405 283.676 75.2324 282.007 74.9005 280.389C74.5686 278.77 73.9197 277.233 72.991 275.866C72.0623 274.5 70.8723 273.33 69.4896 272.426C68.1069 271.521 66.5588 270.899 64.9346 270.596ZM70.0794 284.165C69.4114 286.83 67.812 289.167 65.5706 290.755C63.3292 292.343 60.5935 293.077 57.8583 292.823C55.3475 291.842 53.2631 290.007 51.9718 287.641C50.6805 285.274 50.2652 282.529 50.7987 279.886C51.4218 277.157 53.0062 274.743 55.2625 273.086C57.5187 271.429 60.2959 270.64 63.0864 270.862C65.6221 271.91 67.7069 273.818 68.9738 276.251C70.2408 278.685 70.6087 281.487 70.0128 284.165H70.0794Z" fill="#084C28"/>
<path d="M87.1125 275.341C85.6631 274.841 84.1096 274.72 82.6004 274.991C81.9749 273.557 81.205 272.19 80.3027 270.912C81.3849 269.93 84.3486 267.199 83.6327 265.917C81.0847 262.869 78.0596 260.254 74.675 258.175C73.2617 257.383 71.7054 256.879 70.0962 256.693C69.0306 256.843 66.4998 260.989 65.9337 261.921C65.5674 261.921 64.2687 261.505 64.1688 261.455C64.1688 260.256 63.8192 255.927 62.7369 255.427C61.5267 254.982 60.27 254.675 58.9907 254.512C57.8085 254.329 47.1692 256.277 46.3866 257.708C45.8705 258.674 47.0693 262.32 47.4189 263.336C46.521 263.83 45.6586 264.387 44.8382 265.001C43.1732 266.183 43.6227 266.133 43.323 266C42.9608 265.827 42.5727 265.715 42.1742 265.667C40.8441 264.887 39.2847 264.593 37.7619 264.835C36.2301 265.334 32.6171 273.559 32.0343 275.674C31.8436 276.207 31.792 276.78 31.8845 277.339C32.2841 278.438 34.9481 279.32 36.0636 279.67C35.7556 281.812 35.7556 283.988 36.0636 286.13C34.5984 286.53 31.5515 287.429 31.718 288.927C31.8845 290.426 35.7806 300.316 37.3956 301.098C38.2804 301.593 39.2587 301.898 40.268 301.992C41.2773 302.087 42.2952 301.97 43.2564 301.648C43.7978 301.378 44.3207 301.072 44.8215 300.732C45.4875 301.232 46.1868 301.681 46.9028 302.114C46.3866 303.396 45.2378 306.26 45.6041 307.559C45.7872 308.241 46.3367 308.458 47.1026 308.741C49.2171 309.507 60.6057 312.237 62.3373 311.938C62.9867 311.838 63.3363 311.155 63.5361 310.506C63.9061 309.028 64.1237 307.516 64.1855 305.993C65.0406 305.909 65.8908 305.781 66.7329 305.611C67.2472 306.515 67.9051 307.331 68.681 308.025C69.5301 308.624 70.2461 308.324 71.2118 307.708C71.678 308.308 72.3773 309.14 73.1265 309.224C75.008 309.44 82.7835 302.114 83.5827 300.615C84.2487 299.367 81.8178 297.136 80.7356 296.153C81.9063 294.392 82.8254 292.475 83.4662 290.459C84.6671 290.64 85.8824 290.707 87.0959 290.659C87.6453 290.659 88.278 290.459 88.5111 289.943C89.5268 287.629 89.2271 278.854 88.5111 276.623C88.4112 275.974 87.662 275.541 87.1125 275.341ZM87.5121 276.873C88.0782 279.037 88.2614 287.212 87.4289 289.327C85.9893 289.469 84.5368 289.401 83.1165 289.127C82.9649 289.101 82.809 289.133 82.6796 289.216C82.5502 289.299 82.4566 289.428 82.4172 289.577C81.7542 291.828 80.7247 293.954 79.3703 295.87C79.2738 295.997 79.2303 296.157 79.2489 296.315C79.2676 296.473 79.3469 296.618 79.4702 296.719C80.6384 297.645 81.6309 298.773 82.4006 300.049C81.5681 301.415 75.0579 307.375 73.2597 307.875C72.9933 307.875 72.2607 306.876 72.0776 306.609C71.4625 305.685 70.9064 304.723 70.4126 303.729C70.3405 303.584 70.2169 303.471 70.0659 303.413C69.915 303.354 69.7477 303.354 69.5967 303.413C64.7682 305.228 62.9367 304.162 62.9367 305.361C62.9389 307.156 62.6464 308.939 62.0709 310.639C58.1581 310.213 54.3048 309.353 50.5824 308.075C50.7622 306.297 51.2584 304.566 52.0476 302.963C52.5471 301.848 50.5491 302.164 46.8195 298.368C46.6995 298.257 46.5419 298.195 46.3783 298.195C46.2147 298.195 46.0571 298.257 45.9371 298.368C44.2721 299.733 42.1076 301.065 41.6747 300.849C40.8255 300.432 36.9128 291.558 36.6797 289.76C37.8639 288.935 39.2083 288.367 40.6257 288.095C40.7769 288.052 40.9074 287.956 40.9932 287.824C41.0789 287.693 41.114 287.534 41.0919 287.379C40.6839 285.021 40.6839 282.61 41.0919 280.253C41.1174 280.107 41.0869 279.958 41.0065 279.834C40.9262 279.711 40.802 279.622 40.659 279.587C39.4038 279.258 38.1954 278.771 37.0626 278.138C36.6963 277.872 36.7296 277.888 36.7629 277.605C37.8406 273.718 39.5689 270.042 41.8745 266.733C42.7736 266.483 45.2045 268.265 46.037 268.897C46.124 268.982 46.2404 269.029 46.3617 269.029C46.4829 269.029 46.5993 268.982 46.6863 268.897C47.4514 268.104 48.2751 267.369 49.1505 266.699C51.6813 264.785 52.364 265.034 52.1475 264.368C51.3821 262.698 50.9522 260.893 50.8821 259.057C51.1402 258.843 51.433 258.674 51.7479 258.558C53.3024 257.943 54.8994 257.442 56.5265 257.059C58.4987 256.509 60.5257 256.18 62.5704 256.077C62.9201 256.227 63.2364 257.742 63.3197 258.208C63.9357 261.538 63.5195 262.221 64.0023 262.271C68.7476 262.737 69.7133 264.052 70.0463 263.469C70.9696 261.855 72.0457 260.333 73.2597 258.924C73.6094 258.574 73.5927 258.408 74.6417 259.007C77.7754 261.055 80.582 263.564 82.9667 266.45C83.2164 266.883 81.0519 269.18 79.4702 270.529C78.9207 271.012 79.7033 271.228 81.1352 273.959C82.5671 276.689 82.2341 277.455 83 277.289C84.4764 276.935 85.9959 276.795 87.5121 276.873ZM318.598 137.745C315.107 136.32 311.447 135.351 307.708 134.865C304.978 134.432 301.764 133.999 299.05 133.649C301.664 129.953 309.407 120.596 310.705 118.315C311.072 117.699 310.372 116.833 309.856 116.317C306.959 113.22 301.365 112.054 297.069 111.388C294.605 110.989 284.315 109.723 282.567 110.556C280.469 111.555 264.951 134.865 264.485 138.411C264.485 139.011 264.685 139.244 265.268 139.46C267.715 140.359 278.754 141.758 281.218 142.341C277.888 148.168 263.086 167.865 261.638 170.646C261.288 171.345 261.505 171.761 261.921 171.894C263.419 172.489 264.961 172.968 266.533 173.326C267.132 173.509 268.448 172.694 270.362 171.528C278.954 166.367 315.817 142.024 318.647 138.877C318.726 138.804 318.787 138.714 318.827 138.614C318.868 138.514 318.886 138.407 318.881 138.3C318.877 138.192 318.849 138.087 318.8 137.992C318.751 137.896 318.682 137.812 318.598 137.745ZM282.817 157.725C268.664 167.066 263.886 169.796 263.719 169.913C266 166.433 280.169 147.019 282.6 142.374C282.643 142.284 282.664 142.186 282.664 142.087C282.663 141.988 282.641 141.89 282.598 141.8C282.555 141.711 282.492 141.633 282.415 141.57C282.337 141.508 282.247 141.464 282.151 141.441C280.486 140.842 268.364 139.543 265.501 138.528C265.867 135.431 280.985 112.021 282.817 111.089C284.648 110.156 302.414 112.271 305.744 114.652C303.995 118.065 294.338 130.02 292.773 132.8C292.457 133.366 292.357 133.916 292.973 134.066C293.589 134.215 309.24 136.047 312.653 137.162C308.491 140.642 287.479 154.595 282.817 157.659V157.725ZM176.007 55.9271C176.007 56.0769 176.107 56.2601 176.357 57.2258C176.422 57.4353 176.566 57.6113 176.759 57.7168C176.951 57.8223 177.177 57.8493 177.389 57.7919C177.601 57.7301 177.78 57.5866 177.886 57.393C177.992 57.1994 178.017 56.9716 177.955 56.7596C177.788 56.1102 177.639 55.5608 177.539 55.2944C177.442 55.1116 177.28 54.9714 177.085 54.9013C176.891 54.8312 176.677 54.8361 176.485 54.9151C176.294 54.9941 176.139 55.1416 176.051 55.3287C175.962 55.5158 175.947 55.7291 176.007 55.9271Z" fill="#084C28"/>
</svg>
