<svg width="333" height="333" viewBox="0 0 333 333" fill="none" xmlns="http://www.w3.org/2000/svg">
<path d="M119.681 265.628L93.3603 277.744C94.0563 277.396 122.275 259.619 122.275 259.619C122.275 253.067 117.806 243.658 110.443 242.377L114.145 237.316C110.141 231.653 104.216 227.639 97.4729 226.021L81.7187 245.952C79.6763 238.985 75.5604 232.805 69.9188 228.235C66.1021 227.239 62.4093 225.818 58.9098 223.998C57.4113 229.962 55.6214 234.434 55.2468 239.182C54.5808 247.444 54.7257 265.156 57.5245 272.149C56.8918 274.712 49.7423 305.271 75.3034 305.303H120.44C123.673 292.289 122.748 278.623 119.681 265.628Z" fill="#900F1B"/>
<path d="M206.835 108.656H134.138V70.4395H206.835V108.656Z" fill="#900F1B"/>
<path d="M191.903 143.611H148.851C147.685 143.611 146.567 144.075 145.742 144.899C144.917 145.724 144.454 146.842 144.454 148.009C144.454 149.175 144.917 150.293 145.742 151.118C146.567 151.943 147.685 152.406 148.851 152.406H191.907C193.073 152.406 194.191 151.943 195.016 151.118C195.841 150.293 196.304 149.175 196.304 148.009C196.304 146.842 195.841 145.724 195.016 144.899C194.191 144.075 193.073 143.611 191.907 143.611H191.903Z" fill="#900F1B"/>
<path d="M75.7711 168.102H49.8304C49.2528 168.102 48.6808 167.989 48.1471 167.768C47.6134 167.547 47.1285 167.223 46.7201 166.815C46.3117 166.406 45.9878 165.921 45.7669 165.388C45.5461 164.854 45.4327 164.282 45.4331 163.704C45.4329 163.127 45.5465 162.555 45.7674 162.021C45.9883 161.488 46.3122 161.003 46.7205 160.595C47.1289 160.186 47.6138 159.862 48.1474 159.641C48.681 159.42 49.2529 159.307 49.8304 159.307H75.7711C76.9373 159.307 78.0558 159.77 78.8804 160.595C79.7051 161.42 80.1683 162.538 80.1683 163.704C80.1683 164.871 79.7051 165.989 78.8804 166.814C78.0558 167.638 76.9373 168.102 75.7711 168.102Z" fill="#900F1B"/>
<path d="M274.344 140.639H249.131C248.25 140.621 247.385 140.869 246.647 141.349C245.909 141.83 245.332 142.521 244.992 143.333C244.708 144.008 244.597 144.743 244.67 145.472C244.742 146.201 244.995 146.9 245.406 147.506C245.818 148.112 246.374 148.605 247.024 148.942C247.675 149.278 248.399 149.447 249.131 149.432H274.344C275.225 149.45 276.09 149.202 276.828 148.722C277.566 148.241 278.143 147.55 278.483 146.738C278.767 146.063 278.878 145.328 278.805 144.599C278.733 143.87 278.48 143.171 278.068 142.565C277.657 141.959 277.101 141.466 276.451 141.13C275.8 140.793 275.076 140.625 274.344 140.639Z" fill="#900F1B"/>
<path d="M62.0728 217.416L66.5333 220.959C66.5333 220.2 66.5966 219.441 66.6282 218.62C65.056 218.46 63.5187 218.054 62.0728 217.416Z" fill="#FBC4C9"/>
<path d="M41.6051 205.461C41.0357 207.421 38.2751 218.653 47.5525 224.535C46.6667 224.915 42.2694 228.017 41.8915 228.302C37.9184 231.238 34.4536 234.807 31.6351 238.864C25.8459 247.564 25.1499 260.598 34.0393 267.527C39.9234 272.081 50.6161 272.462 56.2155 267.028C54.8983 257.821 54.5801 248.498 55.2664 239.222C55.646 234.349 57.4176 230.175 58.4932 225.681C60.9291 215.613 59.3174 212.984 57.0696 207.366C52.7989 206.324 54.3174 201.262 57.2594 202.969C57.6723 203.238 58.1352 203.422 58.6197 203.508C60.2331 195.283 63.365 194.684 66.2121 197.338C62.1429 191.995 45.5378 192.025 41.6051 205.461Z" fill="#FBC4C9"/>
<path d="M118.573 261.895C96.492 275.949 94.7171 277.034 93.2969 277.744L119.617 265.627L118.573 261.895Z" fill="#FBC4C9"/>
<path d="M212.054 302.609C206.455 297.864 198.235 292.106 190.891 289.955C184.235 291.87 177.174 291.87 170.518 289.955C169.215 293.666 168.386 297.526 168.05 301.444C167.992 302.148 168.155 302.853 168.518 303.46C168.88 304.066 169.424 304.544 170.071 304.827C170.501 305.013 170.966 305.108 171.435 305.107C184.184 305.138 195.256 305.273 211.074 305.298C211.387 305.299 211.692 305.203 211.949 305.024C212.205 304.845 212.4 304.592 212.508 304.298C212.615 304.004 212.629 303.684 212.548 303.382C212.467 303.08 212.294 302.81 212.054 302.609Z" fill="#FBC4C9"/>
<path d="M250.238 264.426C250.216 264.123 250.099 263.835 249.905 263.603C249.71 263.37 249.448 263.204 249.154 263.129C248.861 263.051 248.551 263.068 248.267 263.175C247.984 263.283 247.742 263.477 247.574 263.73C242.829 269.331 237.071 282.617 234.92 289.955C236.751 296.98 236.881 298.718 234.952 305.3H250.103C251.415 305.425 252.581 277.493 250.238 264.426Z" fill="#FBC4C9"/>
<path d="M84.344 77.5575C84.344 78.6899 83.8941 79.776 83.0934 80.5768C82.2926 81.3775 81.2065 81.8274 80.0741 81.8274C78.9416 81.8274 77.8556 81.3775 77.0548 80.5768C76.2541 79.776 75.8042 78.6899 75.8042 77.5575C75.8042 76.425 76.2541 75.339 77.0548 74.5382C77.8556 73.7375 78.9416 73.2876 80.0741 73.2876C81.2065 73.2876 82.2926 73.7375 83.0934 74.5382C83.8941 75.339 84.344 76.425 84.344 77.5575Z" fill="#FBC4C9"/>
<path d="M134.897 280.276L123.224 288.153C125.62 285.574 127.841 282.837 129.87 279.96C129.835 279.99 131.765 280.053 134.897 280.276Z" fill="#FBC4C9"/>
<path d="M70.583 216.941C75.2757 220.309 80.9091 222.115 86.6852 222.102H106.332" stroke="#1A1A1A" stroke-width="2.25" stroke-linecap="round" stroke-linejoin="round"/>
<path d="M121.452 222.098H115.157" stroke="#1A1A1A" stroke-width="2.25" stroke-linecap="round" stroke-linejoin="round"/>
<path d="M122.623 222.099H254.287C257.919 222.1 261.515 221.386 264.87 219.997C268.225 218.608 271.273 216.572 273.841 214.004C276.409 211.436 278.445 208.388 279.834 205.033C281.223 201.677 281.938 198.081 281.936 194.45V186.603" stroke="#1A1A1A" stroke-width="2.25" stroke-linecap="round" stroke-linejoin="round"/>
<path d="M281.936 133.456V86.9213C281.938 83.2899 281.224 79.6937 279.836 76.3384C278.447 72.983 276.41 69.9344 273.842 67.3667C271.275 64.799 268.226 62.7626 264.87 61.374C261.515 59.9854 257.919 59.2717 254.287 59.2739H86.6851C83.054 59.2726 79.4582 59.9868 76.1031 61.3758C72.7481 62.7647 69.6997 64.8011 67.132 67.3686C64.5643 69.9361 62.5277 72.9845 61.1386 76.3394C59.7495 79.6943 59.035 83.2901 59.0361 86.9213V133.458" stroke="#1A1A1A" stroke-width="2.25" stroke-linecap="round" stroke-linejoin="round"/>
<path d="M59.0361 194.164V186.603" stroke="#1A1A1A" stroke-width="2.25" stroke-linecap="round" stroke-linejoin="round"/>
<path d="M57.5176 272.146C56.9184 270.459 56.4726 268.723 56.1855 266.956" stroke="#1A1A1A" stroke-width="2.25" stroke-linecap="round" stroke-linejoin="round"/>
<path d="M60.939 227.855C63.31 228.586 65.6243 229.486 67.8671 230.544C70.3415 231.808 72.3737 233.794 73.6946 236.239C77.8227 243.873 82.3311 251.295 87.2027 258.478L110.391 242.344C114.788 243.105 118.06 246.657 119.913 250.539C121.332 253.351 122.12 256.438 122.223 259.585C120.496 260.699 98.6413 274.584 95.4278 276.543C84.567 283.167 76.1038 280.889 69.93 269.742C68.9493 267.97 59.7119 253.07 59.7119 253.07" stroke="#1A1A1A" stroke-width="2.25" stroke-linecap="round" stroke-linejoin="round"/>
<path d="M66.5338 220.959L62.0732 217.416C63.53 218.054 65.0779 218.459 66.6603 218.618" stroke="#1A1A1A" stroke-width="2.25" stroke-linecap="round" stroke-linejoin="round"/>
<path d="M83.8379 253.387C82.8129 249.046 81.4158 244.802 79.6621 240.701C75.4163 231.528 69.2691 228.187 67.704 226.18C66.6909 224.641 66.2763 222.783 66.5385 220.959L66.6651 218.618C67.4108 218.68 68.1604 218.56 68.8493 218.268C69.5383 217.976 70.1458 217.521 70.6194 216.941C73.9927 212.656 70.4613 201.314 66.2222 197.328" stroke="#1A1A1A" stroke-width="2.25" stroke-linecap="round" stroke-linejoin="round"/>
<path d="M66.2173 197.327C63.3701 194.663 60.2383 195.273 58.6249 203.498C58.1397 203.412 57.677 203.228 57.2646 202.958C54.3209 201.253 52.804 206.312 57.0748 207.356C58.0095 209.185 58.7211 211.121 59.1943 213.12C60.0548 217.295 59.815 221.623 58.4983 225.677C57.4178 230.173 55.6678 234.347 55.2716 239.219C54.5911 248.494 54.9093 257.817 56.2206 267.024C50.6212 272.465 39.9219 272.096 34.0445 267.524C25.1417 260.612 25.8394 247.557 31.6352 238.864C34.4401 234.797 37.9043 231.226 41.885 228.3C42.2629 228.012 46.6619 224.913 47.546 224.533C38.2769 218.649 41.0275 207.419 41.5986 205.459C44.2459 196.377 52.6059 193.493 59.0295 194.101C61.757 194.187 64.3403 195.346 66.2173 197.327Z" stroke="#1A1A1A" stroke-width="2.25" stroke-linecap="round" stroke-linejoin="round"/>
<path d="M122.486 288.853C126.498 285.293 134.429 273.568 137.333 269.039C143.233 276.984 155.964 282.233 170.454 289.948" stroke="#1A1A1A" stroke-width="2.25" stroke-linecap="round" stroke-linejoin="round"/>
<path d="M190.891 289.987C179.94 285.138 155.032 256.104 148.848 249.179C145.989 245.984 142.109 243.881 137.871 243.23" stroke="#1A1A1A" stroke-width="2.25" stroke-linecap="round" stroke-linejoin="round"/>
<path d="M119.589 265.641L93.2969 277.744" stroke="#1A1A1A" stroke-width="2.25" stroke-linecap="round" stroke-linejoin="round"/>
<path d="M118.605 261.895C122.601 276.179 124.019 290.909 120.436 305.299H75.2963C48.5963 305.299 57.5491 271.986 57.5491 271.986C62.0496 272.359 66.5767 272.262 71.0572 271.701" stroke="#1A1A1A" stroke-width="2.25" stroke-linecap="round" stroke-linejoin="round"/>
<path d="M190.891 289.955C198.23 292.106 206.429 297.895 212.055 302.609C212.295 302.809 212.468 303.08 212.55 303.382C212.632 303.685 212.619 304.005 212.512 304.3C212.406 304.595 212.21 304.85 211.952 305.029C211.694 305.208 211.388 305.302 211.074 305.299C195.256 305.283 184.184 305.133 171.435 305.108C170.728 305.112 170.038 304.894 169.462 304.485C168.886 304.075 168.453 303.494 168.225 302.825C168.072 302.382 168.012 301.912 168.05 301.445C168.399 297.529 169.227 293.67 170.518 289.956C177.174 291.87 184.235 291.87 190.891 289.955Z" stroke="#1A1A1A" stroke-width="2.25" stroke-linecap="round" stroke-linejoin="round"/>
<path d="M234.932 289.955C237.083 282.615 242.872 269.355 247.586 263.729C247.754 263.478 247.997 263.286 248.28 263.18C248.563 263.071 248.872 263.054 249.165 263.13C249.458 263.207 249.72 263.373 249.913 263.606C250.108 263.838 250.225 264.124 250.25 264.425C252.607 277.489 251.415 305.426 250.123 305.299H234.972C236.888 298.719 236.763 296.978 234.932 289.955Z" stroke="#1A1A1A" stroke-width="2.25" stroke-linecap="round" stroke-linejoin="round"/>
<path d="M234.932 289.955C216.109 291.062 197.824 288.468 185.17 286.292" stroke="#1A1A1A" stroke-width="2.25" stroke-linecap="round" stroke-linejoin="round"/>
<path d="M129.962 240.288C134.486 239.151 138.232 241.109 137.966 242.85C137.909 243.203 137.775 243.539 137.574 243.835C137.372 244.13 137.108 244.377 136.8 244.559" stroke="#1A1A1A" stroke-width="2.25" stroke-linecap="round" stroke-linejoin="round"/>
<path d="M129.487 237.536C134.233 236.333 139.041 238.643 137.016 241.174" stroke="#1A1A1A" stroke-width="2.25" stroke-linecap="round" stroke-linejoin="round"/>
<path d="M121.8 256.042C124.776 252.013 128.849 248.927 133.533 247.152" stroke="#1A1A1A" stroke-width="2.25" stroke-linecap="round" stroke-linejoin="round"/>
<path d="M129.835 243.546C134.232 242.597 137.174 244.242 137.016 245.982C136.826 248.07 132.687 251.33 129.107 249.367" stroke="#1A1A1A" stroke-width="2.25" stroke-linecap="round" stroke-linejoin="round"/>
<path d="M113.29 243.23C115.315 241.142 126.3 231.803 127.051 232.537C127.884 233.351 126.007 235.987 126.007 235.987" stroke="#1A1A1A" stroke-width="2.25" stroke-linecap="round" stroke-linejoin="round"/>
<path d="M113.29 243.23C116.79 240.36 120.719 238.057 124.932 236.403C130.131 234.372 135.221 232.071 140.18 229.508C141.678 228.626 139.61 233.273 131.765 237.194" stroke="#1A1A1A" stroke-width="2.25" stroke-linecap="round" stroke-linejoin="round"/>
<path d="M206.835 92.8687H281.936" stroke="#1A1A1A" stroke-width="2.25" stroke-linecap="round" stroke-linejoin="round"/>
<path d="M59.0361 92.8687H134.138" stroke="#1A1A1A" stroke-width="2.25" stroke-linecap="round" stroke-linejoin="round"/>
<path d="M84.344 77.5575C84.344 78.6899 83.8941 79.776 83.0934 80.5768C82.2926 81.3775 81.2065 81.8274 80.0741 81.8274C78.9416 81.8274 77.8556 81.3775 77.0548 80.5768C76.2541 79.776 75.8042 78.6899 75.8042 77.5575C75.8042 76.425 76.2541 75.339 77.0548 74.5382C77.8556 73.7375 78.9416 73.2876 80.0741 73.2876C81.2065 73.2876 82.2926 73.7375 83.0934 74.5382C83.8941 75.339 84.344 76.425 84.344 77.5575Z" stroke="#1A1A1A" stroke-width="2.25" stroke-linecap="round" stroke-linejoin="round"/>
<path d="M97.2829 77.5575C97.2829 78.6899 96.8331 79.776 96.0323 80.5768C95.2316 81.3775 94.1455 81.8274 93.0131 81.8274C91.8806 81.8274 90.7945 81.3775 89.9938 80.5768C89.193 79.776 88.7432 78.6899 88.7432 77.5575C88.7432 76.425 89.193 75.339 89.9938 74.5382C90.7945 73.7375 91.8806 73.2876 93.0131 73.2876C94.1455 73.2876 95.2316 73.7375 96.0323 74.5382C96.8331 75.339 97.2829 76.425 97.2829 77.5575Z" stroke="#1A1A1A" stroke-width="2.25" stroke-linecap="round" stroke-linejoin="round"/>
<path d="M110.285 77.5575C110.285 78.6899 109.835 79.776 109.034 80.5768C108.234 81.3775 107.147 81.8274 106.015 81.8274C104.883 81.8274 103.797 81.3775 102.996 80.5768C102.195 79.776 101.745 78.6899 101.745 77.5575C101.745 76.425 102.195 75.339 102.996 74.5382C103.797 73.7375 104.883 73.2876 106.015 73.2876C107.147 73.2876 108.234 73.7375 109.034 74.5382C109.835 75.339 110.285 76.425 110.285 77.5575Z" stroke="#1A1A1A" stroke-width="2.25" stroke-linecap="round" stroke-linejoin="round"/>
<path d="M81.6553 245.92L97.4095 225.99C104.162 227.607 110.097 231.62 114.113 237.284L110.38 242.346" stroke="#1A1A1A" stroke-width="2.25" stroke-linecap="round" stroke-linejoin="round"/>
<path d="M114.176 226.305C116.232 217.511 117.967 210.488 118.351 208.336C119.412 202.419 117.852 202.552 115.504 207.546C112.251 215.024 107.454 221.729 101.427 227.222" stroke="#1A1A1A" stroke-width="2.25" stroke-linecap="round" stroke-linejoin="round"/>
<path d="M117.972 210.11C119.591 208.574 121.411 207.266 123.382 206.218C123.953 205.967 124.935 206.317 122.464 209.215C120.822 211.147 117.814 215.043 116.422 216.934" stroke="#1A1A1A" stroke-width="2.25" stroke-linecap="round" stroke-linejoin="round"/>
<path d="M114.619 224.276C116.498 223.781 118.346 223.178 120.155 222.471C122.398 221.735 124.514 220.946 119.839 225.508C116.98 228.351 114.366 231.43 112.025 234.714" stroke="#1A1A1A" stroke-width="2.25" stroke-linecap="round" stroke-linejoin="round"/>
<path d="M190.31 171.135C190.233 170.324 189.883 169.562 189.317 168.976C188.751 168.389 188.003 168.012 187.195 167.907L154.542 162.877C152.866 162.624 151.545 163.543 151.569 164.966L151.885 191.223L130.595 205.294C129.329 206.085 130.057 208.015 131.828 208.521L164.919 217.845C165.353 217.995 165.817 218.041 166.272 217.981C166.728 217.92 167.164 217.755 167.544 217.497L190.305 199.94L190.31 171.135Z" stroke="#1A1A1A" stroke-width="2.25" stroke-linecap="round" stroke-linejoin="round"/>
<path d="M190.305 199.953L151.885 191.224" stroke="#1A1A1A" stroke-width="2.25" stroke-linecap="round" stroke-linejoin="round"/>
<path d="M185.861 195.05C186.43 195.178 186.985 194.892 186.985 194.384V172.684C186.966 172.421 186.856 172.172 186.673 171.982C186.491 171.791 186.248 171.67 185.986 171.64L156.122 166.895C156.011 166.861 155.894 166.853 155.779 166.871C155.664 166.89 155.556 166.934 155.461 167.001C155.366 167.069 155.288 167.157 155.233 167.259C155.177 167.361 155.146 167.474 155.142 167.59L155.331 187.269C155.36 187.517 155.467 187.75 155.638 187.932C155.809 188.115 156.034 188.237 156.28 188.281L185.861 195.05Z" stroke="#1A1A1A" stroke-width="2.25" stroke-linecap="round" stroke-linejoin="round"/>
<path d="M107.975 186.603H35.2466V133.457H107.975V186.603Z" stroke="#1A1A1A" stroke-width="2.25" stroke-linecap="round" stroke-linejoin="round"/>
<path d="M151.822 186.603H134.138V133.457H206.835V186.603H190.353" stroke="#1A1A1A" stroke-width="2.25" stroke-linecap="round" stroke-linejoin="round"/>
<path d="M305.694 186.603H232.997V133.457H305.694V186.603Z" stroke="#1A1A1A" stroke-width="2.25" stroke-linecap="round" stroke-linejoin="round"/>
<path d="M206.835 108.656H134.138V70.4395H206.835V108.656Z" stroke="#1A1A1A" stroke-width="2.25" stroke-linecap="round" stroke-linejoin="round"/>
<path d="M170.486 108.656V133.456" stroke="#1A1A1A" stroke-width="2.25" stroke-linecap="round" stroke-linejoin="round"/>
<path d="M189.752 108.656V121.056H269.346V133.456" stroke="#1A1A1A" stroke-width="2.25" stroke-linecap="round" stroke-linejoin="round"/>
<path d="M152.486 108.656V121.056H71.627V133.456" stroke="#1A1A1A" stroke-width="2.25" stroke-linecap="round" stroke-linejoin="round"/>
<path d="M163.906 96.6965L148.879 89.2007L163.716 82.1128" stroke="#1A1A1A" stroke-width="2.25" stroke-linecap="round" stroke-linejoin="round"/>
<path d="M177.256 96.76L192.093 89.136L177.066 82.1763" stroke="#1A1A1A" stroke-width="2.25" stroke-linecap="round" stroke-linejoin="round"/>
<path d="M175.611 75.9141L165.171 103.182" stroke="#1A1A1A" stroke-width="2.25" stroke-linecap="round" stroke-linejoin="round"/>
<path d="M92.8857 152.406C94.0517 152.406 95.1699 151.943 95.9944 151.118C96.8189 150.294 97.2821 149.175 97.2821 148.009C97.2821 146.843 96.8189 145.725 95.9944 144.901C95.1699 144.076 94.0517 143.613 92.8857 143.613H49.8621C49.2723 143.593 48.6845 143.692 48.1337 143.904C47.583 144.116 47.0805 144.437 46.6562 144.847C46.2319 145.257 45.8945 145.748 45.6641 146.292C45.4337 146.835 45.3149 147.419 45.3149 148.009C45.3149 148.599 45.4337 149.184 45.6641 149.727C45.8945 150.27 46.2319 150.762 46.6562 151.172C47.0805 151.582 47.583 151.903 48.1337 152.115C48.6845 152.327 49.2723 152.426 49.8621 152.406H92.8857Z" stroke="#1A1A1A" stroke-width="2.25" stroke-linecap="round" stroke-linejoin="round"/>
<path d="M191.903 143.611C193.069 143.611 194.188 144.075 195.013 144.899C195.837 145.724 196.301 146.842 196.301 148.009C196.301 149.175 195.837 150.293 195.013 151.118C194.188 151.943 193.069 152.406 191.903 152.406H148.851C147.685 152.406 146.567 151.943 145.742 151.118C144.917 150.293 144.454 149.175 144.454 148.009C144.454 146.842 144.917 145.724 145.742 144.899C146.567 144.075 147.685 143.611 148.851 143.611H191.903Z" stroke="#1A1A1A" stroke-width="2.25" stroke-linecap="round" stroke-linejoin="round"/>
<path d="M75.7708 159.307C76.6412 159.311 77.4911 159.572 78.2136 160.057C78.9361 160.542 79.4989 161.231 79.8312 162.035C80.1634 162.84 80.2504 163.724 80.081 164.578C79.9117 165.432 79.4936 166.216 78.8794 166.833C78.4704 167.239 77.9852 167.56 77.4517 167.778C76.9182 167.996 76.347 168.106 75.7708 168.102H49.8617C49.2741 168.118 48.6892 168.016 48.1416 167.803C47.5939 167.589 47.0947 167.268 46.6733 166.858C46.2519 166.448 45.917 165.957 45.6883 165.416C45.4596 164.874 45.3418 164.292 45.3418 163.705C45.3418 163.117 45.4596 162.535 45.6883 161.993C45.917 161.452 46.2519 160.962 46.6733 160.552C47.0947 160.142 47.5939 159.82 48.1416 159.607C48.6892 159.393 49.2741 159.291 49.8617 159.307H75.7708Z" stroke="#1A1A1A" stroke-width="2.25" stroke-linecap="round" stroke-linejoin="round"/>
<path d="M274.344 140.639C275.225 140.621 276.09 140.869 276.828 141.349C277.566 141.83 278.143 142.521 278.483 143.333C278.767 144.008 278.878 144.743 278.805 145.472C278.733 146.201 278.48 146.9 278.068 147.506C277.657 148.112 277.101 148.605 276.451 148.942C275.8 149.278 275.076 149.447 274.344 149.432H249.131C248.25 149.45 247.385 149.202 246.647 148.722C245.909 148.241 245.332 147.55 244.992 146.738C244.708 146.063 244.597 145.328 244.67 144.599C244.742 143.87 244.995 143.171 245.406 142.565C245.818 141.959 246.374 141.466 247.024 141.13C247.675 140.793 248.399 140.625 249.131 140.639H274.344Z" stroke="#1A1A1A" stroke-width="2.25" stroke-linecap="round" stroke-linejoin="round"/>
<path d="M286.239 156.329C287.379 156.367 288.461 156.847 289.254 157.668C290.047 158.488 290.491 159.585 290.491 160.727C290.491 161.868 290.047 162.965 289.254 163.786C288.461 164.606 287.379 165.086 286.239 165.125H249.131C247.99 165.086 246.909 164.606 246.115 163.786C245.322 162.965 244.878 161.868 244.878 160.727C244.878 159.585 245.322 158.488 246.115 157.668C246.909 156.847 247.99 156.367 249.131 156.329H286.239Z" stroke="#1A1A1A" stroke-width="2.25" stroke-linecap="round" stroke-linejoin="round"/>
<path d="M149.196 114.159L152.549 108.656L155.681 114.317" stroke="#1A1A1A" stroke-width="2.25" stroke-linecap="round" stroke-linejoin="round"/>
<path d="M167.165 114.159L170.518 108.656L173.618 114.317" stroke="#1A1A1A" stroke-width="2.25" stroke-linecap="round" stroke-linejoin="round"/>
<path d="M186.525 114.159L189.879 108.656L192.979 114.317" stroke="#1A1A1A" stroke-width="2.25" stroke-linecap="round" stroke-linejoin="round"/>
<path d="M300.569 109.002L289.212 120.264" stroke="#1A1A1A" stroke-width="2.25" stroke-linecap="round" stroke-linejoin="round"/>
<path d="M300.538 120.296L289.244 108.974" stroke="#1A1A1A" stroke-width="2.25" stroke-linecap="round" stroke-linejoin="round"/>
<path d="M41.2573 112.704L46.2557 119.759L52.1081 109.541" stroke="#1A1A1A" stroke-width="2.25" stroke-linecap="round" stroke-linejoin="round"/>
<path d="M69.8869 228.236C66.0706 227.238 62.378 225.815 58.8779 223.996" stroke="#1A1A1A" stroke-width="2.25" stroke-linecap="round" stroke-linejoin="round"/>
<path d="M171.087 29.8201L164.539 31.9713L168.335 35.3879L163.337 40.9873L166.026 43.3915L171.024 37.7921L174.82 41.1771L177.636 27.6689L171.087 29.8201Z" stroke="#1A1A1A" stroke-width="2.25" stroke-linecap="round" stroke-linejoin="round"/>
<path d="M202.88 243.23C202.88 243.687 202.745 244.133 202.491 244.513C202.237 244.893 201.877 245.189 201.455 245.363C201.033 245.538 200.569 245.584 200.121 245.495C199.673 245.406 199.261 245.186 198.938 244.863C198.615 244.54 198.395 244.128 198.306 243.68C198.217 243.232 198.263 242.768 198.438 242.346C198.612 241.924 198.908 241.563 199.288 241.31C199.668 241.056 200.114 240.92 200.571 240.92C201.182 240.924 201.768 241.169 202.199 241.601C202.632 242.033 202.877 242.619 202.88 243.23Z" stroke="#1A1A1A" stroke-width="2.25" stroke-linecap="round" stroke-linejoin="round"/>
<path d="M8.3252 305.298H324.675" stroke="#1A1A1A" stroke-width="2.25" stroke-linecap="round" stroke-linejoin="round"/>
<path d="M134.897 280.276L123.192 288.185" stroke="#1A1A1A" stroke-width="2.25" stroke-linecap="round" stroke-linejoin="round"/>
<path d="M129.835 279.99C138.825 280.406 147.782 281.347 156.662 282.807" stroke="#1A1A1A" stroke-width="2.25" stroke-linecap="round" stroke-linejoin="round"/>
<path d="M137.333 269.046L135.213 265.976" stroke="#1A1A1A" stroke-width="2.25" stroke-linecap="round" stroke-linejoin="round"/>
</svg>
