<svg width="690" height="321" viewBox="0 0 690 321" fill="none" xmlns="http://www.w3.org/2000/svg">
<mask id="mask0_115_2966" style="mask-type:luminance" maskUnits="userSpaceOnUse" x="-13" y="0" width="703" height="321">
<path d="M690 -6.10352e-05L690 320.131L-13 320.131L-13 -5.2652e-05L690 -6.10352e-05Z" fill="white"/>
</mask>
<g mask="url(#mask0_115_2966)">
<path d="M572.157 276.83L469.013 276.83L431.235 317.868L-9.23021 317.868" stroke="url(#paint0_radial_115_2966)" stroke-width="4" stroke-miterlimit="10"/>
<path d="M-13.0001 274.702L402.636 274.702L457.783 213.157L510.89 212.749" stroke="url(#paint1_radial_115_2966)" stroke-width="6" stroke-miterlimit="10"/>
<path d="M-9.2303 129.61L390.897 129.61L455.233 58.5236L572.157 58.5236L609.435 16.9199L663.052 16.9199" stroke="url(#paint2_radial_115_2966)" stroke-width="4" stroke-miterlimit="10"/>
<path d="M562.967 0.384718L538.458 29.29L454.203 29.29L385.807 106.703L-13.0002 106.703" stroke="url(#paint3_radial_115_2966)" stroke-miterlimit="10"/>
<path d="M662.881 16.9198C662.881 9.20665 668.406 2.95383 675.221 2.95383C682.036 2.95383 687.56 9.20665 687.56 16.9198C687.56 24.633 682.036 30.8859 675.221 30.8859C668.406 30.8859 662.881 24.633 662.881 16.9198Z" stroke="url(#paint4_radial_115_2966)" stroke-width="4.89" stroke-miterlimit="10"/>
<path d="M627.344 241.813C627.344 236.919 630.849 232.951 635.173 232.951C639.497 232.951 643.003 236.919 643.003 241.813C643.003 246.707 639.497 250.675 635.173 250.675C630.849 250.675 627.344 246.707 627.344 241.813Z" stroke="url(#paint5_radial_115_2966)" stroke-width="3" stroke-miterlimit="10"/>
<path d="M503.31 212.749C503.31 207.03 507.407 202.394 512.46 202.394C517.513 202.394 521.609 207.03 521.609 212.749C521.609 218.468 517.513 223.105 512.46 223.105C507.407 223.105 503.31 218.468 503.31 212.749Z" fill="black"/>
<path d="M571.177 276.83C571.177 271.111 575.273 266.474 580.326 266.474C585.379 266.474 589.476 271.111 589.476 276.83C589.476 282.549 585.379 287.185 580.326 287.185C575.273 287.185 571.177 282.549 571.177 276.83Z" fill="black"/>
<path d="M-9.23046 296.522L416.595 296.522L466.973 241.813L626.283 241.813" stroke="url(#paint6_radial_115_2966)" stroke-width="3" stroke-miterlimit="10"/>
</g>
<defs>
<radialGradient id="paint0_radial_115_2966" cx="0" cy="0" r="1" gradientUnits="userSpaceOnUse" gradientTransform="translate(689.5 0.565735) rotate(90) scale(0.565883 0.499972)">
<stop stop-color="white"/>
<stop offset="0.26" stop-color="white"/>
<stop offset="0.66" stop-color="#CE1225"/>
<stop offset="1"/>
</radialGradient>
<radialGradient id="paint1_radial_115_2966" cx="0" cy="0" r="1" gradientUnits="userSpaceOnUse" gradientTransform="translate(248.955 243.726) rotate(90) scale(211.052 186.469)">
<stop stop-color="white"/>
<stop offset="0.26" stop-color="white"/>
<stop offset="0.66" stop-color="#CE1225"/>
<stop offset="1"/>
</radialGradient>
<radialGradient id="paint2_radial_115_2966" cx="0" cy="0" r="1" gradientUnits="userSpaceOnUse" gradientTransform="translate(326.911 73.2705) rotate(90) scale(272.19 240.486)">
<stop stop-color="white"/>
<stop offset="0.26" stop-color="white"/>
<stop offset="0.66" stop-color="#CE1225"/>
<stop offset="1"/>
</radialGradient>
<radialGradient id="paint3_radial_115_2966" cx="0" cy="0" r="1" gradientUnits="userSpaceOnUse" gradientTransform="translate(275.163 53.6343) rotate(90) scale(233.721 206.498)">
<stop stop-color="white"/>
<stop offset="0.26" stop-color="white"/>
<stop offset="0.66" stop-color="#CE1225"/>
<stop offset="1"/>
</radialGradient>
<radialGradient id="paint4_radial_115_2966" cx="0" cy="0" r="1" gradientUnits="userSpaceOnUse" gradientTransform="translate(675.221 16.9198) rotate(90) scale(16.7275 14.7792)">
<stop stop-color="white"/>
<stop offset="0.26" stop-color="white"/>
<stop offset="0.66" stop-color="#CE1225"/>
<stop offset="1"/>
</radialGradient>
<radialGradient id="paint5_radial_115_2966" cx="0" cy="0" r="1" gradientUnits="userSpaceOnUse" gradientTransform="translate(635.187 241.826) rotate(103.812) scale(10.4758 9.4039)">
<stop stop-color="#CFCBCB"/>
<stop offset="0.26" stop-color="#D2C5C5"/>
<stop offset="0.66" stop-color="#CE1225"/>
<stop offset="1"/>
</radialGradient>
<radialGradient id="paint6_radial_115_2966" cx="0" cy="0" r="1" gradientUnits="userSpaceOnUse" gradientTransform="translate(308.521 269.168) rotate(90) scale(255.134 225.417)">
<stop stop-color="#C4C1C1"/>
<stop offset="0.26" stop-color="#E7D4D4"/>
<stop offset="0.66" stop-color="#CE1225"/>
<stop offset="1"/>
</radialGradient>
</defs>
</svg>
