<svg width="690" height="321" viewBox="0 0 690 321" fill="none" xmlns="http://www.w3.org/2000/svg">
<mask id="mask0_115_2952" style="mask-type:luminance" maskUnits="userSpaceOnUse" x="-13" y="0" width="703" height="321">
<path d="M690 321L690 0.868866L-13 0.868874L-13 321L690 321Z" fill="white"/>
</mask>
<g mask="url(#mask0_115_2952)">
<path d="M572.157 44.1702L469.013 44.1702L431.235 3.13238L-9.23021 3.13238" stroke="url(#paint0_radial_115_2952)" stroke-width="4" stroke-miterlimit="10"/>
<path d="M-13.0001 46.2979L402.636 46.2979L457.783 107.843L510.89 108.251" stroke="url(#paint1_radial_115_2952)" stroke-width="6" stroke-miterlimit="10"/>
<path d="M-9.23031 191.39L390.897 191.39L455.233 262.476L572.157 262.476L609.435 304.08L663.052 304.08" stroke="url(#paint2_radial_115_2952)" stroke-width="4" stroke-miterlimit="10"/>
<path d="M562.967 320.604L538.458 291.71L454.203 291.71L385.807 214.297L-13.0002 214.297" stroke="url(#paint3_radial_115_2952)" stroke-miterlimit="10"/>
<path d="M662.881 304.08C662.881 296.367 668.406 290.114 675.221 290.114C682.036 290.114 687.56 296.367 687.56 304.08C687.56 311.793 682.036 318.046 675.221 318.046C668.406 318.046 662.881 311.793 662.881 304.08Z" stroke="url(#paint4_radial_115_2952)" stroke-width="4.89" stroke-miterlimit="10"/>
<path d="M627.344 79.187C627.344 74.2928 630.849 70.3253 635.173 70.3253C639.497 70.3253 643.003 74.2928 643.003 79.187C643.003 84.0812 639.497 88.0487 635.173 88.0487C630.849 88.0487 627.344 84.0812 627.344 79.187Z" stroke="url(#paint5_radial_115_2952)" stroke-width="3" stroke-miterlimit="10"/>
<path d="M503.31 108.251C503.31 102.532 507.407 97.8951 512.46 97.8951C517.513 97.8951 521.609 102.532 521.609 108.251C521.609 113.97 517.513 118.606 512.46 118.606C507.407 118.606 503.31 113.97 503.31 108.251Z" fill="black"/>
<path d="M571.177 44.1702C571.177 38.4509 575.273 33.8146 580.326 33.8146C585.379 33.8146 589.476 38.4509 589.476 44.1702C589.476 49.8895 585.379 54.5259 580.326 54.5259C575.273 54.5259 571.177 49.8895 571.177 44.1702Z" fill="black"/>
<path d="M-9.23046 24.4775L416.595 24.4775L466.973 79.187L626.283 79.187" stroke="url(#paint6_radial_115_2952)" stroke-width="3" stroke-miterlimit="10"/>
</g>
<defs>
<radialGradient id="paint0_radial_115_2952" cx="0" cy="0" r="1" gradientUnits="userSpaceOnUse" gradientTransform="translate(281.463 23.6513) rotate(-90) scale(233.211 206.048)">
<stop stop-color="white"/>
<stop offset="0.26" stop-color="white"/>
<stop offset="0.66" stop-color="#CE1225"/>
<stop offset="1"/>
</radialGradient>
<radialGradient id="paint1_radial_115_2952" cx="0" cy="0" r="1" gradientUnits="userSpaceOnUse" gradientTransform="translate(248.955 77.2743) rotate(-90) scale(211.052 186.469)">
<stop stop-color="white"/>
<stop offset="0.26" stop-color="white"/>
<stop offset="0.66" stop-color="#CE1225"/>
<stop offset="1"/>
</radialGradient>
<radialGradient id="paint2_radial_115_2952" cx="0" cy="0" r="1" gradientUnits="userSpaceOnUse" gradientTransform="translate(326.911 247.729) rotate(-90) scale(272.19 240.486)">
<stop stop-color="white"/>
<stop offset="0.26" stop-color="white"/>
<stop offset="0.66" stop-color="#CE1225"/>
<stop offset="1"/>
</radialGradient>
<radialGradient id="paint3_radial_115_2952" cx="0" cy="0" r="1" gradientUnits="userSpaceOnUse" gradientTransform="translate(275.163 267.366) rotate(-90) scale(233.721 206.498)">
<stop stop-color="white"/>
<stop offset="0.26" stop-color="white"/>
<stop offset="0.66" stop-color="#CE1225"/>
<stop offset="1"/>
</radialGradient>
<radialGradient id="paint4_radial_115_2952" cx="0" cy="0" r="1" gradientUnits="userSpaceOnUse" gradientTransform="translate(675.221 304.08) rotate(-90) scale(16.7275 14.7792)">
<stop stop-color="white"/>
<stop offset="0.26" stop-color="white"/>
<stop offset="0.66" stop-color="#CE1225"/>
<stop offset="1"/>
</radialGradient>
<radialGradient id="paint5_radial_115_2952" cx="0" cy="0" r="1" gradientUnits="userSpaceOnUse" gradientTransform="translate(635.187 79.1743) rotate(-103.812) scale(10.4758 9.4039)">
<stop stop-color="white"/>
<stop offset="0.26" stop-color="white"/>
<stop offset="0.66" stop-color="#CE1225"/>
<stop offset="1"/>
</radialGradient>
<radialGradient id="paint6_radial_115_2952" cx="0" cy="0" r="1" gradientUnits="userSpaceOnUse" gradientTransform="translate(308.521 51.8323) rotate(-90) scale(255.134 225.417)">
<stop stop-color="white"/>
<stop offset="0.26" stop-color="white"/>
<stop offset="0.66" stop-color="#CE1225"/>
<stop offset="1"/>
</radialGradient>
</defs>
</svg>
