<svg width="624" height="632" viewBox="0 0 624 632" fill="none" xmlns="http://www.w3.org/2000/svg">
<g opacity="0.21" filter="url(#filter0_df_738_6615)">
<path d="M349.939 201.344C327.866 209.594 316.661 234.176 324.911 256.248C333.161 278.321 357.743 289.526 379.815 281.276C401.888 273.026 413.093 248.444 404.843 226.372C396.593 204.299 372.011 193.094 349.939 201.344ZM357.383 244.111L432.129 444.084L447.116 438.482L372.371 238.509L357.383 244.111Z" fill="#084C28"/>
<path d="M620.503 155.76C609.743 150.96 597.129 155.791 592.328 166.55C587.528 177.31 592.359 189.924 603.118 194.725C613.878 199.525 626.492 194.695 631.293 183.935C636.093 173.175 631.262 160.561 620.503 155.76ZM608.158 173.613L491.111 435.954L498.417 439.213L615.463 176.872L608.158 173.613Z" fill="#084C28"/>
<path d="M376.087 686.954C386.824 691.804 399.461 687.032 404.311 676.295C409.161 665.557 404.389 652.921 393.651 648.07C382.914 643.22 370.278 647.993 365.427 658.73C360.577 669.467 365.349 682.104 376.087 686.954ZM388.514 669.159L435.084 566.067L427.793 562.774L381.224 665.866L388.514 669.159Z" fill="#084C28"/>
<circle cx="462.371" cy="502.146" r="67.5413" transform="rotate(-34.5309 462.371 502.146)" stroke="#084C28" stroke-width="18"/>
<circle cx="677.685" cy="603.605" r="42.1059" transform="rotate(-62.9164 677.685 603.605)" stroke="#084C28" stroke-width="8"/>
<circle cx="180.773" cy="367.553" r="58.1842" transform="rotate(117.084 180.773 367.553)" stroke="#084C28" stroke-width="16"/>
<line x1="548.327" y1="731.16" x2="489.181" y2="564.422" stroke="#084C28" stroke-width="8"/>
<line x1="642.016" y1="585.288" x2="525.103" y2="524.099" stroke="#084C28" stroke-width="8"/>
<line x1="227.313" y1="394.272" x2="399.844" y2="481.415" stroke="#084C28" stroke-width="12"/>
</g>
<defs>
<filter id="filter0_df_738_6615" x="106.575" y="145.904" width="650.226" height="718.787" filterUnits="userSpaceOnUse" color-interpolation-filters="sRGB">
<feFlood flood-opacity="0" result="BackgroundImageFix"/>
<feColorMatrix in="SourceAlpha" type="matrix" values="0 0 0 0 0 0 0 0 0 0 0 0 0 0 0 0 0 0 127 0" result="hardAlpha"/>
<feOffset dx="14" dy="16"/>
<feGaussianBlur stdDeviation="9.5"/>
<feComposite in2="hardAlpha" operator="out"/>
<feColorMatrix type="matrix" values="0 0 0 0 0 0 0 0 0 0 0 0 0 0 0 0 0 0 0.07 0"/>
<feBlend mode="normal" in2="BackgroundImageFix" result="effect1_dropShadow_738_6615"/>
<feBlend mode="normal" in="SourceGraphic" in2="effect1_dropShadow_738_6615" result="shape"/>
<feGaussianBlur stdDeviation="4" result="effect2_foregroundBlur_738_6615"/>
</filter>
</defs>
</svg>
