<svg width="291" height="324" viewBox="0 0 291 324" fill="none" xmlns="http://www.w3.org/2000/svg">
<g opacity="0.4">
<path d="M154.985 8.20965C140.661 4.7842 126.031 13.5584 122.307 27.8074C118.583 42.0564 127.176 56.3844 141.5 59.8099C155.823 63.2353 170.454 54.4611 174.178 40.2121C177.902 25.9631 169.309 11.6351 154.985 8.20965ZM143.379 32.8468L117.526 131.769L127.252 134.095L153.105 35.1727L143.379 32.8468Z" fill="#CE1225"/>
<path d="M286.894 64.0376C280.515 54.1321 267.115 50.9514 256.964 56.9334C246.814 62.9153 243.757 75.7947 250.136 85.7002C256.516 95.6057 269.916 98.7864 280.066 92.8044C290.217 86.8225 293.274 73.9431 286.894 64.0376ZM266.349 71.506L140.456 145.698L144.788 152.424L270.681 78.2318L266.349 71.506Z" fill="#CE1225"/>
<path d="M26.6044 212.464C29.752 217.444 36.4376 219.09 41.537 216.14C46.6365 213.191 48.2188 206.763 45.0712 201.783C41.9236 196.804 35.238 195.158 30.1385 198.107C25.0391 201.057 23.4568 207.485 26.6044 212.464ZM36.9064 208.814L85.2404 180.858L83.1031 177.477L34.7692 205.433L36.9064 208.814Z" fill="#CE1225"/>
<path d="M147.739 163.039C147.739 180.261 133.078 194.597 114.521 194.597C95.9639 194.597 81.3034 180.261 81.3034 163.039C81.3034 145.816 95.9639 131.48 114.521 131.48C133.078 131.48 147.739 145.816 147.739 163.039Z" stroke="#CE1225" stroke-width="10"/>
<path d="M101.761 301.2C98.3771 313.282 85.2529 320.751 72.1601 317.395C59.0672 314.039 51.6052 301.294 54.9895 289.212C58.3738 277.13 71.498 269.661 84.5908 273.017C97.6837 276.373 105.146 289.118 101.761 301.2Z" stroke="#CE1225" stroke-width="10"/>
<path d="M191.071 252.624C195.984 261.321 192.653 272.338 183.348 277.148C174.043 281.957 162.585 278.586 157.672 269.889C152.759 261.192 156.09 250.175 165.395 245.365C174.699 240.556 186.158 243.927 191.071 252.624Z" stroke="#CE1225" stroke-width="8"/>
<path d="M13.0403 46.1118C6.06081 33.7565 10.7883 18.0939 24.0241 11.2522C37.2598 4.41043 53.5467 9.21053 60.5262 21.5658C67.5057 33.921 62.7782 49.5837 49.5424 56.4254C36.3066 63.2671 20.0197 58.467 13.0403 46.1118Z" stroke="#CE1225" stroke-width="12"/>
<line y1="-4" x2="84.763" y2="-4" transform="matrix(0.269729 -0.962936 0.968686 0.248289 86.9893 276.917)" stroke="#CE1225" stroke-width="8"/>
<line y1="-4" x2="67.2566" y2="-4" transform="matrix(-0.491847 -0.870682 0.888337 -0.459192 168.958 246.328)" stroke="#CE1225" stroke-width="8"/>
<line y1="-6" x2="96.5458" y2="-6" transform="matrix(0.491847 0.870682 -0.888337 0.459192 44.5543 55.2678)" stroke="#CE1225" stroke-width="12"/>
</g>
</svg>
