<svg width="1728" height="1117" viewBox="0 0 1728 1117" fill="none" xmlns="http://www.w3.org/2000/svg">
<g opacity="0.21" filter="url(#filter0_df_755_3416)">
<path d="M-18.0615 12.344C-40.1341 20.5942 -51.3394 45.1758 -43.0891 67.2485C-34.8389 89.3212 -10.2573 100.526 11.8154 92.2761C33.888 84.0259 45.0933 59.4443 36.843 37.3716C28.5928 15.299 4.01118 4.0937 -18.0615 12.344ZM-10.6167 55.111L64.1289 255.084L79.1161 249.482L4.37059 49.5091L-10.6167 55.111Z" fill="#084C28"/>
<path d="M252.503 -33.2394C241.744 -38.04 229.129 -33.2091 224.329 -22.4494C219.528 -11.6897 224.359 0.924439 235.119 5.72501C245.879 10.5256 258.493 5.69474 263.293 -5.06499C268.094 -15.8247 263.263 -28.4388 252.503 -33.2394ZM240.158 -15.387L123.112 246.954L130.418 250.213L247.464 -12.1274L240.158 -15.387Z" fill="#084C28"/>
<path d="M8.08683 497.954C18.8242 502.804 31.4606 498.032 36.3109 487.295C41.1612 476.557 36.3888 463.921 25.6515 459.07C14.9141 454.22 2.27771 458.993 -2.57262 469.73C-7.42296 480.467 -2.65056 493.104 8.08683 497.954ZM20.5145 480.159L67.0835 377.067L59.7929 373.774L13.2238 476.866L20.5145 480.159Z" fill="#084C28"/>
<circle cx="94.371" cy="313.146" r="67.5413" transform="rotate(-34.5309 94.371 313.146)" stroke="#084C28" stroke-width="18"/>
<circle cx="191.589" cy="582.144" r="49.5316" transform="rotate(-19.5309 191.589 582.144)" stroke="#084C28" stroke-width="18"/>
<circle cx="309.685" cy="414.605" r="42.1059" transform="rotate(-62.9164 309.685 414.605)" stroke="#084C28" stroke-width="8"/>
<line x1="180.327" y1="542.16" x2="121.181" y2="375.422" stroke="#084C28" stroke-width="8"/>
<line x1="274.017" y1="396.288" x2="157.103" y2="335.099" stroke="#084C28" stroke-width="8"/>
<line x1="-140.687" y1="205.272" x2="31.8437" y2="292.415" stroke="#084C28" stroke-width="12"/>
</g>
<g opacity="0.21" filter="url(#filter1_df_755_3416)">
<path d="M1453.94 686.344C1431.87 694.594 1420.66 719.176 1428.91 741.248C1437.16 763.321 1461.74 774.526 1483.82 766.276C1505.89 758.026 1517.09 733.444 1508.84 711.372C1500.59 689.299 1476.01 678.094 1453.94 686.344ZM1461.38 729.111L1536.13 929.084L1551.12 923.482L1476.37 723.509L1461.38 729.111Z" fill="#084C28"/>
<path d="M1724.5 640.76C1713.74 635.96 1701.13 640.791 1696.33 651.55C1691.53 662.31 1696.36 674.924 1707.12 679.725C1717.88 684.525 1730.49 679.695 1735.29 668.935C1740.09 658.175 1735.26 645.561 1724.5 640.76ZM1712.16 658.613L1595.11 920.954L1602.42 924.213L1719.46 661.872L1712.16 658.613Z" fill="#084C28"/>
<path d="M1480.09 1171.95C1490.82 1176.8 1503.46 1172.03 1508.31 1161.29C1513.16 1150.56 1508.39 1137.92 1497.65 1133.07C1486.91 1128.22 1474.28 1132.99 1469.43 1143.73C1464.58 1154.47 1469.35 1167.1 1480.09 1171.95ZM1492.51 1154.16L1539.08 1051.07L1531.79 1047.77L1485.22 1150.87L1492.51 1154.16Z" fill="#084C28"/>
<circle cx="1566.37" cy="987.146" r="67.5413" transform="rotate(-34.5309 1566.37 987.146)" stroke="#084C28" stroke-width="18"/>
<circle cx="1781.69" cy="1088.6" r="42.1059" transform="rotate(-62.9164 1781.69 1088.6)" stroke="#084C28" stroke-width="8"/>
<circle cx="1284.77" cy="852.553" r="58.1842" transform="rotate(117.084 1284.77 852.553)" stroke="#084C28" stroke-width="16"/>
<line x1="1652.33" y1="1216.16" x2="1593.18" y2="1049.42" stroke="#084C28" stroke-width="8"/>
<line x1="1746.02" y1="1070.29" x2="1629.1" y2="1009.1" stroke="#084C28" stroke-width="8"/>
<line x1="1331.31" y1="879.272" x2="1503.84" y2="966.415" stroke="#084C28" stroke-width="12"/>
</g>
<g opacity="0.6" filter="url(#filter2_f_755_3416)">
<circle cx="1540.5" cy="1301.5" r="574.5" fill="#F84E5D"/>
</g>
<g opacity="0.78" filter="url(#filter3_f_755_3416)">
<circle cx="147" cy="361" r="309" fill="#3DCC80"/>
</g>
<defs>
<filter id="filter0_df_755_3416" x="-261.425" y="-43.0958" width="650.225" height="718.787" filterUnits="userSpaceOnUse" color-interpolation-filters="sRGB">
<feFlood flood-opacity="0" result="BackgroundImageFix"/>
<feColorMatrix in="SourceAlpha" type="matrix" values="0 0 0 0 0 0 0 0 0 0 0 0 0 0 0 0 0 0 127 0" result="hardAlpha"/>
<feOffset dx="14" dy="16"/>
<feGaussianBlur stdDeviation="9.5"/>
<feComposite in2="hardAlpha" operator="out"/>
<feColorMatrix type="matrix" values="0 0 0 0 0 0 0 0 0 0 0 0 0 0 0 0 0 0 0.07 0"/>
<feBlend mode="normal" in2="BackgroundImageFix" result="effect1_dropShadow_755_3416"/>
<feBlend mode="normal" in="SourceGraphic" in2="effect1_dropShadow_755_3416" result="shape"/>
<feGaussianBlur stdDeviation="4" result="effect2_foregroundBlur_755_3416"/>
</filter>
<filter id="filter1_df_755_3416" x="1210.58" y="630.904" width="650.226" height="718.787" filterUnits="userSpaceOnUse" color-interpolation-filters="sRGB">
<feFlood flood-opacity="0" result="BackgroundImageFix"/>
<feColorMatrix in="SourceAlpha" type="matrix" values="0 0 0 0 0 0 0 0 0 0 0 0 0 0 0 0 0 0 127 0" result="hardAlpha"/>
<feOffset dx="14" dy="16"/>
<feGaussianBlur stdDeviation="9.5"/>
<feComposite in2="hardAlpha" operator="out"/>
<feColorMatrix type="matrix" values="0 0 0 0 0 0 0 0 0 0 0 0 0 0 0 0 0 0 0.07 0"/>
<feBlend mode="normal" in2="BackgroundImageFix" result="effect1_dropShadow_755_3416"/>
<feBlend mode="normal" in="SourceGraphic" in2="effect1_dropShadow_755_3416" result="shape"/>
<feGaussianBlur stdDeviation="4" result="effect2_foregroundBlur_755_3416"/>
</filter>
<filter id="filter2_f_755_3416" x="166" y="-73" width="2749" height="2749" filterUnits="userSpaceOnUse" color-interpolation-filters="sRGB">
<feFlood flood-opacity="0" result="BackgroundImageFix"/>
<feBlend mode="normal" in="SourceGraphic" in2="BackgroundImageFix" result="shape"/>
<feGaussianBlur stdDeviation="400" result="effect1_foregroundBlur_755_3416"/>
</filter>
<filter id="filter3_f_755_3416" x="-962" y="-748" width="2218" height="2218" filterUnits="userSpaceOnUse" color-interpolation-filters="sRGB">
<feFlood flood-opacity="0" result="BackgroundImageFix"/>
<feBlend mode="normal" in="SourceGraphic" in2="BackgroundImageFix" result="shape"/>
<feGaussianBlur stdDeviation="400" result="effect1_foregroundBlur_755_3416"/>
</filter>
</defs>
</svg>
