<svg width="545" height="569" viewBox="0 0 545 569" fill="none" xmlns="http://www.w3.org/2000/svg">
<g opacity="0.4">
<path fill-rule="evenodd" clip-rule="evenodd" d="M142.819 19.2922L202.109 122.051C202.995 123.589 203.46 125.333 203.459 127.108C203.459 128.883 202.991 130.627 202.104 132.164C201.218 133.702 199.942 134.979 198.406 135.869C196.87 136.758 195.127 137.228 193.352 137.232L74.71 137.24C72.9334 137.238 71.1886 136.769 69.6508 135.879C68.113 134.99 66.8364 133.711 65.9491 132.172C65.0617 130.633 64.595 128.887 64.5957 127.111C64.5964 125.334 65.0645 123.589 65.9531 122.051L125.254 19.2922C126.146 17.7523 127.426 16.4739 128.968 15.5851C130.509 14.6964 132.257 14.2285 134.037 14.2285C135.816 14.2285 137.564 14.6964 139.106 15.5851C140.647 16.4739 141.928 17.7523 142.819 19.2922ZM134.028 111.029C134.521 111.029 135.01 110.932 135.465 110.743C135.921 110.555 136.335 110.278 136.684 109.929C137.032 109.581 137.309 109.167 137.498 108.711C137.686 108.255 137.784 107.767 137.784 107.274C137.784 106.781 137.686 106.292 137.498 105.837C137.309 105.381 137.032 104.967 136.684 104.618C136.335 104.27 135.921 103.993 135.465 103.804C135.01 103.616 134.521 103.518 134.028 103.518C133.032 103.518 132.077 103.914 131.373 104.618C130.668 105.323 130.273 106.278 130.273 107.274C130.273 108.27 130.668 109.225 131.373 109.929C132.077 110.634 133.032 111.029 134.028 111.029Z" fill="#FECFC4"/>
<path d="M453.013 109.613C431.61 105.558 411.191 118.148 407.493 137.721C406.235 144.578 407.123 151.653 410.036 157.986L400.793 173.122L418.307 169.554C424.188 175.193 431.59 178.988 439.602 180.473C461.005 184.527 481.423 171.938 485.122 152.367C488.849 132.799 474.473 113.667 453.013 109.613Z" fill="#007A3D"/>
<path d="M184.001 240.09C184.947 240.09 185.855 239.714 186.524 239.045C187.193 238.376 187.569 237.468 187.569 236.522C187.569 235.576 187.193 234.669 186.524 234C185.855 233.33 184.947 232.955 184.001 232.955C183.055 232.955 182.148 233.33 181.479 234C180.809 234.669 180.434 235.576 180.434 236.522C180.434 237.468 180.809 238.376 181.479 239.045C182.148 239.714 183.055 240.09 184.001 240.09Z" fill="#FECFC4"/>
<path d="M216.11 267.334C216.11 268.039 215.901 268.729 215.509 269.316C215.117 269.903 214.559 270.36 213.907 270.63C213.256 270.9 212.538 270.97 211.846 270.833C211.154 270.695 210.518 270.355 210.02 269.856C209.521 269.357 209.181 268.722 209.043 268.03C208.906 267.338 208.976 266.62 209.246 265.968C209.516 265.317 209.973 264.759 210.56 264.367C211.147 263.975 211.837 263.766 212.542 263.766C213.486 263.774 214.389 264.152 215.057 264.819C215.724 265.487 216.102 266.39 216.11 267.334Z" fill="#FECFC4"/>
<path d="M249.458 241.387C249.458 242.093 249.248 242.782 248.856 243.369C248.464 243.956 247.907 244.413 247.255 244.683C246.603 244.953 245.886 245.024 245.194 244.886C244.502 244.748 243.866 244.409 243.367 243.91C242.868 243.411 242.528 242.775 242.391 242.083C242.253 241.391 242.324 240.674 242.594 240.022C242.864 239.37 243.321 238.813 243.908 238.421C244.495 238.029 245.184 237.819 245.89 237.819C246.833 237.828 247.736 238.207 248.403 238.874C249.07 239.541 249.449 240.444 249.458 241.387Z" fill="#FECFC4"/>
<path d="M286.104 271.871C286.104 272.576 285.895 273.265 285.504 273.852C285.112 274.438 284.555 274.895 283.904 275.165C283.253 275.435 282.536 275.505 281.845 275.368C281.154 275.231 280.518 274.891 280.02 274.393C279.521 273.895 279.181 273.26 279.043 272.569C278.906 271.877 278.976 271.161 279.245 270.509C279.515 269.858 279.971 269.301 280.557 268.909C281.143 268.517 281.832 268.307 282.537 268.307C283.48 268.314 284.383 268.692 285.05 269.359C285.717 270.026 286.096 270.928 286.104 271.871Z" fill="#FECFC4"/>
<path d="M317.237 241.387C317.235 242.092 317.025 242.781 316.633 243.368C316.241 243.954 315.685 244.412 315.035 244.684C314.547 244.888 314.02 244.981 313.491 244.956C312.963 244.932 312.447 244.79 311.98 244.541C311.513 244.293 311.108 243.943 310.792 243.519C310.477 243.094 310.26 242.605 310.156 242.086C310.053 241.568 310.067 241.033 310.196 240.52C310.324 240.007 310.566 239.529 310.902 239.121C311.238 238.712 311.66 238.384 312.139 238.159C312.618 237.934 313.14 237.818 313.669 237.819C314.612 237.829 315.514 238.208 316.181 238.875C316.848 239.542 317.227 240.444 317.237 241.387Z" fill="#FECFC4"/>
<path d="M356.155 243.441C356.153 244.146 355.943 244.836 355.551 245.422C355.159 246.009 354.603 246.467 353.953 246.739C353.465 246.942 352.938 247.035 352.409 247.011C351.881 246.986 351.365 246.844 350.898 246.595C350.431 246.347 350.025 245.998 349.71 245.573C349.395 245.149 349.178 244.659 349.074 244.141C348.971 243.622 348.985 243.087 349.114 242.574C349.242 242.061 349.484 241.583 349.82 241.175C350.156 240.766 350.578 240.438 351.057 240.213C351.536 239.988 352.058 239.872 352.587 239.874C353.531 239.882 354.433 240.261 355.1 240.928C355.767 241.595 356.146 242.498 356.155 243.441Z" fill="#FECFC4"/>
<path d="M395.666 241.387C396.143 241.401 396.618 241.318 397.062 241.145C397.506 240.972 397.912 240.712 398.254 240.379C398.596 240.047 398.868 239.649 399.053 239.21C399.239 238.77 399.334 238.298 399.334 237.821C399.334 237.344 399.239 236.872 399.053 236.433C398.868 235.993 398.596 235.595 398.254 235.263C397.912 234.931 397.506 234.67 397.062 234.497C396.618 234.324 396.143 234.241 395.666 234.255C394.738 234.281 393.856 234.668 393.209 235.334C392.561 236 392.199 236.892 392.199 237.821C392.199 238.75 392.561 239.642 393.209 240.308C393.856 240.974 394.738 241.361 395.666 241.387Z" fill="#FECFC4"/>
<path d="M380.153 276.25C380.151 276.955 379.941 277.644 379.549 278.231C379.157 278.817 378.601 279.275 377.951 279.547C377.463 279.751 376.936 279.844 376.407 279.819C375.879 279.795 375.363 279.653 374.896 279.404C374.429 279.156 374.024 278.806 373.708 278.382C373.393 277.957 373.176 277.468 373.073 276.949C372.969 276.431 372.983 275.895 373.112 275.383C373.24 274.87 373.482 274.392 373.818 273.983C374.154 273.575 374.576 273.247 375.055 273.022C375.534 272.797 376.056 272.681 376.585 272.682C377.055 272.678 377.521 272.768 377.955 272.945C378.39 273.123 378.785 273.386 379.117 273.718C379.449 274.05 379.712 274.445 379.89 274.88C380.068 275.314 380.157 275.78 380.153 276.25Z" fill="#FECFC4"/>
<path d="M130.059 224.254V241.765C132.545 240.738 135.18 239.657 137.951 238.522V229.577C135.008 228.315 132.331 226.51 130.059 224.254Z" fill="#6153BD"/>
<path d="M130.059 262.36V554.721H137.951V257.441C135.464 259.009 132.602 260.847 130.059 262.36Z" fill="#6153BD"/>
<path d="M294.372 202.308L290.051 208.47L290.159 203.227L294.372 202.308Z" fill="#6153BD"/>
<path d="M403.558 219.919L404.855 219.108C405.139 218.96 416.334 215.068 416.519 215C409.176 211.335 402.747 212.957 403.558 219.919Z" fill="#6153BD"/>
<path d="M427.014 235.874L419.617 238.468C424.59 240.522 429.575 240.243 430.918 236.081L427.014 235.874Z" fill="#6153BD"/>
<path d="M270.32 546.667C269.695 540.361 268.315 534.152 266.212 528.174C254.678 531.472 242.451 531.472 230.917 528.174C215.622 532.607 198.163 546.172 189.027 554.712C219.728 554.712 240.052 554.442 263.401 554.388C264.877 554.395 266.316 553.93 267.509 553.061C268.701 552.192 269.585 550.964 270.03 549.557C270.331 548.625 270.429 547.64 270.32 546.667Z" fill="#6153BD"/>
<path d="M441.664 500.507L431.609 495.102C427.609 508.237 422.853 512.129 410.474 520.237C416.69 529.535 415.231 534.129 414.528 536.829C407.985 542.991 404.693 542.966 400.152 554.753H422.912C425.969 554.82 428.981 554.014 431.595 552.429C434.209 550.844 436.316 548.546 437.669 545.805C441.083 538.408 443.928 523.429 447.126 514.618C448.12 512.007 448.111 509.12 447.103 506.515C446.094 503.909 444.157 501.769 441.664 500.507Z" fill="#6153BD"/>
<path d="M448.633 157.662C448.61 158.156 448.392 158.62 448.027 158.954C447.663 159.288 447.181 159.465 446.687 159.446C446.38 159.434 446.08 159.346 445.815 159.19C445.55 159.034 445.328 158.814 445.168 158.551C445.009 158.288 444.917 157.99 444.901 157.683C444.885 157.376 444.945 157.069 445.077 156.791C445.261 156.403 445.574 156.09 445.963 155.905C446.352 155.72 446.792 155.675 447.21 155.778C447.628 155.88 447.997 156.123 448.257 156.467C448.516 156.81 448.649 157.232 448.633 157.662Z" fill="#6153BD"/>
<path d="M130.113 223.011V137.24L138.005 137.231V223.498C133.197 222.633 130.87 222.579 130.113 223.011Z" fill="#6153BD"/>
<path d="M347.235 164.157C348.927 163.672 350.391 162.6 351.365 161.133C352.339 159.667 352.759 157.902 352.549 156.154C352.343 154.405 351.52 152.787 350.23 151.59C348.939 150.393 347.264 149.694 345.505 149.619C346.742 148.503 347.569 147.004 347.852 145.363C348.136 143.721 347.861 142.032 347.07 140.566C346.278 139.1 345.016 137.943 343.487 137.281C341.958 136.619 340.251 136.49 338.64 136.916C339.162 135.809 339.402 134.591 339.341 133.369C339.279 132.148 338.917 130.96 338.287 129.911C337.657 128.863 336.778 127.986 335.728 127.358C334.678 126.73 333.489 126.371 332.267 126.313C330.633 126.231 329.017 126.69 327.67 127.618C327.862 125.919 327.463 124.206 326.54 122.766C325.617 121.327 324.226 120.249 322.602 119.715C320.978 119.18 319.219 119.222 317.621 119.832C316.024 120.443 314.686 121.585 313.832 123.066C313.504 121.296 312.568 119.696 311.186 118.543C309.803 117.39 308.061 116.756 306.261 116.751C304.461 116.744 302.715 117.366 301.324 118.509C299.933 119.652 298.985 121.245 298.642 123.012C297.798 121.527 296.469 120.377 294.878 119.755C293.286 119.134 291.53 119.078 289.902 119.598C288.276 120.119 286.877 121.183 285.94 122.611C285.002 124.039 284.584 125.745 284.753 127.445C283.414 126.501 281.801 126.024 280.164 126.088C278.527 126.152 276.957 126.753 275.696 127.799C274.434 128.845 273.553 130.277 273.187 131.874C272.821 133.471 272.991 135.144 273.672 136.634C272.066 136.208 270.365 136.33 268.836 136.98C267.308 137.629 266.04 138.771 265.233 140.223C264.427 141.675 264.127 143.354 264.383 144.995C264.639 146.636 265.434 148.145 266.644 149.283C264.886 149.346 263.207 150.03 261.906 151.214C260.605 152.399 259.767 154.006 259.54 155.751C259.312 157.495 259.712 159.264 260.666 160.742C261.621 162.219 263.069 163.311 264.753 163.821C263.066 164.318 261.611 165.398 260.646 166.868C259.681 168.338 259.269 170.102 259.483 171.847C259.697 173.592 260.523 175.205 261.815 176.398C263.107 177.591 264.78 178.287 266.536 178.362C265.316 179.491 264.509 180.995 264.244 182.636C263.978 184.277 264.27 185.96 265.073 187.415C265.875 188.871 267.142 190.016 268.671 190.667C270.2 191.319 271.904 191.44 273.509 191.011C272.959 192.18 272.725 193.474 272.83 194.762C272.935 196.051 273.376 197.289 274.108 198.354C274.841 199.419 275.84 200.273 277.006 200.832C278.172 201.39 279.464 201.633 280.753 201.537C277.455 198.889 276.266 193.002 281.672 180.513C291.294 158.299 300.102 173.81 299.994 182.837C300.156 184.459 301.075 184.783 303.507 182.783C308.588 178.567 313.021 187.432 303.345 192.51C301.507 193.486 300.264 195.64 301.831 207.589C301.928 208.442 302.07 209.293 302.264 210.129C303.318 210.668 304.485 210.951 305.669 210.955C306.853 210.959 308.022 210.684 309.08 210.152C310.138 209.621 311.056 208.847 311.759 207.895C312.463 206.942 312.932 205.837 313.129 204.67C313.963 206.163 315.284 207.324 316.872 207.959C318.46 208.593 320.218 208.663 321.852 208.157C323.485 207.65 324.895 206.598 325.845 205.175C326.794 203.753 327.227 202.048 327.069 200.345C328.397 201.299 330.003 201.789 331.637 201.739C333.272 201.689 334.844 201.102 336.112 200.069C337.379 199.035 338.27 197.613 338.648 196.022C339.026 194.431 338.869 192.76 338.202 191.267C339.802 191.698 341.501 191.584 343.029 190.943C344.557 190.301 345.828 189.168 346.64 187.723C347.453 186.278 347.76 184.604 347.514 182.965C347.269 181.325 346.483 179.815 345.283 178.672C347.022 178.588 348.677 177.898 349.96 176.72C351.243 175.543 352.073 173.953 352.305 172.227C352.537 170.501 352.157 168.749 351.231 167.274C350.304 165.8 348.89 164.697 347.235 164.157Z" fill="#6153BD"/>
<path d="M184.001 240.09C184.947 240.09 185.855 239.714 186.524 239.045C187.193 238.376 187.569 237.468 187.569 236.522C187.569 235.576 187.193 234.669 186.524 234C185.855 233.33 184.947 232.955 184.001 232.955C183.055 232.955 182.148 233.33 181.479 234C180.809 234.669 180.434 235.576 180.434 236.522C180.434 237.468 180.809 238.376 181.479 239.045C182.148 239.714 183.055 240.09 184.001 240.09Z" stroke="#120071" stroke-width="2.25"/>
<path d="M216.11 267.334C216.11 268.039 215.901 268.729 215.509 269.316C215.117 269.903 214.559 270.36 213.908 270.63C213.256 270.9 212.538 270.97 211.846 270.833C211.154 270.695 210.518 270.355 210.02 269.856C209.521 269.357 209.181 268.722 209.043 268.03C208.906 267.338 208.976 266.62 209.246 265.968C209.516 265.317 209.973 264.759 210.56 264.367C211.147 263.975 211.837 263.766 212.542 263.766C213.486 263.774 214.389 264.152 215.057 264.819C215.724 265.487 216.102 266.39 216.11 267.334Z" stroke="#120071" stroke-width="2.25"/>
<path d="M249.459 241.387C249.459 242.093 249.25 242.782 248.858 243.369C248.466 243.956 247.909 244.413 247.257 244.683C246.605 244.953 245.888 245.024 245.196 244.886C244.504 244.748 243.868 244.409 243.369 243.91C242.87 243.411 242.53 242.775 242.393 242.083C242.255 241.391 242.326 240.674 242.596 240.022C242.866 239.37 243.323 238.813 243.91 238.421C244.496 238.029 245.186 237.819 245.892 237.819C246.835 237.828 247.738 238.207 248.405 238.874C249.072 239.541 249.451 240.444 249.459 241.387Z" stroke="#120071" stroke-width="2.25"/>
<path d="M286.106 271.871C286.106 272.576 285.897 273.265 285.506 273.852C285.114 274.438 284.557 274.895 283.906 275.165C283.255 275.435 282.538 275.505 281.847 275.368C281.156 275.231 280.52 274.891 280.022 274.393C279.523 273.895 279.183 273.26 279.045 272.569C278.908 271.877 278.978 271.161 279.247 270.509C279.516 269.858 279.973 269.301 280.559 268.909C281.145 268.517 281.834 268.307 282.538 268.307C283.482 268.314 284.385 268.692 285.052 269.359C285.719 270.026 286.098 270.928 286.106 271.871Z" stroke="#120071" stroke-width="2.25"/>
<path d="M317.239 241.387C317.237 242.092 317.027 242.781 316.635 243.368C316.243 243.954 315.687 244.412 315.037 244.684C314.549 244.888 314.022 244.981 313.493 244.956C312.965 244.932 312.449 244.79 311.982 244.541C311.515 244.293 311.109 243.943 310.794 243.519C310.479 243.094 310.262 242.605 310.158 242.086C310.055 241.568 310.069 241.033 310.198 240.52C310.326 240.007 310.568 239.529 310.904 239.121C311.24 238.712 311.662 238.384 312.141 238.159C312.62 237.934 313.142 237.818 313.671 237.819C314.614 237.829 315.516 238.208 316.183 238.875C316.85 239.542 317.229 240.444 317.239 241.387Z" stroke="#120071" stroke-width="2.25"/>
<path d="M356.155 243.441C356.153 244.146 355.943 244.836 355.551 245.422C355.159 246.009 354.603 246.467 353.953 246.739C353.465 246.942 352.938 247.035 352.409 247.011C351.881 246.986 351.365 246.844 350.898 246.595C350.431 246.347 350.025 245.998 349.71 245.573C349.395 245.149 349.178 244.659 349.074 244.141C348.971 243.622 348.985 243.087 349.114 242.574C349.242 242.061 349.484 241.583 349.82 241.175C350.156 240.766 350.578 240.438 351.057 240.213C351.536 239.988 352.058 239.872 352.587 239.874C353.531 239.882 354.433 240.261 355.1 240.928C355.767 241.595 356.146 242.498 356.155 243.441Z" stroke="#120071" stroke-width="2.25"/>
<path d="M395.666 241.387C396.143 241.401 396.618 241.318 397.062 241.145C397.506 240.972 397.912 240.712 398.254 240.379C398.596 240.047 398.868 239.649 399.053 239.21C399.239 238.77 399.334 238.298 399.334 237.821C399.334 237.344 399.239 236.872 399.053 236.433C398.868 235.993 398.596 235.595 398.254 235.263C397.912 234.931 397.506 234.67 397.062 234.497C396.618 234.324 396.143 234.241 395.666 234.255C394.738 234.281 393.856 234.668 393.209 235.334C392.561 236 392.199 236.892 392.199 237.821C392.199 238.75 392.561 239.642 393.209 240.308C393.856 240.974 394.738 241.361 395.666 241.387Z" stroke="#120071" stroke-width="2.25"/>
<path d="M380.153 276.25C380.151 276.955 379.941 277.644 379.549 278.231C379.157 278.817 378.601 279.275 377.951 279.547C377.463 279.751 376.936 279.844 376.407 279.819C375.879 279.795 375.363 279.653 374.896 279.404C374.429 279.156 374.024 278.806 373.708 278.382C373.393 277.957 373.176 277.468 373.073 276.949C372.969 276.431 372.983 275.895 373.112 275.383C373.24 274.87 373.482 274.392 373.818 273.983C374.154 273.575 374.576 273.247 375.055 273.022C375.534 272.797 376.056 272.681 376.585 272.682C377.055 272.678 377.521 272.768 377.955 272.945C378.39 273.123 378.785 273.386 379.117 273.718C379.449 274.05 379.712 274.445 379.89 274.88C380.068 275.314 380.157 275.78 380.153 276.25Z" stroke="#120071" stroke-width="2.25"/>
<path d="M448.635 157.662C448.611 158.156 448.394 158.62 448.029 158.954C447.665 159.288 447.183 159.465 446.689 159.446C446.382 159.434 446.082 159.346 445.817 159.19C445.552 159.034 445.33 158.814 445.17 158.551C445.011 158.288 444.919 157.99 444.903 157.683C444.887 157.376 444.947 157.069 445.079 156.791C445.263 156.403 445.576 156.09 445.965 155.905C446.353 155.72 446.794 155.675 447.212 155.778C447.629 155.88 447.999 156.123 448.259 156.467C448.518 156.81 448.651 157.232 448.635 157.662Z" stroke="#120071" stroke-width="2.25"/>
<path d="M130.061 223.011V137.231" stroke="#120071" stroke-width="2.25" stroke-linecap="round" stroke-linejoin="round"/>
<path d="M130.061 241.766V224.309" stroke="#120071" stroke-width="2.25" stroke-linecap="round" stroke-linejoin="round"/>
<path d="M130.061 554.775V262.522" stroke="#120071" stroke-width="2.25" stroke-linecap="round" stroke-linejoin="round"/>
<path d="M138.006 257.658V554.775" stroke="#120071" stroke-width="2.25" stroke-linecap="round" stroke-linejoin="round"/>
<path d="M138.006 229.606V238.576" stroke="#120071" stroke-width="2.25" stroke-linecap="round" stroke-linejoin="round"/>
<path d="M138.006 137.231V223.498" stroke="#120071" stroke-width="2.25" stroke-linecap="round" stroke-linejoin="round"/>
<path d="M425.015 242.9C438.545 273.602 440.209 308.229 429.686 340.087C419.163 371.944 397.201 398.767 368.047 415.37" stroke="#120071" stroke-width="2.25" stroke-linecap="round" stroke-linejoin="round"/>
<path d="M185.568 226.795C202.49 199.215 228.722 178.601 259.521 168.68M407.194 213.406C392.741 195.202 373.849 181.022 352.334 172.228" stroke="#120071" stroke-width="2.25" stroke-linecap="round" stroke-linejoin="round"/>
<path d="M248.702 422.565C224.079 412.24 203.053 394.871 188.265 372.639C173.477 350.408 165.585 324.303 165.58 297.602C165.58 284.276 167.526 271.018 171.355 258.252" stroke="#120071" stroke-width="2.25" stroke-linecap="round" stroke-linejoin="round"/>
<path d="M323.833 431.16C316.354 432.736 308.708 433.371 301.073 433.052C297.374 433.052 293.656 432.904 289.994 432.611" stroke="#120071" stroke-width="2.25" stroke-linecap="round" stroke-linejoin="round"/>
<path d="M429.826 238.036C419.231 248.63 405.22 263.971 390.747 281.439C387.139 285.812 381.998 288.644 376.374 289.357C370.749 290.07 365.065 288.611 360.479 285.277C347.776 276.036 339.182 269.388 325.238 259.171" stroke="#120071" stroke-width="2.25" stroke-linecap="round" stroke-linejoin="round"/>
<path d="M289.986 208.561L294.373 202.308" stroke="#120071" stroke-width="2.25" stroke-linecap="round" stroke-linejoin="round"/>
<path d="M404.758 214.92C392.853 225.252 382.183 236.926 372.963 249.712C372.963 249.712 345.989 227.125 327.508 215.876C308.424 204.26 303.935 223.444 301.832 207.498C300.259 195.549 301.508 193.386 303.346 192.419C313.019 187.321 308.572 178.45 303.508 182.689C300.495 185.213 300.156 184.112 300.028 181.753C299.528 172.649 291.001 158.993 281.726 180.419C268.639 210.633 294.372 202.308 294.372 202.308" stroke="#120071" stroke-width="2.25" stroke-linecap="round" stroke-linejoin="round"/>
<path d="M290.157 203.19C290.478 207.822 289.722 215.284 285.133 214.2C273.354 211.418 268.313 213.267 261.619 218.468C248.304 228.818 221.243 244.141 221.243 244.141C205.191 234.468 193.569 230.306 178.599 223.873C170.669 232.636 166.062 243.903 165.58 255.711C186.918 264.847 195.094 270.084 211.794 278.25C215.535 280.09 219.678 280.96 223.843 280.781C228.008 280.601 232.061 279.378 235.63 277.223C246.125 270.861 256.006 265.009 266.763 259.333" stroke="#120071" stroke-width="2.25" stroke-linecap="round" stroke-linejoin="round"/>
<path d="M416.53 215.011C410.086 211.788 404.347 212.638 403.576 217.594C402.913 221.862 405.81 226.897 408.564 230.2C412.408 235.034 417.821 238.371 423.867 239.634C425.273 240.027 426.774 239.881 428.078 239.223C429.381 238.566 430.392 237.445 430.911 236.081" stroke="#120071" stroke-width="2.25" stroke-linecap="round" stroke-linejoin="round"/>
<path d="M263.402 236.684C264.573 254.537 269.141 272.002 276.862 288.142C293.363 292.52 306.752 291.493 323.455 286.412C322.141 273.903 323.789 261.261 328.266 249.506" stroke="#120071" stroke-width="2.25" stroke-linecap="round" stroke-linejoin="round"/>
<path d="M419.61 238.468C427.275 235.514 435.154 233.147 443.178 231.39C450.369 230.159 457.682 229.796 464.96 230.308C475.665 230.94 477.375 228.519 466.311 224.741C462.251 223.352 441.503 220.416 436.908 219.768C429.557 218.735 418.7 217.662 411.502 217.443C410.956 217.444 410.411 217.479 409.869 217.546" stroke="#120071" stroke-width="2.25" stroke-linecap="round" stroke-linejoin="round"/>
<path d="M403.559 219.919C403.712 219.822 428.657 210.53 438.583 205.978C450.103 200.687 447.002 204.778 444.043 208.303C441.869 210.892 431.124 218.033 436.908 219.762" stroke="#120071" stroke-width="2.25" stroke-linecap="round" stroke-linejoin="round"/>
<path d="M426.961 235.851C433.504 234.283 446.421 235.643 452.148 235.97C456.796 236.238 463.553 237.763 468.743 238.246C469.932 238.357 471.229 236.625 464.31 233.814C461.713 232.764 457.135 230.866 454.973 230.201" stroke="#120071" stroke-width="2.25" stroke-linecap="round" stroke-linejoin="round"/>
<path d="M426.686 235.97C432.068 235.99 437.431 236.573 442.692 237.711C446.959 238.684 454.111 241.384 458.689 242.63C459.827 242.94 461.392 241.441 455.067 237.495C454.267 236.985 453.456 236.492 452.635 236.016" stroke="#120071" stroke-width="2.25" stroke-linecap="round" stroke-linejoin="round"/>
<path d="M166.059 250.901C157.33 249.606 148.504 249.082 139.683 249.333C132.399 249.891 125.199 251.268 118.223 253.441C107.955 256.633 105.705 254.613 115.574 248.32C132.239 240.376 149.476 233.691 167.14 228.323C169.646 227.638 172.298 227.714 174.762 228.539" stroke="#120071" stroke-width="2.25" stroke-linecap="round" stroke-linejoin="round"/>
<path d="M143.189 236.522C148.381 233.441 136.116 229.125 133.411 227.133C129.738 224.425 125.687 221.216 138.168 223.566C148.622 225.694 159.204 227.137 169.847 227.885" stroke="#120071" stroke-width="2.25" stroke-linecap="round" stroke-linejoin="round"/>
<path d="M127.844 251.009C125.568 252.415 121.039 255.72 119.736 256.699C113.762 261.117 115.361 262.491 116.493 262.105C120.988 260.568 127.899 257.294 132.061 255.996C138.818 253.888 151.788 249.402 157.95 250.05" stroke="#120071" stroke-width="2.25" stroke-linecap="round" stroke-linejoin="round"/>
<path d="M131.681 256.09C130.762 257.009 130.06 257.766 129.627 258.144C124.438 263.442 126.267 264.563 127.303 263.982C131.434 261.658 137.738 257.399 141.681 255.447C146.5 253.172 151.509 251.327 156.652 249.934" stroke="#120071" stroke-width="2.25" stroke-linecap="round" stroke-linejoin="round"/>
<path d="M270.322 546.667C269.697 540.361 268.317 534.152 266.214 528.174C254.68 531.472 242.453 531.472 230.919 528.174C215.624 532.607 198.165 546.172 189.029 554.712C219.727 554.712 240.054 554.442 263.403 554.388C264.382 554.391 265.349 554.186 266.243 553.785C267.138 553.389 267.939 552.807 268.593 552.078C269.247 551.35 269.738 550.49 270.035 549.557C270.334 548.624 270.433 547.64 270.319 546.667H270.322Z" stroke="#120071" stroke-width="2.25" stroke-linecap="round" stroke-linejoin="round"/>
<path d="M284.7 443.581C285.055 458.674 273.018 488.6 266.207 528.237" stroke="#120071" stroke-width="2.25" stroke-linecap="round" stroke-linejoin="round"/>
<path d="M230.918 528.183L248.489 437.413" stroke="#120071" stroke-width="2.25" stroke-linecap="round" stroke-linejoin="round"/>
<path d="M307.83 376.786L286.589 443.268C272.593 445.732 258.176 443.166 245.889 436.025L276.862 288.199" stroke="#120071" stroke-width="2.25" stroke-linecap="round" stroke-linejoin="round"/>
<path d="M441.718 500.561L431.664 495.155C427.663 508.288 422.844 512.18 410.474 520.288C416.69 529.585 415.231 534.18 414.528 536.88C407.985 543.042 404.693 542.963 400.152 554.747H422.912C425.969 554.814 428.981 554.008 431.595 552.423C434.209 550.838 436.316 548.54 437.669 545.799C441.083 538.402 443.928 523.423 447.126 514.612C448.121 512.016 448.119 509.143 447.12 506.548C446.122 503.953 444.197 501.82 441.718 500.561Z" stroke="#120071" stroke-width="2.25" stroke-linecap="round" stroke-linejoin="round"/>
<path d="M410.529 520.291L345.398 450.079" stroke="#120071" stroke-width="2.25" stroke-linecap="round" stroke-linejoin="round"/>
<path d="M373.721 427.863C382.881 435.399 391.167 443.939 398.424 453.323C408.361 466.947 431.665 495.144 431.665 495.144" stroke="#120071" stroke-width="2.25" stroke-linecap="round" stroke-linejoin="round"/>
<path d="M294.373 325.545L319.238 420.406C321.127 427.605 324.983 434.136 330.374 439.268L342.764 451.063C355.967 446.808 367.264 438.064 374.693 426.349L363.507 407.856L356.425 335.753C353.825 308.896 337.793 290.378 323.455 286.403" stroke="#120071" stroke-width="2.25" stroke-linecap="round" stroke-linejoin="round"/>
<path d="M313.67 211.984C304.56 223.44 297.318 236.264 292.213 249.982C285.024 238.144 277.988 212.997 277.988 212.997" stroke="#120071" stroke-width="2.25" stroke-linecap="round" stroke-linejoin="round"/>
<path d="M74.4941 554.775H504.416" stroke="#120071" stroke-width="2.25" stroke-linecap="round" stroke-linejoin="round"/>
<path d="M453.013 109.613C431.61 105.558 411.191 118.148 407.493 137.721C406.235 144.578 407.123 151.653 410.036 157.986L400.793 173.122L418.307 169.554C424.188 175.193 431.59 178.988 439.602 180.473C461.005 184.527 481.423 171.938 485.122 152.367C488.849 132.799 474.473 113.667 453.013 109.613Z" stroke="#120071" stroke-width="2.25" stroke-linecap="round" stroke-linejoin="round"/>
<path d="M446.742 149.448C446.796 147.015 447.729 145.24 450.742 141.232C457.243 132.586 453.303 126.628 447.769 126.366C446.779 126.321 445.792 126.495 444.877 126.875C443.962 127.256 443.143 127.834 442.477 128.567C441.811 129.301 441.315 130.173 441.025 131.12C440.735 132.067 440.658 133.067 440.799 134.048" stroke="#120071" stroke-width="2.25" stroke-linecap="round" stroke-linejoin="round"/>
<path d="M423.285 411.433H434.961" stroke="#120071" stroke-width="2.25" stroke-linecap="round" stroke-linejoin="round"/>
<path d="M455.662 411.379H467.338" stroke="#120071" stroke-width="2.25" stroke-linecap="round" stroke-linejoin="round"/>
<path d="M445.312 389.378V401.054" stroke="#120071" stroke-width="2.25" stroke-linecap="round" stroke-linejoin="round"/>
<path d="M445.365 421.757V433.43" stroke="#120071" stroke-width="2.25" stroke-linecap="round" stroke-linejoin="round"/>
<path d="M429.719 395.865L437.989 404.081" stroke="#120071" stroke-width="2.25" stroke-linecap="round" stroke-linejoin="round"/>
<path d="M452.689 418.73L460.96 426.944" stroke="#120071" stroke-width="2.25" stroke-linecap="round" stroke-linejoin="round"/>
<path d="M460.905 395.811L452.635 404.081" stroke="#120071" stroke-width="2.25" stroke-linecap="round" stroke-linejoin="round"/>
<path d="M438.044 418.73L429.773 426.998" stroke="#120071" stroke-width="2.25" stroke-linecap="round" stroke-linejoin="round"/>
<path d="M74.7108 137.232C72.9358 137.228 71.193 136.758 69.6569 135.869C68.1208 134.979 66.8454 133.702 65.9585 132.164C65.0716 130.627 64.6043 128.883 64.6035 127.108C64.6027 125.333 65.0684 123.589 65.9539 122.051L125.249 19.2922C126.141 17.7523 127.422 16.4739 128.963 15.5851C130.505 14.6964 132.253 14.2285 134.032 14.2285C135.811 14.2285 137.559 14.6964 139.101 15.5851C140.642 16.4739 141.923 17.7523 142.814 19.2922L202.11 122.051C202.998 123.589 203.467 125.334 203.467 127.111C203.468 128.887 203.001 130.633 202.114 132.172C201.227 133.711 199.95 134.99 198.412 135.879C196.874 136.769 195.13 137.238 193.353 137.24L74.7108 137.232Z" stroke="#120071" stroke-width="2.25" stroke-linecap="round" stroke-linejoin="round"/>
<path d="M218.378 77.8309C218.506 79.2638 218.061 80.6891 217.138 81.7933C216.216 82.8974 214.893 83.59 213.46 83.7186C212.027 83.8473 210.602 83.4015 209.498 82.4792C208.394 81.557 207.701 80.2339 207.573 78.8011C207.509 78.0916 207.585 77.3765 207.798 76.6966C208.011 76.0168 208.355 75.3855 208.812 74.8387C209.734 73.7346 211.057 73.042 212.49 72.9133C213.2 72.8496 213.915 72.9263 214.595 73.139C215.274 73.3516 215.906 73.6961 216.452 74.1527C217.557 75.075 218.249 76.398 218.378 77.8309Z" stroke="#120071" stroke-width="2.25" stroke-linecap="round" stroke-linejoin="round"/>
<path d="M174.408 471.428V493.266" stroke="#120071" stroke-width="2.25" stroke-linecap="round" stroke-linejoin="round"/>
<path d="M185.352 482.347H163.463" stroke="#120071" stroke-width="2.25" stroke-linecap="round" stroke-linejoin="round"/>
<path d="M302.266 210.038C303.309 210.599 304.471 210.903 305.656 210.924C306.841 210.945 308.013 210.683 309.076 210.16C310.139 209.636 311.061 208.866 311.766 207.914C312.472 206.962 312.939 205.856 313.131 204.687C313.965 206.18 315.286 207.341 316.874 207.976C318.462 208.611 320.22 208.681 321.853 208.174C323.487 207.667 324.896 206.615 325.846 205.193C326.796 203.77 327.229 202.065 327.071 200.362C328.399 201.316 330.005 201.806 331.639 201.756C333.274 201.706 334.846 201.119 336.113 200.086C337.381 199.052 338.272 197.63 338.65 196.039C339.028 194.448 338.871 192.777 338.204 191.284C339.885 191.752 341.677 191.613 343.265 190.891C344.854 190.169 346.137 188.91 346.889 187.335C347.565 185.908 347.774 184.305 347.486 182.752C347.198 181.2 346.428 179.778 345.285 178.689C347.231 178.635 349.077 177.815 350.423 176.409C351.768 175.002 352.506 173.122 352.474 171.175C352.446 169.603 351.925 168.078 350.984 166.817C350.043 165.557 348.731 164.623 347.231 164.148C348.795 163.689 350.167 162.735 351.142 161.429C352.117 160.122 352.641 158.535 352.636 156.905C352.611 155.005 351.856 153.188 350.528 151.83C349.199 150.472 347.4 149.677 345.501 149.61C346.623 148.597 347.41 147.265 347.755 145.793C348.101 144.321 347.989 142.778 347.436 141.371C346.885 139.963 345.919 138.756 344.666 137.91C343.413 137.065 341.932 136.621 340.42 136.637C339.816 136.651 339.217 136.741 338.636 136.907C339.334 135.426 339.525 133.755 339.177 132.154C338.83 130.554 337.965 129.112 336.715 128.053C335.465 126.994 333.902 126.377 332.266 126.297C330.63 126.217 329.013 126.678 327.666 127.61C327.855 125.912 327.454 124.201 326.531 122.764C325.607 121.326 324.217 120.25 322.595 119.717C320.972 119.183 319.215 119.223 317.618 119.832C316.022 120.44 314.683 121.579 313.828 123.058C312.621 114.748 299.938 114.554 298.638 123.004C298.008 121.894 297.103 120.964 296.011 120.305C294.918 119.645 293.674 119.277 292.398 119.237C291.122 119.197 289.857 119.485 288.725 120.075C287.593 120.664 286.631 121.535 285.932 122.603C284.996 124.031 284.579 125.737 284.749 127.436C283.41 126.495 281.798 126.02 280.162 126.085C278.526 126.15 276.957 126.752 275.697 127.797C274.437 128.842 273.555 130.272 273.188 131.868C272.822 133.463 272.99 135.135 273.668 136.626C272.061 136.191 270.354 136.307 268.821 136.955C267.287 137.603 266.015 138.746 265.206 140.201C264.398 141.657 264.1 143.341 264.359 144.985C264.619 146.63 265.422 148.14 266.64 149.275C264.877 149.329 263.191 150.009 261.884 151.194C260.577 152.378 259.734 153.989 259.506 155.738C259.279 157.487 259.681 159.261 260.642 160.74C261.602 162.219 263.058 163.309 264.749 163.813C263.055 164.303 261.592 165.381 260.621 166.852C259.65 168.324 259.235 170.093 259.45 171.842C259.664 173.592 260.495 175.208 261.793 176.401C263.091 177.594 264.771 178.286 266.532 178.353C265.309 179.481 264.5 180.986 264.233 182.628C263.966 184.27 264.258 185.954 265.061 187.411C265.864 188.868 267.132 190.013 268.663 190.664C270.194 191.315 271.899 191.434 273.505 191.002C272.943 192.188 272.706 193.503 272.82 194.811C272.933 196.118 273.393 197.372 274.151 198.444C274.909 199.515 275.939 200.366 277.134 200.908C278.33 201.45 279.648 201.664 280.954 201.529" stroke="#120071" stroke-width="2.25" stroke-linecap="round" stroke-linejoin="round"/>
<path d="M363.183 439.701L349.074 422.89" stroke="#120071" stroke-width="2.25" stroke-linecap="round" stroke-linejoin="round"/>
<path d="M271.078 443.539L276.862 422.565" stroke="#120071" stroke-width="2.25" stroke-linecap="round" stroke-linejoin="round"/>
<path d="M313.67 305.223C321.4 314.572 329.995 318.518 339.235 318.41" stroke="#120071" stroke-width="2.25" stroke-linecap="round" stroke-linejoin="round"/>
<path d="M130.273 107.277C130.273 108.273 130.669 109.228 131.373 109.932C132.078 110.637 133.033 111.032 134.029 111.032C135.025 111.032 135.98 110.637 136.684 109.932C137.389 109.228 137.784 108.273 137.784 107.277C137.784 106.281 137.389 105.326 136.684 104.621C135.98 103.917 135.025 103.521 134.029 103.521C133.033 103.521 132.078 103.917 131.373 104.621C130.669 105.326 130.273 106.281 130.273 107.277Z" stroke="#120071" stroke-width="2.25"/>
<path d="M133.975 53.7539V90.1301" stroke="#120071" stroke-width="2.25" stroke-linecap="round"/>
</g>
</svg>
